<svg width="20" height="20" viewBox="0 0 20 20" fill="none" xmlns="http://www.w3.org/2000/svg">
<rect width="20" height="20" rx="3.33333" fill="#29BF7F"/>
<path d="M6.43188 14.3018L9.29028 12.167L9.29126 12.166C9.472 12.0328 9.69077 11.9609 9.91528 11.9609C10.0837 11.9609 10.2485 12.0017 10.3967 12.0781L10.5393 12.166L10.5403 12.167L13.3733 14.291V5.91699H6.43188V14.3018ZM14.4319 14.3789C14.4279 14.5672 14.3727 14.7506 14.2727 14.9102C14.1725 15.0699 14.0306 15.1996 13.8625 15.2852C13.6946 15.3706 13.5066 15.4094 13.3186 15.3965C13.1307 15.3835 12.9498 15.3196 12.7952 15.2119L12.7903 15.208L9.91528 13.0518L7.01489 15.209C6.83451 15.3432 6.61571 15.4161 6.39087 15.417H6.38989C6.23004 15.4164 6.07195 15.38 5.92798 15.3105V15.3096C5.75111 15.2261 5.60148 15.0946 5.49634 14.9297C5.39095 14.7642 5.33388 14.5721 5.33325 14.376V5.87402C5.33404 5.7361 5.36258 5.59971 5.41626 5.47266C5.46995 5.3456 5.54837 5.23049 5.64673 5.13379C5.74509 5.0371 5.86156 4.96069 5.9895 4.90918C6.11675 4.85797 6.25275 4.83272 6.38989 4.83398V4.83301H13.3909C13.6663 4.83457 13.9304 4.94494 14.1252 5.13965C14.3201 5.33446 14.4303 5.59852 14.4319 5.87402V14.3789Z" fill="white" stroke="white" stroke-width="0.333333"/>
</svg>
