<svg width="48" height="48" viewBox="0 0 48 48" fill="none" xmlns="http://www.w3.org/2000/svg">
<path d="M36 0H12C5.37258 0 0 5.37258 0 12V36C0 42.6274 5.37258 48 12 48H36C42.6274 48 48 42.6274 48 36V12C48 5.37258 42.6274 0 36 0Z" fill="#EEA832"/>
<path d="M15 15.1045C15 13.4476 13.6569 12.1045 12 12.1045C10.3431 12.1045 9 13.4476 9 15.1045V33.1045C9 34.7613 10.3431 36.1045 12 36.1045C13.6569 36.1045 15 34.7613 15 33.1045V15.1045Z" fill="white"/>
<path d="M38.9922 15.1045C38.9922 13.4476 37.649 12.1045 35.9922 12.1045C34.3353 12.1045 32.9922 13.4476 32.9922 15.1045V33.1045C32.9922 34.7613 34.3353 36.1045 35.9922 36.1045C37.649 36.1045 38.9922 34.7613 38.9922 33.1045V15.1045Z" fill="white"/>
<path d="M24 12.1045C23.2044 12.1045 22.4413 12.4206 21.8787 12.9832C21.3161 13.5458 21 14.3088 21 15.1045V27.1045C21 27.9001 21.3161 28.6632 21.8787 29.2258C22.4413 29.7884 23.2044 30.1045 24 30.1045C24.7957 30.1045 25.5587 29.7884 26.1213 29.2258C26.6839 28.6632 27 27.9001 27 27.1045V15.1045C27 14.3088 26.6839 13.5458 26.1213 12.9832C25.5587 12.4206 24.7957 12.1045 24 12.1045Z" fill="white"/>
</svg>
