<?xml version="1.0" encoding="UTF-8"?><svg id="Layer_2" xmlns="http://www.w3.org/2000/svg" xmlns:xlink="http://www.w3.org/1999/xlink" viewBox="0 0 210.53 70.62"><defs><style>.cls-1{fill:#7e509e;}.cls-2{fill:#784a98;}.cls-3{fill:#623686;}.cls-4{fill:#6d408e;}.cls-5{fill:#603a80;}.cls-6{fill:#764896;}.cls-7{fill:#734593;}.cls-8{fill:#7a4d9a;}.cls-9{fill:#764898;}.cls-10{fill:#663989;}.cls-11{fill:#65378c;}.cls-12{fill:#57307d;}.cls-13{fill:#6b408e;}.cls-14{fill:#59327e;}.cls-15{fill:#704293;}.cls-16{fill:#693e8c;}.cls-17{fill:#774997;}.cls-18{fill:#714391;}.cls-19{fill:#552d7e;}.cls-20{clip-path:url(#clippath-4);}.cls-21{fill:#532c7c;}.cls-22{fill:#2b2c30;}.cls-23{fill:#784b99;}.cls-24{fill:#572b7e;}.cls-25{fill:#734794;}.cls-26{fill:#603384;}.cls-27{fill:#592c7e;}.cls-28{fill:#6c408e;}.cls-29{fill:#6d418f;}.cls-30{fill:#5f3680;}.cls-31{fill:#7d4f9c;}.cls-32{fill:#5d317f;}.cls-33{fill:#754996;}.cls-34{fill:#623887;}.cls-35{fill:#5b3282;}.cls-36{fill:#5c367f;}.cls-37{fill:#653888;}.cls-38{fill:#754895;}.cls-39{fill:#5a3181;}.cls-40{fill:#5a337e;}.cls-41{fill:#693b8f;}.cls-42{fill:#724593;}.cls-43{fill:#5c2e7f;}.cls-44{fill:#5b357e;}.cls-45{fill:#7f519f;}.cls-46{fill:#5e347f;}.cls-47{fill:#744795;}.cls-48{fill:#5b3181;}.cls-49{fill:#693b8e;}.cls-50{fill:#5d2f7f;}.cls-51{fill:#774998;}.cls-52{fill:#754797;}.cls-53{fill:#784a9a;}.cls-54{fill:#6f4290;}.cls-55{fill:#59337e;}.cls-56{fill:#794b99;}.cls-57{fill:#7b4e9b;}.cls-58{fill:#5a2e80;}.cls-59{fill:#7c4e9d;}.cls-60{fill:#633687;}.cls-61{fill:#764997;}.cls-62{fill:#5f3283;}.cls-63{fill:#693d8c;}.cls-64{fill:#5f3584;}.cls-65{fill:#5d377f;}.cls-66{fill:#5d3182;}.cls-67{fill:#5d3383;}.cls-68{fill:#774999;}.cls-69{fill:#5b2d7f;}.cls-70{fill:#6e428f;}.cls-71{fill:none;}.cls-72{fill:#784a97;}.cls-73{fill:#572e7f;}.cls-74{fill:#6d3f8e;}.cls-75{fill:#5e3483;}.cls-76{fill:#724495;}.cls-77{fill:#673c8a;}.cls-78{fill:#714394;}.cls-79{fill:#784b98;}.cls-80{fill:#7d4f9d;}.cls-81{fill:#6b3e8d;}.cls-82{fill:#6f4390;}.cls-83{fill:#593080;}.cls-84{clip-path:url(#clippath-1);}.cls-85{fill:#693c8b;}.cls-86{fill:#5f3780;}.cls-87{fill:#67398d;}.cls-88{fill:#5e337f;}.cls-89{fill:#734693;}.cls-90{fill:#734495;}.cls-91{fill:#734694;}.cls-92{fill:#714294;}.cls-93{fill:#592d7f;}.cls-94{fill:#552e7c;}.cls-95{fill:#714492;}.cls-96{fill:#5b347e;}.cls-97{fill:#7d4f9e;}.cls-98{fill:#794c99;}.cls-99{isolation:isolate;}.cls-100{fill:#7f52a0;}.cls-101{fill:#522a7c;}.cls-102{fill:#7f51a0;}.cls-103{clip-path:url(#clippath-5);}.cls-104{fill:#562d7e;}.cls-105{fill:#633987;}.cls-106{fill:#734596;}.cls-107{fill:#6d3f92;}.cls-108{fill:#643988;}.cls-109{fill:#6f4190;}.cls-110{fill:#532b7c;}.cls-111{fill:#67398e;}.cls-112{fill:#6f4193;}.cls-113{fill:#6c3e91;}.cls-114{fill:#6a3c8f;}.cls-115{fill:#562f7d;}.cls-116{fill:#704391;}.cls-117{fill:#683a8e;}.cls-118{clip-path:url(#clippath-3);}.cls-119{fill:#6f4092;}.cls-120{fill:#5e387f;}.cls-121{fill:#613485;}.cls-122{fill:#663b89;}.cls-123{fill:#5e3183;}.cls-124{fill:#653a89;}.cls-125{fill:#754795;}.cls-126{fill:#5d307f;}.cls-127{fill:#744696;}.cls-128{fill:#6b3d8c;}.cls-129{fill:#744694;}.cls-130{fill:#5c2f81;}.cls-131{fill:#794b9b;}.cls-132{fill:#6e4092;}.cls-133{fill:#6e408f;}.cls-134{fill:#6d3e91;}.cls-135{fill:#6e4290;}.cls-136{fill:#5e3484;}.cls-137{fill:#572f7f;}.cls-138{fill:#582c7e;}.cls-139{fill:#623586;}.cls-140{fill:#522b7c;}.cls-141{fill:#623786;}.cls-142{fill:#704492;}.cls-143{fill:#6b3d90;}.cls-144{fill:#542d7c;}.cls-145{fill:#8052a1;}.cls-146{fill:#7a4c99;}.cls-147{fill:#5a2d7e;}.cls-148{fill:#5b2f81;}.cls-149{fill:#7e509f;}.cls-150{fill:#643788;}.cls-151{fill:#774a97;}.cls-152{fill:#613786;}.cls-153{fill:#5f3980;}.cls-154{fill:#5f3880;}.cls-155{fill:#724492;}.cls-156{fill:#714592;}.cls-157{fill:#7b4d9b;}.cls-158{fill:#5e327f;}.cls-159{fill:#66388d;}.cls-160{fill:#693b8b;}.cls-161{clip-path:url(#clippath-2);}.cls-162{fill:#5c3382;}.cls-163{fill:#683d8b;}.cls-164{fill:#58317d;}.cls-165{fill:#6b3f8d;}.cls-166{fill:#6a3d8c;}.cls-167{fill:#8153a2;}.cls-168{fill:#7b4d9c;}.cls-169{fill:#683b8a;}.cls-170{fill:#5e3283;}.cls-171{fill:#603484;}.cls-172{fill:#673c8b;}.cls-173{fill:#7c4f9c;}.cls-174{fill:#7c4e9c;}.cls-175{fill:#794b9a;}.cls-176{fill:#6c3e8d;}.cls-177{fill:#582c7f;}.cls-178{clip-path:url(#clippath);}.cls-179{fill:#7a4c9b;}.cls-180{fill:#6a3f8d;}.cls-181{fill:#673a8a;}.cls-182{fill:#5e357f;}.cls-183{fill:#643787;}.cls-184{fill:#5e367f;}.cls-185{fill:#582f80;}.cls-186{fill:#643a88;}.cls-187{fill:#704291;}.cls-188{fill:#603685;}.cls-189{fill:#5c3082;}.cls-190{fill:#542c7d;}</style><clipPath id="clippath"><path class="cls-71" d="M22.29,25.22l-.39.5,6.23,4.61s.05.04.08.06c.03-.04.04-.08.06-.12,4.81-7.84,23.42-21.07,36.41-28.05-1.76-1.21-3.88-1.92-6.17-1.92h-6.66c-10.92,7.36-25.89,19.74-29.56,24.93h0s0-.01,0-.01Z"/></clipPath><clipPath id="clippath-1"><path class="cls-71" d="M21.46,26.19l.39-.5-5.94-4.4s-.42-.29-.46-.33c.03-.06.08-.13.11-.18C18.61,15.82,27.48,7.65,36.93.29H10.91c-6.02,0-10.91,4.89-10.91,10.91v31.4c7.74-3.45,17.03-10.13,21.46-16.4h0Z"/></clipPath><clipPath id="clippath-2"><path class="cls-71" d="M69.3,9.51c-11.77,4.58-29.82,18.83-34.29,25.18l-.38.49,6.21,4.6s.07.05.11.08c.02-.04.05-.08.07-.12,5.53-9.01,17.69-16.98,28.42-21.3v-7.23c0-.57-.04-1.13-.13-1.68h0s0,0,0,0Z"/></clipPath><clipPath id="clippath-3"><path class="cls-71" d="M34.17,35.64l.38-.49-6.21-4.6s-.05-.03-.08-.05c-.02.04-.05.08-.07.12-5.49,8.95-17.51,16.87-28.19,21.21v7.88c0,.36.02.71.05,1.05,11.77-4.65,29.66-18.8,34.12-25.11h0s0,0,0,0Z"/></clipPath><clipPath id="clippath-4"><path class="cls-71" d="M46.88,45.12l.39-.5-6.2-4.59s-.07-.05-.11-.08c-.03.04-.04.08-.07.13-4.84,7.89-23.7,21.28-36.71,28.22,1.86,1.46,4.19,2.33,6.73,2.33h5.56c10.97-7.27,26.65-20.17,30.41-25.5h0Z"/></clipPath><clipPath id="clippath-5"><path class="cls-71" d="M47.73,44.16l-.39.5,5.91,4.38s.42.29.46.33c-.03.06-.08.13-.11.18-3.13,5.1-12.37,13.57-22.1,21.07h27.01c6.02,0,10.91-4.89,10.91-10.91V27.65c-7.79,3.42-17.21,10.16-21.69,16.51h0,0Z"/></clipPath></defs><g id="GIRD"><g id="Layer_1-2"><path class="cls-22" d="M92.69,16.78c-1.15,0-2.26-.15-3.3-.45-.33-.09-.55-.2-.68-.35-.13-.16-.18-.38-.18-.67v-.19c0-.36.08-.58.24-.7.08-.07.22-.12.39-.12.1,0,.21.01.33.04,1.12.3,2.25.46,3.35.46.89,0,1.51-.09,1.86-.26.32-.17.48-.46.48-.88,0-.33-.09-.58-.28-.78-.2-.21-.58-.46-1.12-.72l-2.81-1.34c-.81-.4-1.39-.82-1.73-1.28-.35-.46-.52-1.09-.52-1.88,0-1.06.36-1.84,1.07-2.34.69-.5,1.76-.74,3.19-.74,1.12,0,2.11.15,2.94.45.31.1.51.22.63.35.12.14.18.36.18.67v.21c0,.36-.09.59-.27.7-.08.05-.18.08-.31.08-.11,0-.24-.02-.38-.06-.85-.29-1.8-.43-2.83-.43-.81,0-1.39.09-1.71.28-.3.17-.44.44-.44.84,0,.58.37,1.02,1.12,1.36l2.93,1.34c.87.4,1.49.84,1.84,1.33.37.47.56,1.12.56,1.93,0,1.09-.38,1.9-1.14,2.41-.73.5-1.88.74-3.4.74h0s0-.01,0-.01Z"/><path class="cls-22" d="M108.64,16.54c-.34,0-.57-.06-.72-.18-.14-.14-.2-.37-.2-.73v-6.87c0-2.76,1.39-4.17,4.12-4.17.13,0,.37.02.75.05.36.04.57.13.68.28.11.13.17.36.17.7v.23c0,.35-.06.57-.2.69-.09.08-.22.11-.4.11-.09,0-.19,0-.3-.03h-.33c-.1-.02-.18-.02-.23-.02h-.04c-.07-.02-.09-.02-.1-.02-.76,0-1.3.17-1.6.52-.29.33-.44.92-.44,1.75v6.78c0,.37-.06.59-.19.72-.13.13-.36.19-.72.19h-.26Z"/><path class="cls-22" d="M123.92,9.38c0,.54-.02.95-.07,1.25-.03.29-.1.48-.21.58s-.32.14-.62.14h-6.97v.69c0,1.05.28,1.8.83,2.26.57.45,1.49.67,2.77.67,1.06,0,2.11-.15,3.14-.44.28-.08.47-.07.58.02.11.09.16.28.16.58v.21c0,.24-.05.42-.14.53-.08.11-.27.21-.58.3-.94.29-1.99.44-3.16.44-1.85,0-3.2-.38-4.06-1.13-.85-.77-1.27-2-1.27-3.69v-2.15c0-3.24,1.62-4.87,4.87-4.87,1.54,0,2.71.39,3.51,1.18.82.78,1.22,1.93,1.22,3.44h0ZM116.06,9.13v.76h6.23v-.76c0-1.88-1.04-2.82-3.11-2.82s-3.11.94-3.11,2.82h0Z"/><path class="cls-22" d="M119.65,16.82c-1.89,0-3.31-.4-4.21-1.19-.89-.81-1.34-2.11-1.34-3.86v-2.15c0-3.38,1.71-5.09,5.09-5.09,1.59,0,2.82.42,3.66,1.24.74.71,1.17,1.72,1.27,2.99l.02-.03v.62c0,.56-.02.98-.07,1.28-.04.35-.13.58-.28.71-.15.13-.4.19-.77.19h-6.75v.47c0,.97.25,1.68.75,2.09.52.41,1.41.62,2.63.62,1.04,0,2.07-.14,3.08-.43.35-.1.61-.08.78.07.16.14.24.39.24.75v.21c0,.3-.06.53-.19.67-.1.14-.32.26-.68.37-.95.3-2.04.45-3.22.45ZM119.19,4.99c-3.13,0-4.65,1.52-4.65,4.65v2.15c0,1.62.4,2.81,1.2,3.53.81.71,2.13,1.07,3.91,1.07,1.14,0,2.18-.14,3.09-.43.37-.11.45-.2.46-.22.04-.05.1-.15.1-.4v-.21c0-.32-.07-.4-.09-.41,0,0-.08-.06-.37.02-1.04.3-2.12.45-3.2.45-1.32,0-2.3-.24-2.91-.72-.61-.51-.91-1.33-.91-2.43v-.91h7.19c.35,0,.46-.06.48-.08.02-.02.1-.11.13-.44.04-.24.06-.56.07-.96v-.26c0-1.44-.39-2.54-1.16-3.28-.75-.74-1.88-1.12-3.35-1.12ZM122.5,10.11h-6.67v-.98c0-2.01,1.12-3.04,3.33-3.04s3.33,1.05,3.33,3.04v.98ZM116.28,9.67h5.79v-.54c0-1.75-.95-2.6-2.9-2.6s-2.86.82-2.89,2.5v.64Z"/><path class="cls-22" d="M134.6,8.39v4.57c0,1.28-.38,2.21-1.15,2.79-.77.57-1.99.85-3.67.85-1.4,0-2.48-.28-3.23-.85-.74-.58-1.11-1.45-1.11-2.6s.38-2.04,1.13-2.56c.77-.54,1.96-.81,3.58-.81h2.72v-1.38c0-.74-.24-1.27-.74-1.59-.49-.34-1.25-.51-2.28-.51-.94,0-1.78.08-2.54.25-.28.06-.47.05-.58-.02-.11-.09-.16-.28-.16-.55v-.19c0-.26.05-.44.14-.53.09-.11.28-.19.56-.25.68-.16,1.51-.23,2.49-.23,3.23,0,4.84,1.21,4.84,3.62h0s0,0,0,0ZM132.86,12.89v-1.75h-2.7c-1.06,0-1.83.16-2.31.46-.46.31-.69.82-.69,1.55,0,1.31.86,1.96,2.58,1.96,1.12,0,1.92-.16,2.4-.48.48-.34.72-.91.72-1.73h0Z"/><path class="cls-22" d="M129.78,16.82c-1.44,0-2.58-.3-3.36-.9-.79-.63-1.2-1.56-1.2-2.78s.42-2.19,1.23-2.74c.8-.56,2.04-.85,3.7-.85h2.5v-1.16c0-.67-.21-1.13-.64-1.41-.46-.31-1.18-.47-2.16-.47-.92,0-1.76.08-2.49.25-.35.08-.59.06-.75-.06-.18-.15-.25-.39-.25-.73v-.19c0-.33.07-.55.21-.69.12-.13.34-.24.66-.31.68-.16,1.54-.24,2.54-.24,3.36,0,5.06,1.29,5.06,3.84v.53h0s0,4.03,0,4.03c0,1.34-.42,2.34-1.24,2.97-.81.6-2.08.9-3.8.9ZM130.15,10c-1.57,0-2.73.26-3.45.77-.68.47-1.04,1.29-1.04,2.38s.34,1.89,1.03,2.43c.7.53,1.75.8,3.09.8,1.62,0,2.81-.27,3.54-.81.7-.54,1.06-1.42,1.06-2.62v-4.78c-.1-2.14-1.61-3.18-4.62-3.18-.97,0-1.79.08-2.44.23-.3.07-.4.14-.44.18-.02.02-.09.1-.09.39v.19c0,.29.07.37.09.39h0s.1.04.39-.03c.76-.17,1.63-.26,2.58-.26,1.09,0,1.87.18,2.41.55.55.36.83.96.83,1.77v1.6h-2.94ZM129.75,15.32c-2.32,0-2.8-1.19-2.8-2.18,0-.8.27-1.38.79-1.73.52-.34,1.32-.5,2.43-.5h2.92v2.05c-.02.85-.29,1.46-.81,1.83-.53.35-1.35.52-2.53.52ZM130.17,11.35c-1.01,0-1.75.14-2.19.43-.4.26-.59.71-.59,1.36,0,1.17.77,1.74,2.36,1.74,1.07,0,1.84-.15,2.28-.45.41-.29.62-.8.62-1.55v-1.53s-2.48,0-2.48,0ZM132.86,12.89h0,0Z"/><path class="cls-22" d="M151.51,16.54c-.37,0-.59-.06-.72-.19s-.19-.36-.19-.72v-6.55c0-.9-.19-1.55-.55-1.93-.36-.38-1.01-.57-1.93-.57s-1.61.19-1.97.57c-.37.37-.55,1.02-.55,1.93v6.55c0,.37-.06.59-.19.72-.13.13-.36.19-.72.19h-.23c-.37,0-.59-.06-.72-.19-.13-.13-.19-.36-.19-.72v-6.55c0-.9-.19-1.55-.57-1.93-.37-.38-1.01-.57-1.93-.57s-1.57.19-1.95.57c-.36.38-.55,1.03-.55,1.93v6.55c0,.37-.06.59-.19.72s-.36.19-.72.19h-.25c-.34,0-.57-.06-.71-.18-.14-.14-.2-.37-.2-.73v-6.55c0-2.98,1.54-4.49,4.58-4.49,1.73,0,2.91.57,3.53,1.7.66-1.13,1.85-1.7,3.55-1.7,3.03,0,4.56,1.51,4.56,4.49v6.55c0,.37-.07.61-.22.73-.12.12-.34.18-.69.18h-.26Z"/><path class="cls-22" d="M164.12,9.38c0,.54-.02.95-.07,1.25-.03.29-.1.48-.21.58s-.32.14-.62.14h-6.97v.69c0,1.05.28,1.8.83,2.26.57.45,1.49.67,2.77.67,1.06,0,2.11-.15,3.14-.44.28-.08.47-.07.58.02.11.09.16.28.16.58v.21c0,.24-.05.42-.14.53-.08.11-.27.21-.58.3-.94.29-1.99.44-3.16.44-1.85,0-3.2-.38-4.06-1.13-.85-.77-1.27-2-1.27-3.69v-2.15c0-3.24,1.62-4.87,4.87-4.87,1.54,0,2.71.39,3.51,1.18.82.78,1.22,1.93,1.22,3.44h0ZM156.26,9.13v.76h6.23v-.76c0-1.88-1.04-2.82-3.11-2.82s-3.11.94-3.11,2.82h0Z"/><path class="cls-22" d="M159.85,16.82c-1.89,0-3.31-.4-4.21-1.19-.89-.81-1.34-2.11-1.34-3.86v-2.15c0-3.38,1.71-5.09,5.09-5.09,1.59,0,2.82.42,3.66,1.24.74.71,1.17,1.72,1.27,2.99l.02-.03v.62c0,.54-.02.97-.07,1.28-.04.35-.13.58-.28.71-.15.13-.4.19-.77.19h-6.75v.47c0,.97.25,1.67.75,2.09.52.41,1.41.62,2.63.62,1.04,0,2.07-.14,3.08-.43.35-.1.61-.08.78.06.16.14.24.39.24.75v.21c0,.3-.06.53-.19.67-.1.14-.32.26-.68.37-.95.3-2.04.45-3.22.45ZM159.39,4.99c-3.13,0-4.65,1.52-4.65,4.65v2.15c0,1.62.4,2.81,1.2,3.53.81.71,2.13,1.07,3.91,1.07,1.14,0,2.18-.14,3.09-.43.37-.11.45-.2.47-.22.04-.05.1-.15.1-.4v-.21c0-.32-.07-.4-.09-.41-.03-.03-.15-.04-.37.02-1.05.3-2.12.45-3.2.45-1.34,0-2.29-.23-2.91-.72-.61-.51-.91-1.33-.91-2.43v-.91h7.19c.35,0,.46-.06.48-.08.02-.02.1-.11.13-.44.04-.24.06-.57.07-.96v-.25c0-1.44-.39-2.54-1.16-3.28-.75-.74-1.88-1.12-3.35-1.12ZM162.7,10.11h-6.67v-.98c0-1.99,1.15-3.04,3.33-3.04s3.33,1.05,3.33,3.04v.98ZM156.48,9.67h5.79v-.54c0-1.75-.95-2.6-2.89-2.6s-2.85.81-2.89,2.48v.66Z"/><path class="cls-22" d="M176.02.96v10.82c0,3.22-1.68,4.82-5.05,4.82-1.71,0-2.98-.4-3.81-1.2-.83-.8-1.25-2.01-1.25-3.62v-2.15c0-3.24,1.59-4.87,4.77-4.87,1.78,0,2.98.56,3.6,1.68V.96c0-.31.05-.51.14-.6.09-.09.29-.14.6-.14h.25c.29,0,.48.05.58.14.11.09.16.29.16.6h0ZM167.64,9.61v2.15c0,1.15.24,1.98.74,2.47.49.49,1.35.74,2.58.74s2.07-.25,2.56-.74c.51-.49.76-1.31.76-2.47v-2.15c0-1.15-.25-1.98-.76-2.47-.49-.49-1.35-.74-2.56-.74s-2.07.25-2.58.74c-.49.49-.74,1.31-.74,2.47Z"/><path class="cls-22" d="M170.97,16.82c-1.76,0-3.09-.42-3.96-1.26-.87-.84-1.31-2.11-1.31-3.78v-2.15c0-3.38,1.68-5.09,4.99-5.09,1.53,0,2.66.41,3.38,1.21V.96c0-.38.06-.62.2-.76.14-.14.38-.2.76-.2h.25c.36,0,.59.06.73.2.15.13.23.38.23.76v10.82c0,3.34-1.78,5.04-5.27,5.04ZM170.69,4.98c-3.06,0-4.55,1.52-4.55,4.65v2.15c0,1.54.4,2.71,1.18,3.46.78.75,2.01,1.14,3.65,1.14,3.25,0,4.83-1.5,4.83-4.6V.85c-.01-.26-.08-.32-.08-.32-.02-.02-.1-.08-.43-.08h-.25c-.36,0-.44.07-.45.08,0,0-.07.08-.07.44v6.35l-.41-.75c-.58-1.06-1.69-1.57-3.41-1.57ZM170.96,15.18c-1.28,0-2.21-.27-2.74-.8-.54-.54-.8-1.4-.8-2.62v-2.15c0-1.23.26-2.09.8-2.62.55-.53,1.47-.8,2.74-.8s2.18.27,2.71.8c.55.53.83,1.41.83,2.62v2.15c0,1.21-.28,2.09-.83,2.63-.54.54-1.43.8-2.71.8ZM170.96,6.62c-1.15,0-1.97.23-2.43.68-.44.44-.67,1.22-.67,2.31v2.15c0,1.09.23,1.87.67,2.31.45.45,1.26.67,2.43.67s1.95-.22,2.4-.67c.46-.45.7-1.22.7-2.31v-2.15c0-1.09-.23-1.86-.69-2.31-.45-.45-1.26-.68-2.41-.68Z"/><path class="cls-22" d="M103.85,16.78c-2.69,0-4.05-1.43-4.05-4.26v-5.68h-1.14c-.32,0-.52-.05-.63-.17-.11-.11-.17-.31-.17-.63v-.12c0-.31.05-.52.16-.64.13-.13.33-.21.62-.25l1.18-.16.24-2.24c.02-.29.09-.49.22-.6.12-.12.33-.18.64-.18h.16c.29,0,.49.06.61.19.13.11.19.31.19.61v2.2h3.56c.35,0,.57.06.7.19.13.13.19.35.19.7v.21c0,.35-.06.57-.19.7-.13.13-.35.19-.7.19h-3.56v5.68c0,.8.16,1.39.47,1.75.31.34.81.51,1.48.51.84,0,1.51-.08,2-.22.13-.03.23-.04.32-.04.16,0,.28.04.37.13.15.12.22.34.22.69v.21c0,.27-.07.49-.21.65-.11.15-.32.27-.64.35-.58.16-1.27.24-2.05.24h0Z"/><g class="cls-178"><polygon class="cls-167" points="21.9 20.99 24.82 18.38 35.57 30.39 21.9 30.39 21.9 20.99"/><polygon class="cls-167" points="24.82 18.38 25.29 17.95 36.33 30.28 36.21 30.39 35.57 30.39 24.82 18.38"/><rect class="cls-145" x="30.73" y="15.63" width=".64" height="16.55" transform="translate(-8.03 26.8) rotate(-41.83)"/><rect class="cls-102" x="31.2" y="15.21" width=".64" height="16.55" transform="translate(-7.63 27.01) rotate(-41.83)"/><rect class="cls-45" x="31.68" y="14.78" width=".64" height="16.55" transform="translate(-7.22 27.22) rotate(-41.83)"/><rect class="cls-1" x="32.16" y="14.36" width=".64" height="16.55" transform="translate(-6.81 27.42) rotate(-41.83)"/><rect class="cls-80" x="32.63" y="13.93" width=".64" height="16.55" transform="translate(-6.41 27.63) rotate(-41.83)"/><rect class="cls-173" x="33.11" y="13.5" width=".64" height="16.55" transform="translate(-6 27.84) rotate(-41.83)"/><rect class="cls-57" x="33.58" y="13.08" width=".64" height="16.55" transform="translate(-5.6 28.05) rotate(-41.83)"/><rect class="cls-157" x="34.06" y="12.65" width=".64" height="16.55" transform="translate(-5.19 28.26) rotate(-41.83)"/><rect class="cls-8" x="34.53" y="12.23" width=".64" height="16.55" transform="translate(-4.79 28.47) rotate(-41.83)"/><rect class="cls-98" x="35.01" y="11.8" width=".64" height="16.55" transform="translate(-4.38 28.68) rotate(-41.83)"/><rect class="cls-23" x="35.49" y="11.37" width=".64" height="16.55" transform="translate(-3.98 28.89) rotate(-41.83)"/><rect class="cls-79" x="35.96" y="10.95" width=".64" height="16.55" transform="translate(-3.57 29.1) rotate(-41.83)"/><rect class="cls-151" x="36.44" y="10.52" width=".64" height="16.55" transform="translate(-3.17 29.3) rotate(-41.83)"/><rect class="cls-61" x="36.91" y="10.1" width=".64" height="16.55" transform="translate(-2.76 29.51) rotate(-41.83)"/><rect class="cls-33" x="37.39" y="9.67" width=".64" height="16.55" transform="translate(-2.36 29.72) rotate(-41.83)"/><rect class="cls-38" x="37.87" y="9.25" width=".64" height="16.55" transform="translate(-1.95 29.93) rotate(-41.83)"/><rect class="cls-47" x="38.34" y="8.82" width=".64" height="16.55" transform="translate(-1.55 30.14) rotate(-41.83)"/><rect class="cls-25" x="38.82" y="8.39" width=".64" height="16.55" transform="translate(-1.14 30.35) rotate(-41.83)"/><rect class="cls-89" x="39.29" y="7.97" width=".64" height="16.55" transform="translate(-.74 30.56) rotate(-41.83)"/><rect class="cls-42" x="39.77" y="7.54" width=".64" height="16.55" transform="translate(-.33 30.77) rotate(-41.83)"/><rect class="cls-156" x="40.24" y="7.12" width=".64" height="16.55" transform="translate(.07 30.97) rotate(-41.83)"/><rect class="cls-142" x="40.72" y="6.69" width=".64" height="16.55" transform="translate(.48 31.18) rotate(-41.83)"/><rect class="cls-116" x="41.2" y="6.26" width=".64" height="16.55" transform="translate(.89 31.39) rotate(-41.83)"/><rect class="cls-82" x="41.67" y="5.84" width=".64" height="16.55" transform="translate(1.29 31.6) rotate(-41.83)"/><rect class="cls-135" x="42.15" y="5.41" width=".64" height="16.55" transform="translate(1.7 31.81) rotate(-41.83)"/><rect class="cls-70" x="42.62" y="4.99" width=".64" height="16.55" transform="translate(2.1 32.02) rotate(-41.83)"/><rect class="cls-29" x="43.1" y="4.56" width=".64" height="16.55" transform="translate(2.51 32.23) rotate(-41.83)"/><rect class="cls-28" x="43.58" y="4.13" width=".64" height="16.55" transform="translate(2.91 32.44) rotate(-41.83)"/><rect class="cls-13" x="44.05" y="3.71" width=".64" height="16.55" transform="translate(3.32 32.64) rotate(-41.83)"/><rect class="cls-165" x="44.53" y="3.28" width=".64" height="16.55" transform="translate(3.72 32.85) rotate(-41.83)"/><rect class="cls-180" x="45" y="2.86" width=".64" height="16.55" transform="translate(4.13 33.06) rotate(-41.83)"/><rect class="cls-16" x="45.48" y="2.43" width=".64" height="16.55" transform="translate(4.53 33.27) rotate(-41.83)"/><rect class="cls-63" x="45.95" y="2.01" width=".64" height="16.55" transform="translate(4.94 33.48) rotate(-41.83)"/><rect class="cls-163" x="46.43" y="1.58" width=".64" height="16.55" transform="translate(5.34 33.69) rotate(-41.83)"/><rect class="cls-172" x="46.91" y="1.15" width=".64" height="16.55" transform="translate(5.75 33.9) rotate(-41.83)"/><rect class="cls-77" x="47.38" y=".73" width=".64" height="16.55" transform="translate(6.15 34.11) rotate(-41.83)"/><rect class="cls-122" x="47.86" y=".3" width=".64" height="16.55" transform="translate(6.56 34.32) rotate(-41.83)"/><rect class="cls-124" x="48.33" y="-.12" width=".64" height="16.55" transform="translate(6.96 34.52) rotate(-41.83)"/><rect class="cls-186" x="48.81" y="-.55" width=".64" height="16.55" transform="translate(7.37 34.73) rotate(-41.83)"/><rect class="cls-108" x="49.29" y="-.98" width=".64" height="16.55" transform="translate(7.78 34.94) rotate(-41.83)"/><rect class="cls-105" x="49.76" y="-1.4" width=".64" height="16.55" transform="translate(8.18 35.15) rotate(-41.83)"/><polygon class="cls-34" points="44.8 .49 45.02 .3 45.48 .3 56.31 12.4 55.84 12.82 44.8 .49"/><polygon class="cls-141" points="46.34 .3 56.79 11.97 56.31 12.4 45.48 .3 46.34 .3"/><polygon class="cls-152" points="47.2 .3 57.26 11.55 56.79 11.97 46.34 .3 47.2 .3"/><polygon class="cls-188" points="48.06 .3 57.74 11.12 57.26 11.55 47.2 .3 48.06 .3"/><polygon class="cls-188" points="48.91 .3 58.22 10.69 57.74 11.12 48.06 .3 48.91 .3"/><polygon class="cls-64" points="49.77 .3 58.69 10.27 58.22 10.69 48.91 .3 49.77 .3"/><polygon class="cls-136" points="50.63 .3 59.17 9.84 58.69 10.27 49.77 .3 50.63 .3"/><polygon class="cls-75" points="51.48 .3 59.64 9.42 59.17 9.84 50.63 .3 51.48 .3"/><polygon class="cls-67" points="52.34 .3 60.12 8.99 59.64 9.42 51.48 .3 52.34 .3"/><polygon class="cls-162" points="53.2 .3 60.59 8.56 60.12 8.99 52.34 .3 53.2 .3"/><polygon class="cls-35" points="54.05 .3 61.07 8.14 60.59 8.56 53.2 .3 54.05 .3"/><polygon class="cls-48" points="54.91 .3 61.55 7.71 61.07 8.14 54.05 .3 54.91 .3"/><polygon class="cls-39" points="55.77 .3 62.02 7.29 61.55 7.71 54.91 .3 55.77 .3"/><polygon class="cls-83" points="56.63 .3 62.5 6.86 62.02 7.29 55.77 .3 56.63 .3"/><polygon class="cls-83" points="57.48 .3 62.97 6.44 62.5 6.86 56.63 .3 57.48 .3"/><polygon class="cls-185" points="58.34 .3 63.45 6.01 62.97 6.44 57.48 .3 58.34 .3"/><polygon class="cls-137" points="59.2 .3 63.93 5.58 63.45 6.01 58.34 .3 59.2 .3"/><polygon class="cls-73" points="60.05 .3 64.4 5.16 63.93 5.58 59.2 .3 60.05 .3"/><polygon class="cls-104" points="60.91 .3 64.69 4.52 64.69 4.9 64.4 5.16 60.05 .3 60.91 .3"/><polygon class="cls-19" points="61.77 .3 64.69 3.56 64.69 4.52 60.91 .3 61.77 .3"/><polygon class="cls-190" points="62.62 .3 64.69 2.61 64.69 3.56 61.77 .3 62.62 .3"/><polygon class="cls-190" points="63.48 .3 64.69 1.65 64.69 2.61 62.62 .3 63.48 .3"/><polygon class="cls-110" points="64.34 .3 64.69 .69 64.69 1.65 63.48 .3 64.34 .3"/><polygon class="cls-140" points="64.69 .69 64.34 .3 64.69 .3 64.69 .69"/></g><g class="cls-84"><polygon class="cls-5" points="0 40.09 2.87 42.6 0 42.6 0 40.09"/><polygon class="cls-5" points="0 39.17 3.93 42.6 2.87 42.6 0 40.09 0 39.17"/><polygon class="cls-153" points="0 38.24 4.99 42.6 3.93 42.6 0 39.17 0 38.24"/><polygon class="cls-154" points="0 37.32 6.05 42.6 4.99 42.6 0 38.24 0 37.32"/><polygon class="cls-154" points="0 36.4 7.11 42.6 6.05 42.6 0 37.32 0 36.4"/><polygon class="cls-86" points="0 35.47 8.16 42.6 7.11 42.6 0 36.4 0 35.47"/><polygon class="cls-30" points="0 34.55 9.22 42.6 8.16 42.6 0 35.47 0 34.55"/><polygon class="cls-184" points="0 33.63 10.28 42.6 9.22 42.6 0 34.55 0 33.63"/><polygon class="cls-182" points="0 32.7 11.06 42.36 10.84 42.6 10.28 42.6 0 33.63 0 32.7"/><polygon class="cls-46" points="0 31.78 11.51 41.83 11.06 42.36 0 32.7 0 31.78"/><polygon class="cls-88" points="0 30.85 11.97 41.31 11.51 41.83 0 31.78 0 30.85"/><polygon class="cls-88" points="0 29.93 12.43 40.78 11.97 41.31 0 30.85 0 29.93"/><polygon class="cls-158" points="0 29.01 12.89 40.26 12.43 40.78 0 29.93 0 29.01"/><polygon class="cls-32" points="0 28.08 13.35 39.73 12.89 40.26 0 29.01 0 28.08"/><polygon class="cls-32" points="0 27.16 13.8 39.21 13.35 39.73 0 28.08 0 27.16"/><polygon class="cls-126" points="0 26.23 14.26 38.69 13.8 39.21 0 27.16 0 26.23"/><polygon class="cls-50" points="0 25.31 14.72 38.16 14.26 38.69 0 26.23 0 25.31"/><polygon class="cls-50" points="0 24.39 15.18 37.64 14.72 38.16 0 25.31 0 24.39"/><polygon class="cls-50" points="0 22.38 16.17 36.5 15.18 37.64 0 24.39 0 22.38"/><polygon class="cls-43" points="0 20.37 17.17 35.36 16.17 36.5 0 22.38 0 20.37"/><polygon class="cls-69" points="0 18.36 18.16 34.22 17.17 35.36 0 20.37 0 18.36"/><polygon class="cls-147" points="0 16.35 19.16 33.08 18.16 34.22 0 18.36 0 16.35"/><polygon class="cls-27" points="0 14.35 20.15 31.94 19.16 33.08 0 16.35 0 14.35"/><polygon class="cls-138" points="0 12.34 21.14 30.8 20.15 31.94 0 14.35 0 12.34"/><polygon class="cls-24" points="0 10.33 22.14 29.66 21.14 30.8 0 12.34 0 10.33"/><polygon class="cls-24" points="0 10.08 22.26 29.52 22.14 29.66 0 10.33 0 10.08"/><polygon class="cls-138" points="0 9.83 22.39 29.38 22.26 29.52 0 10.08 0 9.83"/><polygon class="cls-177" points="0 9.57 22.52 29.23 22.39 29.38 0 9.83 0 9.57"/><polygon class="cls-93" points="0 9.32 22.64 29.09 22.52 29.23 0 9.57 0 9.32"/><polygon class="cls-58" points="0 9.07 22.77 28.94 22.64 29.09 0 9.32 0 9.07"/><polygon class="cls-58" points="0 8.81 22.89 28.8 22.77 28.94 0 9.07 0 8.81"/><polygon class="cls-148" points="0 8.56 23.02 28.66 22.89 28.8 0 8.81 0 8.56"/><polygon class="cls-130" points="0 8.31 23.14 28.51 23.02 28.66 0 8.56 0 8.31"/><polygon class="cls-189" points="0 8.05 23.27 28.37 23.14 28.51 0 8.31 0 8.05"/><polygon class="cls-66" points="0 7.8 23.39 28.23 23.27 28.37 0 8.05 0 7.8"/><polygon class="cls-123" points="0 7.55 23.52 28.08 23.39 28.23 0 7.8 0 7.55"/><polygon class="cls-170" points="0 7.29 23.65 27.94 23.52 28.08 0 7.55 0 7.29"/><polygon class="cls-62" points="0 7.04 23.77 27.79 23.65 27.94 0 7.29 0 7.04"/><polygon class="cls-26" points="0 6.79 23.9 27.65 23.77 27.79 0 7.04 0 6.79"/><polygon class="cls-171" points="0 6.53 24.02 27.51 23.9 27.65 0 6.79 0 6.53"/><polygon class="cls-121" points="0 6.28 24.15 27.36 24.02 27.51 0 6.53 0 6.28"/><polygon class="cls-139" points="0 6.03 24.27 27.22 24.15 27.36 0 6.28 0 6.03"/><polygon class="cls-3" points="0 5.77 24.4 27.08 24.27 27.22 0 6.03 0 5.77"/><polygon class="cls-60" points="0 5.52 24.52 26.93 24.4 27.08 0 5.77 0 5.52"/><polygon class="cls-183" points="0 5.27 24.65 26.79 24.52 26.93 0 5.52 0 5.27"/><polygon class="cls-150" points="0 5.01 24.78 26.64 24.65 26.79 0 5.27 0 5.01"/><polygon class="cls-37" points="0 4.76 24.9 26.5 24.78 26.64 0 5.01 0 4.76"/><polygon class="cls-10" points="0 4.51 25.03 26.36 24.9 26.5 0 4.76 0 4.51"/><polygon class="cls-10" points="0 4.25 25.15 26.21 25.03 26.36 0 4.51 0 4.25"/><polygon class="cls-181" points="0 4 25.28 26.07 25.15 26.21 0 4.25 0 4"/><polygon class="cls-169" points="0 3.75 25.4 25.93 25.28 26.07 0 4 0 3.75"/><polygon class="cls-160" points="0 3.49 25.53 25.78 25.4 25.93 0 3.75 0 3.49"/><polygon class="cls-85" points="0 3.24 25.65 25.64 25.53 25.78 0 3.49 0 3.24"/><polygon class="cls-166" points="0 2.99 25.78 25.49 25.65 25.64 0 3.24 0 2.99"/><polygon class="cls-128" points="0 2.73 25.9 25.35 25.78 25.49 0 2.99 0 2.73"/><polygon class="cls-81" points="0 2.48 26.03 25.21 25.9 25.35 0 2.73 0 2.48"/><polygon class="cls-176" points="0 2.22 26.16 25.06 26.03 25.21 0 2.48 0 2.22"/><polygon class="cls-74" points="0 2.14 .08 2.04 26.28 24.92 26.16 25.06 0 2.22 0 2.14"/><rect class="cls-4" x="13.15" y="-3.98" width=".19" height="34.78" transform="translate(-5.57 14.57) rotate(-48.87)"/><rect class="cls-133" x="13.27" y="-4.12" width=".19" height="34.78" transform="translate(-5.42 14.61) rotate(-48.87)"/><rect class="cls-109" x="13.4" y="-4.27" width=".19" height="34.78" transform="translate(-5.27 14.66) rotate(-48.87)"/><rect class="cls-54" x="13.53" y="-4.41" width=".19" height="34.78" transform="translate(-5.11 14.7) rotate(-48.87)"/><rect class="cls-187" x="13.65" y="-4.56" width=".19" height="34.78" transform="translate(-4.96 14.75) rotate(-48.87)"/><rect class="cls-18" x="13.78" y="-4.7" width=".19" height="34.78" transform="translate(-4.81 14.79) rotate(-48.87)"/><rect class="cls-95" x="13.9" y="-4.84" width=".19" height="34.78" transform="translate(-4.66 14.84) rotate(-48.87)"/><rect class="cls-155" x="14.03" y="-4.99" width=".19" height="34.78" transform="translate(-4.51 14.88) rotate(-48.87)"/><rect class="cls-7" x="14.15" y="-5.13" width=".19" height="34.78" transform="translate(-4.36 14.93) rotate(-48.87)"/><rect class="cls-91" x="14.28" y="-5.27" width=".19" height="34.78" transform="translate(-4.21 14.97) rotate(-48.87)"/><rect class="cls-129" x="14.4" y="-5.42" width=".19" height="34.78" transform="translate(-4.06 15.02) rotate(-48.87)"/><rect class="cls-125" x="14.53" y="-5.56" width=".19" height="34.78" transform="translate(-3.9 15.07) rotate(-48.87)"/><polygon class="cls-38" points="1.59 .32 1.62 .29 1.84 .29 27.91 23.05 27.79 23.19 1.59 .32"/><polygon class="cls-6" points="2.13 .29 28.04 22.91 27.91 23.05 1.84 .29 2.13 .29"/><polygon class="cls-17" points="2.42 .29 28.16 22.76 28.04 22.91 2.13 .29 2.42 .29"/><polygon class="cls-72" points="2.71 .29 28.29 22.62 28.16 22.76 2.42 .29 2.71 .29"/><polygon class="cls-2" points="3 .29 28.42 22.48 28.29 22.62 2.71 .29 3 .29"/><polygon class="cls-56" points="3.29 .29 28.54 22.33 28.42 22.48 3 .29 3.29 .29"/><polygon class="cls-146" points="3.58 .29 28.67 22.19 28.54 22.33 3.29 .29 3.58 .29"/><polygon class="cls-8" points="3.87 .29 28.79 22.04 28.67 22.19 3.58 .29 3.87 .29"/><polygon class="cls-157" points="4.16 .29 28.92 21.9 28.79 22.04 3.87 .29 4.16 .29"/><polygon class="cls-174" points="4.45 .29 29.04 21.76 28.92 21.9 4.16 .29 4.45 .29"/><polygon class="cls-31" points="4.74 .29 29.17 21.61 29.04 21.76 4.45 .29 4.74 .29"/><polygon class="cls-80" points="5.03 .29 29.29 21.47 29.17 21.61 4.74 .29 5.03 .29"/><polygon class="cls-1" points="5.32 .29 29.42 21.33 29.29 21.47 5.03 .29 5.32 .29"/><polygon class="cls-45" points="5.61 .29 29.54 21.18 29.42 21.33 5.32 .29 5.61 .29"/><polygon class="cls-102" points="5.9 .29 29.67 21.04 29.54 21.18 5.61 .29 5.9 .29"/><polygon class="cls-145" points="6.19 .29 29.8 20.89 29.67 21.04 5.9 .29 6.19 .29"/><polygon class="cls-167" points="6.48 .29 29.92 20.75 29.8 20.89 6.19 .29 6.48 .29"/><polygon class="cls-167" points="7.19 .29 30.23 20.4 29.92 20.75 6.48 .29 7.19 .29"/><polygon class="cls-145" points="7.9 .29 30.54 20.05 30.23 20.4 7.19 .29 7.9 .29"/><polygon class="cls-100" points="8.61 .29 30.84 19.7 30.54 20.05 7.9 .29 8.61 .29"/><polygon class="cls-102" points="9.32 .29 31.15 19.34 30.84 19.7 8.61 .29 9.32 .29"/><polygon class="cls-149" points="10.03 .29 31.46 18.99 31.15 19.34 9.32 .29 10.03 .29"/><polygon class="cls-97" points="10.74 .29 31.76 18.64 31.46 18.99 10.03 .29 10.74 .29"/><polygon class="cls-97" points="11.45 .29 32.07 18.29 31.76 18.64 10.74 .29 11.45 .29"/><polygon class="cls-59" points="12.17 .29 32.38 17.94 32.07 18.29 11.45 .29 12.17 .29"/><polygon class="cls-168" points="12.88 .29 32.69 17.58 32.38 17.94 12.17 .29 12.88 .29"/><polygon class="cls-168" points="13.59 .29 32.99 17.23 32.69 17.58 12.88 .29 13.59 .29"/><polygon class="cls-179" points="14.3 .29 33.3 16.88 32.99 17.23 13.59 .29 14.3 .29"/><polygon class="cls-131" points="15.01 .29 33.61 16.53 33.3 16.88 14.3 .29 15.01 .29"/><polygon class="cls-175" points="15.72 .29 33.91 16.18 33.61 16.53 15.01 .29 15.72 .29"/><polygon class="cls-53" points="16.43 .29 34.22 15.83 33.91 16.18 15.72 .29 16.43 .29"/><polygon class="cls-68" points="17.14 .29 34.53 15.47 34.22 15.83 16.43 .29 17.14 .29"/><polygon class="cls-51" points="17.85 .29 34.84 15.12 34.53 15.47 17.14 .29 17.85 .29"/><polygon class="cls-9" points="18.56 .29 35.14 14.77 34.84 15.12 17.85 .29 18.56 .29"/><polygon class="cls-52" points="19.27 .29 35.45 14.42 35.14 14.77 18.56 .29 19.27 .29"/><polygon class="cls-52" points="19.98 .29 35.76 14.07 35.45 14.42 19.27 .29 19.98 .29"/><polygon class="cls-127" points="20.69 .29 36.06 13.71 35.76 14.07 19.98 .29 20.69 .29"/><polygon class="cls-106" points="21.4 .29 36.37 13.36 36.06 13.71 20.69 .29 21.4 .29"/><polygon class="cls-90" points="22.11 .29 36.68 13.01 36.37 13.36 21.4 .29 22.11 .29"/><polygon class="cls-76" points="22.82 .29 36.93 12.61 36.93 12.72 36.68 13.01 22.11 .29 22.82 .29"/><polygon class="cls-78" points="23.53 .29 36.93 11.99 36.93 12.61 22.82 .29 23.53 .29"/><polygon class="cls-92" points="24.24 .29 36.93 11.37 36.93 11.99 23.53 .29 24.24 .29"/><polygon class="cls-15" points="24.95 .29 36.93 10.75 36.93 11.37 24.24 .29 24.95 .29"/><polygon class="cls-112" points="25.66 .29 36.93 10.13 36.93 10.75 24.95 .29 25.66 .29"/><polygon class="cls-119" points="26.37 .29 36.93 9.51 36.93 10.13 25.66 .29 26.37 .29"/><polygon class="cls-132" points="27.08 .29 36.93 8.89 36.93 9.51 26.37 .29 27.08 .29"/><polygon class="cls-107" points="27.79 .29 36.93 8.27 36.93 8.89 27.08 .29 27.79 .29"/><polygon class="cls-134" points="28.5 .29 36.93 7.65 36.93 8.27 27.79 .29 28.5 .29"/><polygon class="cls-113" points="29.21 .29 36.93 7.03 36.93 7.65 28.5 .29 29.21 .29"/><polygon class="cls-143" points="29.92 .29 36.93 6.41 36.93 7.03 29.21 .29 29.92 .29"/><polygon class="cls-143" points="30.63 .29 36.93 5.79 36.93 6.41 29.92 .29 30.63 .29"/><polygon class="cls-114" points="31.34 .29 36.93 5.17 36.93 5.79 30.63 .29 31.34 .29"/><polygon class="cls-41" points="32.05 .29 36.93 4.55 36.93 5.17 31.34 .29 32.05 .29"/><polygon class="cls-49" points="32.76 .29 36.93 3.93 36.93 4.55 32.05 .29 32.76 .29"/><polygon class="cls-117" points="33.47 .29 36.93 3.31 36.93 3.93 32.76 .29 33.47 .29"/><polygon class="cls-111" points="34.18 .29 36.93 2.69 36.93 3.31 33.47 .29 34.18 .29"/><polygon class="cls-87" points="34.89 .29 36.93 2.07 36.93 2.69 34.18 .29 34.89 .29"/><polygon class="cls-159" points="35.6 .29 36.93 1.45 36.93 2.07 34.89 .29 35.6 .29"/><polygon class="cls-11" points="36.31 .29 36.93 .83 36.93 1.45 35.6 .29 36.31 .29"/><polygon class="cls-11" points="36.93 .83 36.31 .29 36.93 .29 36.93 .83"/></g><g class="cls-161"><rect class="cls-167" x="34.62" y="9.51" width=".52" height="30.34"/><rect class="cls-145" x="35.14" y="9.51" width=".52" height="30.34"/><rect class="cls-102" x="35.66" y="9.51" width=".52" height="30.34"/><rect class="cls-45" x="36.18" y="9.51" width=".52" height="30.34"/><rect class="cls-1" x="36.7" y="9.51" width=".52" height="30.34"/><rect class="cls-80" x="37.22" y="9.51" width=".52" height="30.34"/><rect class="cls-173" x="37.74" y="9.51" width=".52" height="30.34"/><rect class="cls-57" x="38.26" y="9.51" width=".52" height="30.34"/><rect class="cls-157" x="38.77" y="9.51" width=".52" height="30.34"/><rect class="cls-8" x="39.29" y="9.51" width=".52" height="30.34"/><rect class="cls-98" x="39.81" y="9.51" width=".52" height="30.34"/><rect class="cls-23" x="40.33" y="9.51" width=".52" height="30.34"/><rect class="cls-79" x="40.85" y="9.51" width=".52" height="30.34"/><rect class="cls-151" x="41.37" y="9.51" width=".52" height="30.34"/><rect class="cls-61" x="41.89" y="9.51" width=".52" height="30.34"/><rect class="cls-33" x="42.41" y="9.51" width=".52" height="30.34"/><rect class="cls-38" x="42.93" y="9.51" width=".52" height="30.34"/><rect class="cls-47" x="43.45" y="9.51" width=".52" height="30.34"/><rect class="cls-25" x="43.97" y="9.51" width=".52" height="30.34"/><rect class="cls-89" x="44.49" y="9.51" width=".52" height="30.34"/><rect class="cls-42" x="45.01" y="9.51" width=".52" height="30.34"/><rect class="cls-156" x="45.53" y="9.51" width=".52" height="30.34"/><rect class="cls-142" x="46.05" y="9.51" width=".52" height="30.34"/><rect class="cls-116" x="46.57" y="9.51" width=".52" height="30.34"/><rect class="cls-82" x="47.09" y="9.51" width=".52" height="30.34"/><rect class="cls-135" x="47.61" y="9.51" width=".52" height="30.34"/><rect class="cls-70" x="48.13" y="9.51" width=".52" height="30.34"/><rect class="cls-29" x="48.65" y="9.51" width=".52" height="30.34"/><rect class="cls-28" x="49.17" y="9.51" width=".52" height="30.34"/><rect class="cls-13" x="49.69" y="9.51" width=".52" height="30.34"/><rect class="cls-165" x="50.21" y="9.51" width=".52" height="30.34"/><rect class="cls-180" x="50.72" y="9.51" width=".52" height="30.34"/><rect class="cls-16" x="51.24" y="9.51" width=".52" height="30.34"/><rect class="cls-63" x="51.76" y="9.51" width=".52" height="30.34"/><rect class="cls-163" x="52.28" y="9.51" width=".52" height="30.34"/><rect class="cls-172" x="52.8" y="9.51" width=".52" height="30.34"/><rect class="cls-77" x="53.32" y="9.51" width=".52" height="30.34"/><rect class="cls-122" x="53.84" y="9.51" width=".52" height="30.34"/><rect class="cls-124" x="54.36" y="9.51" width=".52" height="30.34"/><rect class="cls-186" x="54.88" y="9.51" width=".52" height="30.34"/><rect class="cls-108" x="55.4" y="9.51" width=".52" height="30.34"/><rect class="cls-105" x="55.92" y="9.51" width=".52" height="30.34"/><rect class="cls-34" x="56.44" y="9.51" width=".52" height="30.34"/><rect class="cls-141" x="56.96" y="9.51" width=".52" height="30.34"/><rect class="cls-152" x="57.48" y="9.51" width=".52" height="30.34"/><rect class="cls-188" x="58" y="9.51" width=".52" height="30.34"/><rect class="cls-188" x="58.52" y="9.51" width=".52" height="30.34"/><rect class="cls-64" x="59.04" y="9.51" width=".52" height="30.34"/><rect class="cls-136" x="59.56" y="9.51" width=".52" height="30.34"/><rect class="cls-75" x="60.08" y="9.51" width=".52" height="30.34"/><rect class="cls-67" x="60.6" y="9.51" width=".52" height="30.34"/><rect class="cls-162" x="61.12" y="9.51" width=".52" height="30.34"/><rect class="cls-35" x="61.64" y="9.51" width=".52" height="30.34"/><rect class="cls-48" x="62.15" y="9.51" width=".52" height="30.34"/><rect class="cls-39" x="62.67" y="9.51" width=".52" height="30.34"/><rect class="cls-83" x="63.19" y="9.51" width=".52" height="30.34"/><rect class="cls-83" x="63.71" y="9.51" width=".52" height="30.34"/><rect class="cls-185" x="64.23" y="9.51" width=".52" height="30.34"/><rect class="cls-137" x="64.75" y="9.51" width=".52" height="30.34"/><rect class="cls-73" x="65.27" y="9.51" width=".52" height="30.34"/><rect class="cls-104" x="65.79" y="9.51" width=".52" height="30.34"/><rect class="cls-19" x="66.31" y="9.51" width=".52" height="30.34"/><rect class="cls-190" x="66.83" y="9.51" width=".52" height="30.34"/><rect class="cls-190" x="67.35" y="9.51" width=".52" height="30.34"/><rect class="cls-110" x="67.87" y="9.51" width=".52" height="30.34"/><rect class="cls-140" x="68.39" y="9.51" width=".52" height="30.34"/><rect class="cls-101" x="68.91" y="9.51" width=".52" height="30.34"/></g><g class="cls-118"><polygon class="cls-5" points="0 49.21 .64 48.68 10.66 60.59 10.46 60.76 0 60.76 0 49.21"/><rect class="cls-5" x="5.36" y="46.06" width="2.47" height="15.56" transform="translate(-33.1 16.88) rotate(-40.06)"/><rect class="cls-153" x="7.25" y="44.47" width="2.47" height="15.56" transform="translate(-31.64 17.72) rotate(-40.06)"/><rect class="cls-120" x="9.14" y="42.88" width="2.47" height="15.56" transform="translate(-30.17 18.56) rotate(-40.06)"/><rect class="cls-65" x="11.03" y="41.29" width="2.47" height="15.56" transform="translate(-28.71 19.41) rotate(-40.06)"/><rect class="cls-65" x="12.92" y="39.7" width="2.47" height="15.56" transform="translate(-27.24 20.25) rotate(-40.06)"/><rect class="cls-36" x="14.8" y="38.11" width="2.47" height="15.56" transform="translate(-25.78 21.09) rotate(-40.06)"/><rect class="cls-44" x="16.69" y="36.53" width="2.47" height="15.56" transform="translate(-24.31 21.93) rotate(-40.06)"/><rect class="cls-96" x="18.58" y="34.94" width="2.47" height="15.56" transform="translate(-22.84 22.78) rotate(-40.06)"/><rect class="cls-40" x="20.47" y="33.35" width="2.47" height="15.56" transform="translate(-21.38 23.62) rotate(-40.06)"/><rect class="cls-55" x="22.36" y="31.76" width="2.47" height="15.56" transform="translate(-19.91 24.46) rotate(-40.06)"/><rect class="cls-14" x="24.25" y="30.17" width="2.47" height="15.56" transform="translate(-18.45 25.31) rotate(-40.06)"/><polygon class="cls-164" points="21.42 31.2 22.25 30.5 24.05 30.5 33.32 41.53 31.43 43.12 21.42 31.2"/><polygon class="cls-12" points="27.28 30.5 34.55 39.15 34.55 40.49 33.32 41.53 24.05 30.5 27.28 30.5"/><polygon class="cls-12" points="30.5 30.5 34.55 35.32 34.55 39.15 27.28 30.5 30.5 30.5"/><polygon class="cls-115" points="33.73 30.5 34.55 31.48 34.55 35.32 30.5 30.5 33.73 30.5"/><polygon class="cls-94" points="34.55 31.48 33.73 30.5 34.55 30.5 34.55 31.48"/></g><g class="cls-20"><rect class="cls-5" x="4.17" y="39.95" width="2.05" height="30.67"/><rect class="cls-153" x="6.23" y="39.95" width="2.05" height="30.67"/><rect class="cls-120" x="8.28" y="39.95" width="2.05" height="30.67"/><rect class="cls-65" x="10.33" y="39.95" width="2.05" height="30.67"/><rect class="cls-65" x="12.38" y="39.95" width="2.05" height="30.67"/><rect class="cls-36" x="14.43" y="39.95" width="2.05" height="30.67"/><rect class="cls-44" x="16.49" y="39.95" width="2.05" height="30.67"/><rect class="cls-96" x="18.54" y="39.95" width="2.05" height="30.67"/><rect class="cls-40" x="20.59" y="39.95" width="2.05" height="30.67"/><rect class="cls-55" x="22.64" y="39.95" width="2.05" height="30.67"/><rect class="cls-14" x="24.69" y="39.95" width="2.05" height="30.67"/><rect class="cls-164" x="26.75" y="39.95" width="2.05" height="30.67"/><rect class="cls-12" x="28.8" y="39.95" width="2.05" height="30.67"/><rect class="cls-12" x="30.85" y="39.95" width="2.05" height="30.67"/><rect class="cls-115" x="32.9" y="39.95" width="2.05" height="30.67"/><rect class="cls-94" x="34.95" y="39.95" width="2.05" height="30.67"/><rect class="cls-144" x="37.01" y="39.95" width="2.05" height="30.67"/><rect class="cls-144" x="39.06" y="39.95" width="2.05" height="30.67"/><rect class="cls-21" x="41.11" y="39.95" width="2.05" height="30.67"/><rect class="cls-140" x="43.16" y="39.95" width="2.05" height="30.67"/><rect class="cls-101" x="45.21" y="39.95" width="2.05" height="30.67"/></g><g class="cls-103"><polygon class="cls-153" points="31.5 70.07 32.24 70.61 31.5 70.61 31.5 70.07"/><polygon class="cls-154" points="31.5 69.04 33.63 70.61 32.24 70.61 31.5 70.07 31.5 69.04"/><polygon class="cls-154" points="31.5 68.02 35.03 70.61 33.63 70.61 31.5 69.04 31.5 68.02"/><polygon class="cls-86" points="31.5 66.99 36.42 70.61 35.03 70.61 31.5 68.02 31.5 66.99"/><polygon class="cls-30" points="31.5 65.97 37.81 70.61 36.42 70.61 31.5 66.99 31.5 65.97"/><polygon class="cls-184" points="31.5 64.95 39.21 70.61 37.81 70.61 31.5 65.97 31.5 64.95"/><polygon class="cls-182" points="31.5 63.92 40.6 70.61 39.21 70.61 31.5 64.95 31.5 63.92"/><polygon class="cls-46" points="31.5 62.9 41.99 70.61 40.6 70.61 31.5 63.92 31.5 62.9"/><polygon class="cls-88" points="31.5 62.6 31.85 62.13 43.39 70.61 41.99 70.61 31.5 62.9 31.5 62.6"/><polygon class="cls-88" points="31.85 62.13 32.34 61.46 44.78 70.61 43.39 70.61 31.85 62.13"/><polygon class="cls-158" points="32.34 61.46 32.83 60.8 46.17 70.61 44.78 70.61 32.34 61.46"/><polygon class="cls-32" points="32.83 60.8 33.32 60.13 47.57 70.61 46.17 70.61 32.83 60.8"/><polygon class="cls-32" points="33.32 60.13 33.81 59.47 48.96 70.61 47.57 70.61 33.32 60.13"/><polygon class="cls-126" points="33.81 59.47 34.3 58.8 50.35 70.61 48.96 70.61 33.81 59.47"/><polygon class="cls-50" points="34.3 58.8 34.79 58.14 51.75 70.61 50.35 70.61 34.3 58.8"/><polygon class="cls-50" points="34.79 58.14 35.27 57.47 53.14 70.61 51.75 70.61 34.79 58.14"/><polygon class="cls-50" points="35.27 57.47 36.34 56.03 56.17 70.61 53.14 70.61 35.27 57.47"/><polygon class="cls-43" points="36.34 56.03 37.4 54.58 59.2 70.61 56.17 70.61 36.34 56.03"/><polygon class="cls-69" points="37.4 54.58 38.46 53.14 62.23 70.61 59.2 70.61 37.4 54.58"/><polygon class="cls-147" points="38.46 53.14 39.52 51.69 65.25 70.61 62.23 70.61 38.46 53.14"/><polygon class="cls-27" points="39.52 51.69 40.59 50.25 68.28 70.61 65.25 70.61 39.52 51.69"/><polygon class="cls-138" points="40.59 50.25 41.65 48.8 69.36 69.18 68.31 70.61 68.28 70.61 40.59 50.25"/><polygon class="cls-24" points="41.65 48.8 42.71 47.35 69.42 67 69.42 69.09 69.36 69.18 41.65 48.8"/><polygon class="cls-24" points="42.71 47.35 42.85 47.17 69.42 66.71 69.42 67 42.71 47.35"/><polygon class="cls-138" points="42.85 47.17 42.98 46.99 69.42 66.43 69.42 66.71 42.85 47.17"/><polygon class="cls-177" points="42.98 46.99 43.12 46.81 69.42 66.15 69.42 66.43 42.98 46.99"/><polygon class="cls-93" points="43.12 46.81 43.25 46.63 69.42 65.87 69.42 66.15 43.12 46.81"/><polygon class="cls-58" points="43.25 46.63 43.38 46.44 69.42 65.59 69.42 65.87 43.25 46.63"/><polygon class="cls-58" points="43.38 46.44 43.52 46.26 69.42 65.31 69.42 65.59 43.38 46.44"/><polygon class="cls-148" points="43.52 46.26 43.65 46.08 69.42 65.03 69.42 65.31 43.52 46.26"/><polygon class="cls-130" points="43.65 46.08 43.79 45.9 69.42 64.75 69.42 65.03 43.65 46.08"/><polygon class="cls-189" points="43.79 45.9 43.92 45.71 69.42 64.47 69.42 64.75 43.79 45.9"/><polygon class="cls-66" points="43.92 45.71 44.05 45.53 69.42 64.19 69.42 64.47 43.92 45.71"/><polygon class="cls-123" points="44.05 45.53 44.19 45.35 69.42 63.91 69.42 64.19 44.05 45.53"/><polygon class="cls-170" points="44.19 45.35 44.32 45.17 69.42 63.62 69.42 63.91 44.19 45.35"/><polygon class="cls-62" points="44.32 45.17 44.46 44.98 69.42 63.34 69.42 63.62 44.32 45.17"/><polygon class="cls-26" points="44.46 44.98 44.59 44.8 69.42 63.06 69.42 63.34 44.46 44.98"/><polygon class="cls-171" points="44.59 44.8 44.72 44.62 69.42 62.78 69.42 63.06 44.59 44.8"/><polygon class="cls-121" points="44.72 44.62 44.86 44.44 69.42 62.5 69.42 62.78 44.72 44.62"/><polygon class="cls-139" points="44.86 44.44 44.99 44.25 69.42 62.22 69.42 62.5 44.86 44.44"/><polygon class="cls-3" points="44.99 44.25 45.13 44.07 69.42 61.94 69.42 62.22 44.99 44.25"/><polygon class="cls-60" points="45.13 44.07 45.26 43.89 69.42 61.66 69.42 61.94 45.13 44.07"/><polygon class="cls-183" points="45.26 43.89 45.39 43.71 69.42 61.38 69.42 61.66 45.26 43.89"/><polygon class="cls-150" points="45.39 43.71 45.53 43.53 69.42 61.1 69.42 61.38 45.39 43.71"/><polygon class="cls-37" points="45.53 43.53 45.66 43.34 69.42 60.81 69.42 61.1 45.53 43.53"/><polygon class="cls-10" points="45.66 43.34 45.8 43.16 69.42 60.53 69.42 60.81 45.66 43.34"/><polygon class="cls-10" points="45.8 43.16 45.93 42.98 69.42 60.25 69.42 60.53 45.8 43.16"/><polygon class="cls-181" points="45.93 42.98 46.07 42.8 69.42 59.97 69.42 60.25 45.93 42.98"/><polygon class="cls-169" points="46.07 42.8 46.2 42.61 69.42 59.69 69.42 59.97 46.07 42.8"/><polygon class="cls-160" points="46.2 42.61 46.33 42.43 69.42 59.41 69.42 59.69 46.2 42.61"/><polygon class="cls-85" points="46.33 42.43 46.47 42.25 69.42 59.13 69.42 59.41 46.33 42.43"/><polygon class="cls-166" points="46.47 42.25 46.6 42.07 69.42 58.85 69.42 59.13 46.47 42.25"/><polygon class="cls-128" points="46.6 42.07 46.74 41.88 69.42 58.57 69.42 58.85 46.6 42.07"/><polygon class="cls-81" points="46.74 41.88 46.87 41.7 69.42 58.29 69.42 58.57 46.74 41.88"/><polygon class="cls-176" points="46.87 41.7 47 41.52 69.42 58.01 69.42 58.29 46.87 41.7"/><polygon class="cls-74" points="47 41.52 47.14 41.34 69.42 57.72 69.42 58.01 47 41.52"/><polygon class="cls-4" points="47.14 41.34 47.27 41.15 69.42 57.44 69.42 57.72 47.14 41.34"/><polygon class="cls-133" points="47.27 41.15 47.41 40.97 69.42 57.16 69.42 57.44 47.27 41.15"/><polygon class="cls-109" points="47.41 40.97 47.54 40.79 69.42 56.88 69.42 57.16 47.41 40.97"/><polygon class="cls-54" points="47.54 40.79 47.67 40.61 69.42 56.6 69.42 56.88 47.54 40.79"/><polygon class="cls-187" points="47.67 40.61 47.81 40.43 69.42 56.32 69.42 56.6 47.67 40.61"/><polygon class="cls-18" points="47.81 40.43 47.94 40.24 69.42 56.04 69.42 56.32 47.81 40.43"/><polygon class="cls-95" points="47.94 40.24 48.08 40.06 69.42 55.76 69.42 56.04 47.94 40.24"/><polygon class="cls-155" points="48.08 40.06 48.21 39.88 69.42 55.48 69.42 55.76 48.08 40.06"/><polygon class="cls-7" points="48.21 39.88 48.34 39.7 69.42 55.2 69.42 55.48 48.21 39.88"/><polygon class="cls-91" points="48.34 39.7 48.48 39.51 69.42 54.91 69.42 55.2 48.34 39.7"/><polygon class="cls-129" points="48.48 39.51 48.61 39.33 69.42 54.63 69.42 54.91 48.48 39.51"/><polygon class="cls-125" points="48.61 39.33 48.75 39.15 69.42 54.35 69.42 54.63 48.61 39.33"/><polygon class="cls-38" points="48.75 39.15 48.88 38.97 69.42 54.07 69.42 54.35 48.75 39.15"/><polygon class="cls-6" points="48.88 38.97 49.02 38.78 69.42 53.79 69.42 54.07 48.88 38.97"/><polygon class="cls-17" points="49.02 38.78 49.15 38.6 69.42 53.51 69.42 53.79 49.02 38.78"/><polygon class="cls-72" points="49.15 38.6 49.28 38.42 69.42 53.23 69.42 53.51 49.15 38.6"/><polygon class="cls-2" points="49.28 38.42 49.42 38.24 69.42 52.95 69.42 53.23 49.28 38.42"/><polygon class="cls-56" points="49.42 38.24 49.55 38.05 69.42 52.67 69.42 52.95 49.42 38.24"/><polygon class="cls-146" points="49.55 38.05 49.69 37.87 69.42 52.39 69.42 52.67 49.55 38.05"/><polygon class="cls-8" points="49.69 37.87 49.82 37.69 69.42 52.1 69.42 52.39 49.69 37.87"/><polygon class="cls-157" points="49.82 37.69 49.95 37.51 69.42 51.82 69.42 52.1 49.82 37.69"/><polygon class="cls-174" points="49.95 37.51 50.09 37.32 69.42 51.54 69.42 51.82 49.95 37.51"/><polygon class="cls-31" points="50.09 37.32 50.22 37.14 69.42 51.26 69.42 51.54 50.09 37.32"/><polygon class="cls-80" points="50.22 37.14 50.36 36.96 69.42 50.98 69.42 51.26 50.22 37.14"/><polygon class="cls-1" points="50.36 36.96 50.49 36.78 69.42 50.7 69.42 50.98 50.36 36.96"/><polygon class="cls-45" points="50.49 36.78 50.62 36.6 69.42 50.42 69.42 50.7 50.49 36.78"/><polygon class="cls-102" points="50.62 36.6 50.76 36.41 69.42 50.14 69.42 50.42 50.62 36.6"/><polygon class="cls-145" points="50.76 36.41 50.89 36.23 69.42 49.86 69.42 50.14 50.76 36.41"/><polygon class="cls-167" points="50.89 36.23 51.03 36.05 69.42 49.58 69.42 49.86 50.89 36.23"/><polygon class="cls-167" points="51.03 36.05 51.35 35.6 69.42 48.89 69.42 49.58 51.03 36.05"/><polygon class="cls-145" points="51.35 35.6 51.68 35.16 69.42 48.2 69.42 48.89 51.35 35.6"/><polygon class="cls-100" points="51.68 35.16 52.01 34.71 69.42 47.51 69.42 48.2 51.68 35.16"/><polygon class="cls-102" points="52.01 34.71 52.34 34.26 69.42 46.83 69.42 47.51 52.01 34.71"/><polygon class="cls-149" points="52.34 34.26 52.67 33.82 69.42 46.14 69.42 46.83 52.34 34.26"/><polygon class="cls-97" points="52.67 33.82 53 33.37 69.42 45.45 69.42 46.14 52.67 33.82"/><polygon class="cls-97" points="53 33.37 53.32 32.92 69.42 44.76 69.42 45.45 53 33.37"/><polygon class="cls-59" points="53.32 32.92 53.65 32.48 69.42 44.08 69.42 44.76 53.32 32.92"/><polygon class="cls-168" points="53.65 32.48 53.98 32.03 69.42 43.39 69.42 44.08 53.65 32.48"/><polygon class="cls-168" points="53.98 32.03 54.31 31.59 69.42 42.7 69.42 43.39 53.98 32.03"/><polygon class="cls-179" points="54.31 31.59 54.64 31.14 69.42 42.01 69.42 42.7 54.31 31.59"/><polygon class="cls-131" points="54.64 31.14 54.96 30.69 69.42 41.32 69.42 42.01 54.64 31.14"/><polygon class="cls-175" points="54.96 30.69 55.29 30.25 69.42 40.64 69.42 41.32 54.96 30.69"/><polygon class="cls-53" points="55.29 30.25 55.62 29.8 69.42 39.95 69.42 40.64 55.29 30.25"/><polygon class="cls-68" points="55.62 29.8 55.95 29.35 69.42 39.26 69.42 39.95 55.62 29.8"/><polygon class="cls-51" points="55.95 29.35 56.28 28.91 69.42 38.57 69.42 39.26 55.95 29.35"/><polygon class="cls-9" points="56.28 28.91 56.61 28.46 69.42 37.89 69.42 38.57 56.28 28.91"/><polygon class="cls-52" points="56.61 28.46 56.93 28.01 69.42 37.2 69.42 37.89 56.61 28.46"/><polygon class="cls-52" points="56.93 28.01 57.2 27.65 57.37 27.65 69.42 36.51 69.42 37.2 56.93 28.01"/><polygon class="cls-127" points="58.31 27.65 69.42 35.82 69.42 36.51 57.37 27.65 58.31 27.65"/><polygon class="cls-106" points="59.24 27.65 69.42 35.14 69.42 35.82 58.31 27.65 59.24 27.65"/><polygon class="cls-90" points="60.18 27.65 69.42 34.45 69.42 35.14 59.24 27.65 60.18 27.65"/><polygon class="cls-76" points="61.11 27.65 69.42 33.76 69.42 34.45 60.18 27.65 61.11 27.65"/><polygon class="cls-78" points="62.05 27.65 69.42 33.07 69.42 33.76 61.11 27.65 62.05 27.65"/><polygon class="cls-92" points="62.98 27.65 69.42 32.39 69.42 33.07 62.05 27.65 62.98 27.65"/><polygon class="cls-15" points="63.92 27.65 69.42 31.7 69.42 32.39 62.98 27.65 63.92 27.65"/><polygon class="cls-112" points="64.85 27.65 69.42 31.01 69.42 31.7 63.92 27.65 64.85 27.65"/><polygon class="cls-119" points="65.79 27.65 69.42 30.32 69.42 31.01 64.85 27.65 65.79 27.65"/><polygon class="cls-132" points="66.72 27.65 69.42 29.64 69.42 30.32 65.79 27.65 66.72 27.65"/><polygon class="cls-107" points="67.66 27.65 69.42 28.95 69.42 29.64 66.72 27.65 67.66 27.65"/><polygon class="cls-134" points="68.59 27.65 69.42 28.26 69.42 28.95 67.66 27.65 68.59 27.65"/><polygon class="cls-113" points="69.42 28.26 68.59 27.65 69.42 27.65 69.42 28.26"/></g><g class="cls-99"><g class="cls-99"><path class="cls-22" d="M85.13,56.26v-.46c0-1.1.19-1.8.57-2.1.38-.3,1.07-.32,2.08-.05,2.44.61,4.75.91,6.95.91,1.83,0,3.12-.18,3.86-.55.75-.37,1.12-1.01,1.12-1.92,0-.67-.24-1.25-.73-1.74-.49-.49-1.46-1.16-2.92-2.01l-5.85-3.43c-3.08-1.8-4.62-4.36-4.62-7.68,0-2.59.86-4.52,2.58-5.78,1.72-1.26,4.41-1.9,8.07-1.9,2.16,0,4.07.24,5.71.73,1.1.3,1.82.66,2.17,1.05.35.4.53,1.11.53,2.15v.46c0,1.1-.18,1.79-.55,2.08-.37.29-1.08.28-2.15-.02-1.49-.49-3.4-.73-5.71-.73-1.62,0-2.74.15-3.38.46-.64.31-.96.87-.96,1.69,0,.55.17,1.01.53,1.39.35.38,1.01.86,1.99,1.44l6.08,3.56c2.01,1.19,3.43,2.4,4.27,3.63s1.26,2.78,1.26,4.64c0,2.77-.91,4.83-2.74,6.17-1.83,1.34-4.71,2.01-8.64,2.01-2.65,0-4.95-.29-6.9-.87-1.1-.3-1.81-.65-2.12-1.03-.32-.38-.48-1.09-.48-2.12Z"/></g><g class="cls-99"><path class="cls-22" d="M116.35,30.03h7.5c6.73,0,10.1,3.32,10.1,9.96s-3.37,9.92-10.1,9.92h-6.86v7.17c0,1.04-.18,1.74-.53,2.1-.35.37-1.06.55-2.12.55h-.82c-1.07,0-1.77-.18-2.12-.55s-.53-1.07-.53-2.1v-21.57c0-1.92.43-3.31,1.3-4.18.87-.87,2.26-1.3,4.18-1.3ZM123.84,35.74h-5.48c-.91,0-1.37.46-1.37,1.37v7.08h6.86c1.43,0,2.45-.33,3.06-.98.61-.65.91-1.73.91-3.22s-.31-2.54-.94-3.22c-.62-.69-1.64-1.03-3.04-1.03Z"/></g><g class="cls-99"><path class="cls-22" d="M155.28,38.26l5.12,18.92c.27,1.04.28,1.72.02,2.06-.26.34-.92.5-1.99.5h-.87c-1.07,0-1.82-.17-2.26-.5-.44-.33-.8-1.02-1.07-2.06l-1.19-4.66h-12.06l-1.19,4.66c-.27,1.04-.63,1.72-1.07,2.06-.44.34-1.2.5-2.26.5h-.87c-1.07,0-1.73-.17-1.99-.5-.26-.33-.25-1.02.02-2.06l5.12-18.92c.49-1.77.9-3.09,1.23-3.98.3-.85.78-1.69,1.42-2.51,1.1-1.46,2.97-2.19,5.62-2.19s4.52.73,5.62,2.19c.64.82,1.11,1.66,1.42,2.51.33.88.75,2.21,1.23,3.98ZM144.63,38.53l-2.24,8.5h9.19l-2.19-8.5c-.43-1.49-.75-2.44-.96-2.83-.25-.43-.72-.64-1.42-.64s-1.17.21-1.42.64c-.21.4-.53,1.34-.96,2.83Z"/><path class="cls-22" d="M170.22,41.5v7.31c0,1.98.53,3.44,1.6,4.36,1.07.93,2.83,1.39,5.3,1.39,1.64,0,3.29-.23,4.94-.69,1-.27,1.68-.27,2.03.02s.53.97.53,2.03v.37c0,1.01-.16,1.71-.48,2.13-.32.41-1,.8-2.03,1.17-1.31.46-3.06.69-5.26.69-4.39,0-7.64-.93-9.76-2.79-2.12-1.86-3.18-4.75-3.18-8.68v-7.31c0-3.84,1.1-6.79,3.31-8.84s5.43-3.08,9.67-3.08c2.04,0,3.76.26,5.16.78,1.07.4,1.76.8,2.08,1.21.32.41.48,1.1.48,2.08v.37c0,1.07-.19,1.75-.57,2.06-.38.3-1.07.3-2.08,0-1.8-.52-3.49-.78-5.07-.78-2.35,0-4.04.5-5.1,1.51-1.05,1.01-1.58,2.58-1.58,4.71Z"/><path class="cls-22" d="M206.06,47.4h-10.65v5.26c0,.91.46,1.37,1.37,1.37h11.11c1.04,0,1.74.18,2.1.53.37.35.55,1.06.55,2.12v.41c0,1.04-.18,1.74-.55,2.1-.37.37-1.07.55-2.1.55h-13.12c-1.92,0-3.31-.43-4.18-1.3-.87-.87-1.3-2.26-1.3-4.18v-18.74c0-1.92.43-3.31,1.3-4.18.87-.87,2.26-1.3,4.18-1.3h13.12c1.04,0,1.74.18,2.1.55.37.37.55,1.07.55,2.1v.41c0,1.07-.18,1.77-.55,2.12-.37.35-1.07.53-2.1.53h-11.11c-.91,0-1.37.46-1.37,1.37v4.57h10.65c1.04,0,1.74.18,2.1.53.37.35.55,1.06.55,2.12v.41c0,1.04-.18,1.74-.55,2.1-.37.37-1.07.55-2.1.55Z"/></g></g></g></g></svg>