<svg width="12" height="13" viewBox="0 0 12 13" fill="none" xmlns="http://www.w3.org/2000/svg">
<path d="M8 11V10C8 9.46957 7.78929 8.96086 7.41421 8.58579C7.03914 8.21071 6.53043 8 6 8H3C2.46957 8 1.96086 8.21071 1.58579 8.58579C1.21071 8.96086 1 9.46957 1 10V11" stroke="white" stroke-linecap="round" stroke-linejoin="round"/>
<path d="M4.5 6C5.60457 6 6.5 5.10457 6.5 4C6.5 2.89543 5.60457 2 4.5 2C3.39543 2 2.5 2.89543 2.5 4C2.5 5.10457 3.39543 6 4.5 6Z" stroke="white" stroke-linecap="round" stroke-linejoin="round"/>
<path d="M9.5 4.5V7.5" stroke="white" stroke-linecap="round" stroke-linejoin="round"/>
<path d="M11 6H8" stroke="white" stroke-linecap="round" stroke-linejoin="round"/>
</svg>
