<svg width="16" height="16" viewBox="0 0 16 16" fill="none" xmlns="http://www.w3.org/2000/svg">
<path d="M1.33301 4.66667C1.33301 3.73325 1.33301 3.26654 1.51466 2.91002C1.67445 2.59641 1.92942 2.34144 2.24302 2.18166C2.59954 2 3.06625 2 3.99967 2C4.9331 2 5.39981 2 5.75633 2.18166C6.06993 2.34144 6.3249 2.59641 6.48468 2.91002C6.66634 3.26654 6.66634 3.73325 6.66634 4.66667V11.3333C6.66634 12.2668 6.66634 12.7335 6.48468 13.09C6.3249 13.4036 6.06993 13.6586 5.75633 13.8183C5.39981 14 4.9331 14 3.99967 14C3.06625 14 2.59954 14 2.24302 13.8183C1.92942 13.6586 1.67445 13.4036 1.51466 13.09C1.33301 12.7335 1.33301 12.2668 1.33301 11.3333V4.66667Z" stroke="#141B34" stroke-linecap="round" stroke-linejoin="round"/>
<path d="M4 11.333H4.00599" stroke="#141B34" stroke-linecap="round" stroke-linejoin="round"/>
<path d="M1.33301 4.66699H6.66634" stroke="#141B34" stroke-linecap="round" stroke-linejoin="round"/>
<path d="M7.63209 5.51228C7.39549 4.62559 7.27719 4.18224 7.35867 3.79733C7.43033 3.45875 7.6069 3.15164 7.86307 2.92003C8.15429 2.65672 8.59579 2.53793 9.4788 2.30034C10.3618 2.06275 10.8033 1.94395 11.1866 2.02577C11.5238 2.09773 11.8296 2.27504 12.0603 2.53227C12.3225 2.82471 12.4408 3.26806 12.6774 4.15476L14.3673 10.4877C14.6039 11.3744 14.7222 11.8178 14.6407 12.2027C14.569 12.5413 14.3924 12.8484 14.1363 13.08C13.8451 13.3433 13.4036 13.4621 12.5205 13.6997C11.6375 13.9373 11.196 14.0561 10.8127 13.9742C10.4755 13.9023 10.1697 13.725 9.93907 13.4677C9.67685 13.1753 9.55855 12.7319 9.32195 11.8452L7.63209 5.51228Z" stroke="#141B34" stroke-linecap="round" stroke-linejoin="round"/>
<path d="M11.8535 11.1299L11.8593 11.1283" stroke="#141B34" stroke-linecap="round" stroke-linejoin="round"/>
<path d="M8 5.33346L12.3334 4" stroke="#141B34" stroke-linecap="round" stroke-linejoin="round"/>
</svg>
