<svg width="25" height="24" viewBox="0 0 25 24" fill="none" xmlns="http://www.w3.org/2000/svg">
<path fill-rule="evenodd" clip-rule="evenodd" d="M20.5308 11.9998C20.5308 12.2385 20.436 12.4674 20.2672 12.6362C20.0985 12.805 19.8695 12.8998 19.6308 12.8998H8.00285L11.2668 16.1638C11.4258 16.3344 11.5124 16.5601 11.5083 16.7932C11.5041 17.0264 11.4097 17.2488 11.2448 17.4137C11.0799 17.5786 10.8574 17.6731 10.6243 17.6772C10.3911 17.6813 10.1655 17.5948 9.99485 17.4358L5.19485 12.6358C5.02631 12.467 4.93164 12.2383 4.93164 11.9998C4.93164 11.7613 5.02631 11.5325 5.19485 11.3638L9.99485 6.56379C10.0772 6.47537 10.1766 6.40445 10.287 6.35526C10.3974 6.30607 10.5166 6.27962 10.6374 6.27748C10.7583 6.27535 10.8783 6.29758 10.9904 6.34285C11.1024 6.38811 11.2042 6.45548 11.2897 6.54095C11.3752 6.62641 11.4425 6.72821 11.4878 6.84028C11.5331 6.95234 11.5553 7.07238 11.5532 7.19322C11.551 7.31406 11.5246 7.43324 11.4754 7.54364C11.4262 7.65404 11.3553 7.7534 11.2668 7.83579L8.00285 11.0998H19.6308C19.8695 11.0998 20.0985 11.1946 20.2672 11.3634C20.436 11.5322 20.5308 11.7611 20.5308 11.9998Z" fill="black"/>
</svg>
