<svg width="8" height="8" viewBox="0 0 8 8" fill="none" xmlns="http://www.w3.org/2000/svg">
<path d="M6.185 3.52002C6.28 3.61335 6.33333 3.74069 6.33333 3.87335V4.12669C6.33159 4.25925 6.2784 4.38594 6.185 4.48002L2.72266 7.90135C2.65923 7.96466 2.57328 8.00021 2.48366 8.00021C2.39405 8.00021 2.30809 7.96466 2.24466 7.90135L1.76633 7.42802C1.73512 7.3977 1.71032 7.36143 1.69338 7.32135C1.67644 7.28127 1.66771 7.2382 1.66771 7.19469C1.66771 7.15118 1.67644 7.10811 1.69338 7.06803C1.71032 7.02795 1.73512 6.99168 1.76633 6.96135L4.76333 4.00002L1.76666 1.03902C1.73522 1.00815 1.71024 0.971318 1.69319 0.930683C1.67614 0.890048 1.66736 0.846422 1.66736 0.802354C1.66736 0.758287 1.67614 0.714661 1.69319 0.674026C1.71024 0.633391 1.73522 0.596561 1.76666 0.565688L2.24466 0.0983544C2.30814 0.0351312 2.39408 -0.000366211 2.48366 -0.000366211C2.57325 -0.000366211 2.65919 0.0351312 2.72266 0.0983544L6.185 3.52002Z" fill="#BDBFC7"/>
</svg>
