<svg width="25" height="24" viewBox="0 0 25 24" fill="none" xmlns="http://www.w3.org/2000/svg">
<path fill-rule="evenodd" clip-rule="evenodd" d="M5.11035 11.9998C5.11035 11.7611 5.20517 11.5322 5.37396 11.3634C5.54274 11.1946 5.77166 11.0998 6.01035 11.0998H17.6384L14.3744 7.83579C14.2859 7.7534 14.215 7.65404 14.1658 7.54364C14.1166 7.43324 14.0902 7.31406 14.088 7.19322C14.0859 7.07238 14.1081 6.95234 14.1534 6.84028C14.1987 6.72821 14.266 6.62641 14.3515 6.54095C14.437 6.45548 14.5388 6.38811 14.6508 6.34285C14.7629 6.29758 14.8829 6.27535 15.0038 6.27748C15.1246 6.27962 15.2438 6.30607 15.3542 6.35526C15.4646 6.40445 15.564 6.47537 15.6464 6.56379L20.4464 11.3638C20.6149 11.5325 20.7096 11.7613 20.7096 11.9998C20.7096 12.2383 20.6149 12.467 20.4464 12.6358L15.6464 17.4358C15.4757 17.5948 15.2501 17.6813 15.0169 17.6772C14.7838 17.6731 14.5613 17.5786 14.3964 17.4137C14.2315 17.2488 14.1371 17.0264 14.1329 16.7932C14.1288 16.5601 14.2154 16.3344 14.3744 16.1638L17.6384 12.8998H6.01035C5.77166 12.8998 5.54274 12.805 5.37396 12.6362C5.20517 12.4674 5.11035 12.2385 5.11035 11.9998Z" fill="black"/>
</svg>
