<svg width="20" height="20" viewBox="0 0 20 20" fill="none" xmlns="http://www.w3.org/2000/svg">
<path d="M8.61755 10.5584C8.58212 10.4209 8.50092 10.2996 8.38732 10.2144C8.27372 10.1292 8.13448 10.0852 7.99255 10.0897H3.2363C3.09437 10.0852 2.95514 10.1292 2.84154 10.2144C2.72793 10.2996 2.64673 10.4209 2.6113 10.5584L1.2488 16.0147C1.22562 16.1083 1.22441 16.2059 1.24525 16.3001C1.2661 16.3942 1.30844 16.4822 1.36896 16.5573C1.42948 16.6323 1.50655 16.6924 1.59413 16.7327C1.68171 16.773 1.77743 16.7925 1.8738 16.7897H9.3738C9.47017 16.7925 9.56589 16.773 9.65347 16.7327C9.74105 16.6924 9.81812 16.6323 9.87864 16.5573C9.93917 16.4822 9.98151 16.3942 10.0024 16.3001C10.0232 16.2059 10.022 16.1083 9.9988 16.0147L8.61755 10.5584ZM2.6738 15.5584L3.7488 11.3397H7.4988L8.5488 15.5397L2.6738 15.5584ZM18.7488 16.0147L17.3863 10.5584C17.3509 10.4209 17.2697 10.2996 17.1561 10.2144C17.0425 10.1292 16.9032 10.0852 16.7613 10.0897H11.9863C11.8444 10.0852 11.7051 10.1292 11.5915 10.2144C11.4779 10.2996 11.3967 10.4209 11.3613 10.5584L9.9988 16.0147C9.97562 16.1083 9.97441 16.2059 9.99525 16.3001C10.0161 16.3942 10.0584 16.4822 10.119 16.5573C10.1795 16.6323 10.2565 16.6924 10.3441 16.7327C10.4317 16.773 10.5274 16.7925 10.6238 16.7897H18.1238C18.2202 16.7925 18.3159 16.773 18.4035 16.7327C18.4911 16.6924 18.5681 16.6323 18.6286 16.5573C18.6892 16.4822 18.7315 16.3942 18.7524 16.3001C18.7732 16.2059 18.772 16.1083 18.7488 16.0147ZM11.4426 15.5397L12.4988 11.3397H16.2488L17.2988 15.5397H11.4426ZM6.26755 9.91467H13.7488C13.8452 9.9175 13.9409 9.89799 14.0285 9.85768C14.1161 9.81736 14.1931 9.75733 14.2536 9.68228C14.3142 9.60723 14.3565 9.5192 14.3774 9.42507C14.3982 9.33093 14.397 9.23325 14.3738 9.13967L12.9926 3.68342C12.9571 3.54591 12.8759 3.42456 12.7623 3.33936C12.6487 3.25415 12.5095 3.21018 12.3676 3.21467H7.6113C7.46937 3.21018 7.33014 3.25415 7.21654 3.33936C7.10293 3.42456 7.02173 3.54591 6.9863 3.68342L5.6238 9.13967C5.60062 9.23325 5.59941 9.33093 5.62025 9.42507C5.6411 9.5192 5.68344 9.60723 5.74396 9.68228C5.80448 9.75733 5.88155 9.81736 5.96913 9.85768C6.05671 9.89799 6.15243 9.9175 6.2488 9.91467H6.26755ZM8.14255 4.46467H11.8738L12.9238 8.66467H7.0488L8.14255 4.46467Z" fill="black"/>
</svg>
