<svg width="18" height="18" viewBox="0 0 18 18" fill="none" xmlns="http://www.w3.org/2000/svg">
<g clip-path="url(#clip0_18485_80343)">
<g clip-path="url(#clip1_18485_80343)">
<path fill-rule="evenodd" clip-rule="evenodd" d="M11.0221 5.46931C11.0221 3.51658 9.51442 1.93359 7.6547 1.93359C5.79498 1.93359 4.28735 3.51658 4.28735 5.46931V11.1264C4.28735 13.8603 6.39801 16.0764 9.00168 16.0764C11.6053 16.0764 13.716 13.8603 13.716 11.1264V6.88359C13.716 6.49305 13.4144 6.17644 13.0424 6.17644C12.6705 6.17644 12.369 6.49305 12.369 6.88359V11.1264C12.369 13.0792 10.8613 14.6622 9.00168 14.6622C7.14192 14.6622 5.63429 13.0792 5.63429 11.1264V5.46931C5.63429 4.29767 6.53883 3.34788 7.6547 3.34788C8.77057 3.34788 9.67514 4.29767 9.67514 5.46931V11.1264C9.67514 11.517 9.3736 11.8336 9.00168 11.8336C8.62968 11.8336 8.32817 11.517 8.32817 11.1264V6.88359C8.32817 6.49305 8.02666 6.17644 7.65471 6.17644C7.28275 6.17644 6.98123 6.49305 6.98123 6.88359V11.1264C6.98123 12.2981 7.88577 13.2479 9.00168 13.2479C10.1175 13.2479 11.0221 12.2981 11.0221 11.1264V5.46931Z" fill="black"/>
</g>
</g>
<defs>
<clipPath id="clip0_18485_80343">
<rect width="17.1429" height="17.1429" fill="white" transform="translate(0.428589 0.429688)"/>
</clipPath>
<clipPath id="clip1_18485_80343">
<rect width="17.1429" height="17.1429" fill="white" transform="translate(0.428589 0.429688)"/>
</clipPath>
</defs>
</svg>
