<svg width="20" height="20" viewBox="0 0 20 20" fill="none" xmlns="http://www.w3.org/2000/svg">
<path d="M16.0941 2.96894H14.7919L15.0002 2.81268C15.3454 2.55379 15.4154 2.06406 15.1565 1.71883C14.8977 1.37365 14.4079 1.30364 14.0627 1.56253L12.813 2.49972C12.4213 2.7935 12.1875 3.261 12.1875 3.75026C12.1875 4.23952 12.4213 4.70702 12.8131 5.00079L14.0627 5.93795C14.2033 6.04334 14.3677 6.09421 14.5308 6.09421C14.7683 6.09421 15.003 5.98627 15.1565 5.78164C15.4154 5.43642 15.3454 4.94669 15.0002 4.6878L14.792 4.53154H16.0941C17.3865 4.53154 18.438 5.58303 18.438 6.87549V13.126C18.438 14.4185 17.3865 15.47 16.0941 15.47H12.9688C12.5373 15.47 12.1875 15.8198 12.1875 16.2513C12.1875 16.6828 12.5373 17.0326 12.9688 17.0326H16.0941C18.2482 17.0326 20.0007 15.2801 20.0007 13.126V6.87549C20.0007 4.7214 18.2482 2.96894 16.0941 2.96894Z" fill="black"/>
<path d="M5.46895 7.65723C4.1765 7.65723 3.125 8.70872 3.125 10.0012C3.125 11.2936 4.1765 12.3451 5.46895 12.3451H11.407C12.6994 12.3451 13.7509 11.2936 13.7509 10.0012C13.7509 8.70872 12.6994 7.65723 11.407 7.65723H5.46895ZM12.1883 10.0012C12.1883 10.432 11.8378 10.7825 11.407 10.7825H5.46895C5.03813 10.7825 4.68763 10.432 4.68763 10.0012C4.68763 9.57036 5.03813 9.21986 5.46895 9.21986H11.407C11.8378 9.21986 12.1883 9.57036 12.1883 10.0012Z" fill="black"/>
<path d="M2.34395 6.09415H8.28196C9.57441 6.09415 10.6259 5.04265 10.6259 3.7502C10.6259 2.45775 9.57441 1.40625 8.28196 1.40625H2.34395C1.0515 1.40625 0 2.45775 0 3.7502C0 5.04265 1.0515 6.09415 2.34395 6.09415ZM2.34395 2.96888H8.28196C8.71278 2.96888 9.06328 3.31938 9.06328 3.7502C9.06328 4.18102 8.71278 4.53152 8.28196 4.53152H2.34395C1.91313 4.53152 1.56263 4.18102 1.56263 3.7502C1.56263 3.31938 1.91313 2.96888 2.34395 2.96888Z" fill="black"/>
<path d="M8.28196 18.5951C9.57441 18.5951 10.6259 17.5436 10.6259 16.2512C10.6259 14.9587 9.57441 13.9072 8.28196 13.9072H2.34395C1.0515 13.9072 0 14.9587 0 16.2512C0 17.5436 1.0515 18.5951 2.34395 18.5951H8.28196ZM1.56263 16.2512C1.56263 15.8204 1.91313 15.4699 2.34395 15.4699H8.28196C8.71278 15.4699 9.06328 15.8204 9.06328 16.2512C9.06328 16.682 8.71278 17.0325 8.28196 17.0325H2.34395C1.91313 17.0325 1.56263 16.682 1.56263 16.2512Z" fill="black"/>
</svg>
