<svg width="20" height="20" viewBox="0 0 20 20" fill="none" xmlns="http://www.w3.org/2000/svg">
<path d="M6.66797 1.6665L8.23464 3.23317" stroke="#3D3D3D" stroke-width="1.4" stroke-linecap="round" stroke-linejoin="round"/>
<path d="M11.7676 3.23366L13.3342 1.66699" stroke="#3D3D3D" stroke-width="1.4" stroke-linecap="round" stroke-linejoin="round"/>
<path d="M7.50055 5.9421V5.1087C7.48544 4.77096 7.53892 4.43366 7.65775 4.11715C7.77658 3.80065 7.95831 3.5115 8.19197 3.26716C8.42562 3.02282 8.70636 2.82836 9.01723 2.6955C9.32811 2.56264 9.66268 2.49414 10.0008 2.49414C10.3388 2.49414 10.6734 2.56264 10.9843 2.6955C11.2952 2.82836 11.5759 3.02282 11.8096 3.26716C12.0432 3.5115 12.2249 3.80065 12.3438 4.11715C12.4626 4.43366 12.5161 4.77096 12.501 5.1087V5.9421" stroke="#3D3D3D" stroke-width="1.4" stroke-linecap="round" stroke-linejoin="round"/>
<path d="M10.0004 16.6682C7.25019 16.6682 5 14.4181 5 11.6678V9.1676C5 8.28347 5.35122 7.43555 5.97639 6.81038C6.60157 6.1852 7.44949 5.83398 8.33362 5.83398H11.6672C12.5514 5.83398 13.3993 6.1852 14.0245 6.81038C14.6496 7.43555 15.0009 8.28347 15.0009 9.1676V11.6678C15.0009 14.4181 12.7507 16.6682 10.0004 16.6682Z" stroke="#3D3D3D" stroke-width="1.4" stroke-linecap="round" stroke-linejoin="round"/>
<path d="M10.001 16.6681V9.16748" stroke="#3D3D3D" stroke-width="1.4" stroke-linecap="round" stroke-linejoin="round"/>
<path d="M5.44192 7.50061C3.83345 7.33393 2.5 5.91714 2.5 4.16699" stroke="#3D3D3D" stroke-width="1.4" stroke-linecap="round" stroke-linejoin="round"/>
<path d="M5.00061 10.8345H1.66699" stroke="#3D3D3D" stroke-width="1.4" stroke-linecap="round" stroke-linejoin="round"/>
<path d="M2.5 17.5016C2.5 15.7514 3.91679 14.2513 5.66694 14.168" stroke="#3D3D3D" stroke-width="1.4" stroke-linecap="round" stroke-linejoin="round"/>
<path d="M17.4765 4.16699C17.4765 5.91714 16.143 7.33393 14.5596 7.50061" stroke="#3D3D3D" stroke-width="1.4" stroke-linecap="round" stroke-linejoin="round"/>
<path d="M18.3346 10.8345H15.001" stroke="#3D3D3D" stroke-width="1.4" stroke-linecap="round" stroke-linejoin="round"/>
<path d="M14.334 14.1675C16.0841 14.2508 17.5009 15.7509 17.5009 17.5011" stroke="#3D3D3D" stroke-width="1.4" stroke-linecap="round" stroke-linejoin="round"/>
</svg>
