<svg width="25" height="24" viewBox="0 0 25 24" fill="none" xmlns="http://www.w3.org/2000/svg">
<path fill-rule="evenodd" clip-rule="evenodd" d="M12.7301 8.7002C11.6957 8.7002 10.7038 9.11109 9.97236 9.84248C9.24097 10.5739 8.83008 11.5659 8.83008 12.6002C8.83008 13.6345 9.24097 14.6265 9.97236 15.3579C10.7038 16.0893 11.6957 16.5002 12.7301 16.5002C13.7644 16.5002 14.7564 16.0893 15.4878 15.3579C16.2192 14.6265 16.6301 13.6345 16.6301 12.6002C16.6301 11.5659 16.2192 10.5739 15.4878 9.84248C14.7564 9.11109 13.7644 8.7002 12.7301 8.7002ZM10.6301 12.6002C10.6301 12.3244 10.6844 12.0513 10.7899 11.7966C10.8955 11.5418 11.0502 11.3103 11.2452 11.1153C11.4402 10.9203 11.6717 10.7656 11.9264 10.66C12.1812 10.5545 12.4543 10.5002 12.7301 10.5002C13.0059 10.5002 13.2789 10.5545 13.5337 10.66C13.7885 10.7656 14.02 10.9203 14.215 11.1153C14.41 11.3103 14.5647 11.5418 14.6702 11.7966C14.7758 12.0513 14.8301 12.3244 14.8301 12.6002C14.8301 13.1572 14.6088 13.6913 14.215 14.0851C13.8212 14.4789 13.287 14.7002 12.7301 14.7002C12.1731 14.7002 11.639 14.4789 11.2452 14.0851C10.8513 13.6913 10.6301 13.1572 10.6301 12.6002Z" fill="black"/>
<path fill-rule="evenodd" clip-rule="evenodd" d="M11.0309 4.7998C10.4291 4.7998 9.8387 4.96438 9.32367 5.27572C8.80864 5.58707 8.38856 6.03332 8.10888 6.5662L7.69368 7.3558C7.62341 7.48976 7.51783 7.60194 7.38838 7.6802C7.25894 7.75846 7.11055 7.79982 6.95928 7.7998C5.50728 7.7998 4.33008 8.97701 4.33008 10.429V15.8998C4.33008 16.775 4.67776 17.6144 5.29663 18.2333C5.9155 18.8521 6.75486 19.1998 7.63008 19.1998H17.8301C18.7053 19.1998 19.5447 18.8521 20.1635 18.2333C20.7824 17.6144 21.1301 16.775 21.1301 15.8998V10.429C21.1301 8.97701 19.9529 7.7998 18.5009 7.7998C18.3496 7.79982 18.2012 7.75846 18.0718 7.6802C17.9423 7.60194 17.8367 7.48976 17.7665 7.3558L17.3513 6.5662C17.0716 6.03332 16.6515 5.58707 16.1365 5.27572C15.6215 4.96438 15.0311 4.7998 14.4293 4.7998H11.0309ZM9.70248 7.40261C9.82964 7.16037 10.0206 6.95753 10.2548 6.81603C10.4889 6.67453 10.7573 6.59975 11.0309 6.5998H14.4293C14.9873 6.5998 15.4973 6.9094 15.7577 7.40261L16.1717 8.1922C16.3945 8.61681 16.7291 8.9724 17.1395 9.22051C17.5498 9.46861 18.0202 9.59977 18.4997 9.5998C18.9593 9.5998 19.3301 9.97181 19.3301 10.429V15.8998C19.3301 16.7278 18.6581 17.3998 17.8301 17.3998H7.63008C6.80208 17.3998 6.13008 16.7278 6.13008 15.8998V10.429C6.13008 9.97181 6.50208 9.5998 6.95928 9.5998C7.43881 9.59991 7.90923 9.4688 8.31959 9.22068C8.72995 8.97256 9.06459 8.6169 9.28728 8.1922L9.70248 7.40261Z" fill="black"/>
</svg>
