<svg width="14" height="15" viewBox="0 0 14 15" fill="none" xmlns="http://www.w3.org/2000/svg">
<path d="M1.75 14.5H12.25C12.733 14.5 13.125 14.108 13.125 13.625V1.375C13.125 0.892 12.733 0.5 12.25 0.5H1.75C1.267 0.5 0.875 0.892 0.875 1.375V13.625C0.875 14.108 1.267 14.5 1.75 14.5ZM1.75 1.375H12.25V13.625H1.75V1.375ZM10.0625 3.125H6.5625C6.321 3.125 6.125 3.321 6.125 3.5625C6.125 3.804 6.321 4 6.5625 4H10.0625C10.304 4 10.5 3.804 10.5 3.5625C10.5 3.321 10.304 3.125 10.0625 3.125ZM10.0625 5.75H3.9375C3.696 5.75 3.5 5.946 3.5 6.1875C3.5 6.429 3.696 6.625 3.9375 6.625H10.0625C10.304 6.625 10.5 6.429 10.5 6.1875C10.5 5.946 10.304 5.75 10.0625 5.75ZM10.0625 8.375H3.9375C3.696 8.375 3.5 8.571 3.5 8.8125C3.5 9.054 3.696 9.25 3.9375 9.25H10.0625C10.304 9.25 10.5 9.054 10.5 8.8125C10.5 8.571 10.304 8.375 10.0625 8.375ZM10.0625 11H3.9375C3.696 11 3.5 11.196 3.5 11.4375C3.5 11.679 3.696 11.875 3.9375 11.875H10.0625C10.304 11.875 10.5 11.679 10.5 11.4375C10.5 11.196 10.304 11 10.0625 11Z" fill="#2B2C30"/>
</svg>
