<svg width="33" height="32" viewBox="0 0 33 32" fill="none" xmlns="http://www.w3.org/2000/svg">
<g opacity="0.6">
<path d="M15 5.09961H17.667C19.2685 5.09979 20.5664 6.39848 20.5664 8V10.4336H27C27.8652 10.4336 28.5664 11.1348 28.5664 12V25.333C28.5664 26.1983 27.8652 26.9004 27 26.9004H5.66699C4.80175 26.9004 4.09961 26.1983 4.09961 25.333V12C4.09961 11.1348 4.80175 10.4336 5.66699 10.4336H12.0996V8C12.0996 6.39837 13.3984 5.09961 15 5.09961ZM4.56641 26.4336H28.0996V20.2334H4.56641V26.4336ZM4.56641 19.7666H16.0996V16C16.0996 15.8712 16.2043 15.7668 16.333 15.7666C16.4619 15.7666 16.5664 15.8711 16.5664 16V19.7666H28.0996V10.9004H4.56641V19.7666ZM14.998 5.56641C13.655 5.56747 12.5664 6.65676 12.5664 8V10.4336H20.0996V8C20.0996 6.65667 19.0111 5.56732 17.668 5.56641H14.998Z" fill="black" stroke="#BEBEBE" stroke-width="2.2"/>
</g>
</svg>
