<svg width="24" height="24" viewBox="0 0 24 24" fill="none" xmlns="http://www.w3.org/2000/svg">
<path d="M17.5002 19.0039H9.00016C7.70202 19.0036 6.42955 18.6423 5.32494 17.9604C4.22032 17.2785 3.32708 16.3029 2.74503 15.1425C2.16298 13.9822 1.91505 12.6829 2.02895 11.3897C2.14285 10.0966 2.61409 8.86061 3.39001 7.81989C4.16593 6.77916 5.21596 5.9747 6.42276 5.49639C7.62957 5.01809 8.9456 4.88478 10.2238 5.11137C11.502 5.33796 12.692 5.91552 13.6609 6.77951C14.6297 7.6435 15.3393 8.75989 15.7102 10.0039H17.5002C18.6936 10.0039 19.8382 10.478 20.6821 11.3219C21.5261 12.1658 22.0002 13.3104 22.0002 14.5039C22.0002 15.6974 21.5261 16.842 20.6821 17.6859C19.8382 18.5298 18.6936 19.0039 17.5002 19.0039Z" stroke="#1F2937" stroke-width="2" stroke-linecap="round" stroke-linejoin="round"/>
</svg>
