<svg width="16" height="16" viewBox="0 0 16 16" fill="none" xmlns="http://www.w3.org/2000/svg">
<path d="M7.99967 1.16699C8.5531 1.16696 9.08556 1.37869 9.48783 1.75877C9.8901 2.13885 10.1317 2.65845 10.163 3.21099L10.1663 3.33366H13.6663C13.793 3.3337 13.915 3.38182 14.0075 3.46831C14.1001 3.55479 14.1564 3.67319 14.165 3.79958C14.1737 3.92597 14.134 4.05092 14.0541 4.14919C13.9741 4.24746 13.8598 4.31172 13.7343 4.32899L13.6663 4.33366H13.1357L12.2823 13.0137C12.2396 13.4464 12.0444 13.8498 11.7317 14.152C11.4189 14.4541 11.009 14.6352 10.575 14.663L10.4577 14.667H5.54167C5.10665 14.667 4.6858 14.5123 4.35434 14.2305C4.02289 13.9488 3.80242 13.5583 3.73234 13.129L3.71701 13.013L2.86301 4.33366H2.33301C2.21218 4.33365 2.09545 4.2899 2.00439 4.21048C1.91333 4.13106 1.85411 4.02136 1.83767 3.90166L1.83301 3.83366C1.83301 3.71283 1.87677 3.5961 1.95619 3.50504C2.0356 3.41398 2.14531 3.35476 2.26501 3.33833L2.33301 3.33366H5.83301C5.83301 2.75902 6.06128 2.20792 6.46761 1.80159C6.87394 1.39527 7.42504 1.16699 7.99967 1.16699ZM12.131 4.33366H3.86767L4.71234 12.915C4.73104 13.1065 4.81542 13.2856 4.95116 13.4219C5.08689 13.5583 5.26562 13.6434 5.45701 13.663L5.54167 13.667H10.4577C10.8577 13.667 11.197 13.3837 11.2743 12.999L11.2877 12.915L12.1303 4.33366H12.131ZM9.16634 6.16699C9.28717 6.167 9.4039 6.21075 9.49496 6.29017C9.58602 6.36959 9.64524 6.47929 9.66167 6.59899L9.66634 6.66699V11.3337C9.6663 11.4603 9.61818 11.5823 9.53169 11.6749C9.44521 11.7674 9.32681 11.8237 9.20042 11.8323C9.07403 11.841 8.94908 11.8013 8.85081 11.7214C8.75254 11.6414 8.68827 11.5272 8.67101 11.4017L8.66634 11.3337V6.66699C8.66634 6.53438 8.71902 6.40721 8.81279 6.31344C8.90656 6.21967 9.03373 6.16699 9.16634 6.16699ZM6.83301 6.16699C6.95383 6.167 7.07057 6.21075 7.16163 6.29017C7.25269 6.36959 7.31191 6.47929 7.32834 6.59899L7.33301 6.66699V11.3337C7.33297 11.4603 7.28484 11.5823 7.19836 11.6749C7.11187 11.7674 6.99347 11.8237 6.86709 11.8323C6.7407 11.841 6.61575 11.8013 6.51747 11.7214C6.4192 11.6414 6.35494 11.5272 6.33767 11.4017L6.33301 11.3337V6.66699C6.33301 6.53438 6.38569 6.40721 6.47945 6.31344C6.57322 6.21967 6.7004 6.16699 6.83301 6.16699ZM7.99967 2.16699C7.70688 2.167 7.4248 2.27711 7.20941 2.47545C6.99403 2.67378 6.8611 2.94586 6.83701 3.23766L6.83301 3.33366H9.16634C9.16634 3.02424 9.04342 2.72749 8.82463 2.5087C8.60584 2.28991 8.30909 2.16699 7.99967 2.16699Z" fill="#DC043B"/>
</svg>
