<svg width="14" height="15" viewBox="0 0 14 15" fill="none" xmlns="http://www.w3.org/2000/svg">
<path d="M6.99935 1.52148C7.4836 1.52145 7.9495 1.70672 8.30148 2.03929C8.65347 2.37186 8.86485 2.82651 8.89227 3.30998L8.89518 3.41732H11.9577C12.0685 3.41735 12.1752 3.45946 12.2562 3.53514C12.3372 3.61081 12.3865 3.71441 12.394 3.825C12.4016 3.93559 12.3669 4.04492 12.2969 4.13091C12.227 4.2169 12.127 4.27313 12.0172 4.28823L11.9577 4.29232H11.4933L10.7467 11.8873C10.7093 12.266 10.5385 12.619 10.2648 12.8833C9.99119 13.1477 9.63248 13.3062 9.25277 13.3305L9.1501 13.334H4.8486C4.46795 13.334 4.09971 13.1986 3.80969 12.9521C3.51966 12.7055 3.32675 12.3639 3.26543 11.9882L3.25202 11.8867L2.50477 4.29232H2.04102C1.93529 4.29231 1.83315 4.25403 1.75347 4.18454C1.6738 4.11505 1.62198 4.01906 1.6076 3.91432L1.60352 3.85482C1.60352 3.7491 1.64181 3.64695 1.7113 3.56727C1.78079 3.4876 1.87678 3.43578 1.98152 3.4214L2.04102 3.41732H5.10352C5.10352 2.91451 5.30325 2.4323 5.65879 2.07676C6.01433 1.72122 6.49654 1.52148 6.99935 1.52148ZM10.6143 4.29232H3.38385L4.12293 11.801C4.1393 11.9685 4.21313 12.1252 4.3319 12.2445C4.45066 12.3638 4.60705 12.4384 4.77452 12.4555L4.8486 12.459H9.1501C9.5001 12.459 9.79702 12.2111 9.86468 11.8745L9.87635 11.801L10.6137 4.29232H10.6143ZM8.02018 5.89648C8.1259 5.89649 8.22805 5.93478 8.30772 6.00426C8.3874 6.07375 8.43922 6.16974 8.4536 6.27448L8.45768 6.33398V10.4173C8.45765 10.5282 8.41554 10.6349 8.33986 10.7159C8.26419 10.7969 8.16059 10.8461 8.05 10.8537C7.93941 10.8612 7.83008 10.8265 7.74409 10.7566C7.6581 10.6866 7.60187 10.5866 7.58677 10.4768L7.58268 10.4173V6.33398C7.58268 6.21795 7.62878 6.10667 7.71082 6.02463C7.79287 5.94258 7.90415 5.89648 8.02018 5.89648ZM5.97852 5.89648C6.08424 5.89649 6.18638 5.93478 6.26606 6.00426C6.34574 6.07375 6.39755 6.16974 6.41193 6.27448L6.41602 6.33398V10.4173C6.41598 10.5282 6.37387 10.6349 6.2982 10.7159C6.22252 10.7969 6.11892 10.8461 6.00834 10.8537C5.89775 10.8612 5.78841 10.8265 5.70242 10.7566C5.61644 10.6866 5.56021 10.5866 5.5451 10.4768L5.54102 10.4173V6.33398C5.54102 6.21795 5.58711 6.10667 5.66916 6.02463C5.7512 5.94258 5.86248 5.89648 5.97852 5.89648ZM6.99935 2.39648C6.74315 2.39649 6.49633 2.49283 6.30787 2.66638C6.11941 2.83993 6.0031 3.07799 5.98202 3.33332L5.97852 3.41732H8.02018C8.02018 3.14658 7.91263 2.88692 7.72119 2.69548C7.52974 2.50404 7.27009 2.39648 6.99935 2.39648Z" fill="#2B2C30"/>
</svg>
