
    <svg width="20" height="21" viewBox="0 0 20 21" fill="none" xmlns="http://www.w3.org/2000/svg">
        <path fill-rule="evenodd" clip-rule="evenodd"
            d="M9.95983 1.27539H10.001H10.0422C10.5962 1.27536 11.0737 1.27533 11.456 1.32674C11.8657 1.38183 12.2584 1.50605 12.5771 1.82461C12.8956 2.14318 13.0198 2.53593 13.0749 2.94567C13.1264 3.32799 13.1263 3.80542 13.1263 4.35951V4.4418C13.1263 4.99591 13.1264 5.47333 13.0749 5.85566C13.0198 6.26539 12.8956 6.65814 12.5771 6.9767C12.2584 7.29527 11.8657 7.4195 11.456 7.47459C11.0737 7.52599 10.5962 7.52596 10.0422 7.52594H9.95983C9.40578 7.52596 8.92833 7.52599 8.54604 7.47459C8.13628 7.4195 7.74353 7.29527 7.42496 6.9767C7.1064 6.65814 6.98217 6.26539 6.92708 5.85566C6.87568 5.47333 6.8757 4.99591 6.87573 4.44181C6.87573 4.42814 6.87573 4.41443 6.87573 4.40066C6.87573 4.3869 6.87573 4.37318 6.87573 4.35951C6.8757 3.80541 6.87568 3.32798 6.92708 2.94567C6.98217 2.53593 7.1064 2.14318 7.42496 1.82461C7.74353 1.50605 8.13628 1.38183 8.54604 1.32674C8.92833 1.27533 9.40578 1.27536 9.95983 1.27539ZM8.71256 2.56569C8.44145 2.60215 8.35653 2.66099 8.30892 2.70857C8.26134 2.75616 8.20249 2.84113 8.16604 3.11224C8.12717 3.40133 8.12584 3.79368 8.12584 4.40066C8.12584 5.00764 8.12717 5.4 8.16604 5.68909C8.20249 5.96019 8.26134 6.04517 8.30892 6.09275C8.35653 6.14033 8.44145 6.19918 8.71256 6.23562C9.00167 6.2745 9.39403 6.27582 10.001 6.27582C10.608 6.27582 11.0003 6.2745 11.2894 6.23562C11.5606 6.19918 11.6455 6.14033 11.6931 6.09275C11.7407 6.04517 11.7995 5.96019 11.836 5.68909C11.8748 5.4 11.8762 5.00764 11.8762 4.40066C11.8762 3.79368 11.8748 3.40133 11.836 3.11224C11.7995 2.84113 11.7407 2.75616 11.6931 2.70857C11.6455 2.66099 11.5606 2.60215 11.2894 2.56569C11.0003 2.52683 10.608 2.5255 10.001 2.5255C9.39403 2.5255 9.00167 2.52683 8.71256 2.56569Z"
            fill="black" />
        <path fill-rule="evenodd" clip-rule="evenodd"
            d="M4.12563 12.9434H4.16677H4.20793C4.76202 12.9434 5.23945 12.9433 5.62177 12.9947C6.0315 13.0498 6.42426 13.174 6.74282 13.4926C7.06139 13.8112 7.18562 14.2039 7.2407 14.6137C7.2921 14.996 7.29207 15.4734 7.29205 16.0275V16.1098C7.29207 16.6638 7.2921 17.1413 7.2407 17.5236C7.18562 17.9334 7.06139 18.3261 6.74282 18.6447C6.42426 18.9632 6.0315 19.0875 5.62177 19.1426C5.23945 19.194 4.76202 19.1939 4.20792 19.1939H4.12564C3.57153 19.1939 3.09411 19.194 2.71178 19.1426C2.30205 19.0875 1.9093 18.9632 1.59073 18.6447C1.27217 18.3261 1.14794 17.9334 1.09285 17.5236C1.04145 17.1413 1.04147 16.6638 1.04151 16.1098C1.04151 16.0961 1.04151 16.0824 1.04151 16.0686C1.04151 16.0549 1.04151 16.0411 1.04151 16.0275C1.04147 15.4734 1.04145 14.996 1.09285 14.6137C1.14794 14.2039 1.27217 13.8112 1.59073 13.4926C1.9093 13.174 2.30205 13.0498 2.71178 12.9947C3.09411 12.9433 3.57153 12.9434 4.12563 12.9434ZM2.87835 14.2336C2.60725 14.2701 2.52227 14.329 2.47469 14.3766C2.42711 14.4242 2.36826 14.5091 2.33181 14.7802C2.29295 15.0693 2.29161 15.4617 2.29161 16.0686C2.29161 16.6756 2.29295 17.068 2.33181 17.3571C2.36826 17.6282 2.42711 17.7131 2.47469 17.7607C2.52227 17.8083 2.60725 17.8671 2.87835 17.9036C3.16745 17.9425 3.5598 17.9438 4.16677 17.9438C4.77375 17.9438 5.16611 17.9425 5.4552 17.9036C5.72631 17.8671 5.81128 17.8083 5.85886 17.7607C5.90645 17.7131 5.96529 17.6282 6.00174 17.3571C6.04061 17.068 6.04193 16.6756 6.04193 16.0686C6.04193 15.4617 6.04061 15.0693 6.00174 14.7802C5.96529 14.5091 5.90645 14.4242 5.85886 14.3766C5.81128 14.329 5.72631 14.2701 5.4552 14.2336C5.16611 14.1948 4.77375 14.1935 4.16677 14.1935C3.5598 14.1935 3.16745 14.1948 2.87835 14.2336Z"
            fill="black" />
        <path fill-rule="evenodd" clip-rule="evenodd"
            d="M15.7928 12.9434H15.834H15.8752C16.4292 12.9434 16.9067 12.9433 17.289 12.9947C17.6988 13.0498 18.0915 13.174 18.4101 13.4926C18.7286 13.8112 18.8528 14.2039 18.9079 14.6137C18.9594 14.996 18.9593 15.4734 18.9593 16.0275V16.1098C18.9593 16.6638 18.9594 17.1413 18.9079 17.5236C18.8528 17.9334 18.7286 18.3261 18.4101 18.6447C18.0915 18.9632 17.6988 19.0875 17.289 19.1426C16.9067 19.194 16.4292 19.1939 15.8752 19.1939H15.7928C15.2388 19.1939 14.7613 19.194 14.379 19.1426C13.9693 19.0875 13.5766 18.9632 13.258 18.6447C12.9394 18.3261 12.8152 17.9334 12.7601 17.5236C12.7087 17.1413 12.7087 16.6638 12.7087 16.1098C12.7087 16.0961 12.7087 16.0824 12.7087 16.0686C12.7087 16.0549 12.7087 16.0411 12.7087 16.0275C12.7087 15.4734 12.7087 14.996 12.7601 14.6137C12.8152 14.2039 12.9394 13.8112 13.258 13.4926C13.5766 13.174 13.9693 13.0498 14.379 12.9947C14.7613 12.9433 15.2388 12.9434 15.7928 12.9434ZM14.5456 14.2336C14.2745 14.2701 14.1895 14.329 14.1419 14.3766C14.0944 14.4242 14.0355 14.5091 13.999 14.7802C13.9602 15.0693 13.9588 15.4617 13.9588 16.0686C13.9588 16.6756 13.9602 17.068 13.999 17.3571C14.0355 17.6282 14.0944 17.7131 14.1419 17.7607C14.1895 17.8083 14.2745 17.8671 14.5456 17.9036C14.8347 17.9425 15.227 17.9438 15.834 17.9438C16.441 17.9438 16.8333 17.9425 17.1225 17.9036C17.3936 17.8671 17.4785 17.8083 17.5261 17.7607C17.5737 17.7131 17.6325 17.6282 17.669 17.3571C17.7078 17.068 17.7092 16.6756 17.7092 16.0686C17.7092 15.4617 17.7078 15.0693 17.669 14.7802C17.6325 14.5091 17.5737 14.4242 17.5261 14.3766C17.4785 14.329 17.3936 14.2701 17.1225 14.2336C16.8333 14.1948 16.441 14.1935 15.834 14.1935C15.227 14.1935 14.8347 14.1948 14.5456 14.2336Z"
            fill="black" />
        <path fill-rule="evenodd" clip-rule="evenodd"
            d="M10.0006 6.27539C10.3458 6.27539 10.6257 6.55524 10.6257 6.90044V7.73385V7.74885C10.6257 8.13873 10.6264 8.39691 10.6422 8.59626C10.6577 8.79027 10.6847 8.87786 10.7114 8.93312C10.8288 9.17589 11.0693 9.39716 11.4102 9.51817C11.5093 9.55334 11.6454 9.57992 11.89 9.59426C12.1387 9.60876 12.4572 9.60901 12.9176 9.60901H12.9364C13.3734 9.60901 13.7285 9.60901 14.0181 9.62593C14.3158 9.64335 14.5849 9.68018 14.8431 9.77194C15.4553 9.98921 15.9718 10.4169 16.2493 10.991C16.3705 11.2421 16.4175 11.5018 16.439 11.7727C16.4595 12.0301 16.4595 12.3424 16.4595 12.7104V13.5677C16.4595 13.9129 16.1797 14.1927 15.8345 14.1927C15.4893 14.1927 15.2094 13.9129 15.2094 13.5677V12.7343C15.2094 12.336 15.209 12.0738 15.1929 11.8719C15.1774 11.6779 15.1504 11.5903 15.1237 11.535C15.0064 11.2922 14.7658 11.071 14.4249 10.95C14.3258 10.9148 14.1897 10.8882 13.9451 10.874C13.6964 10.8594 13.3779 10.8591 12.9176 10.8591H12.8987C12.4617 10.8591 12.1066 10.8591 11.817 10.8422C11.5193 10.8248 11.2502 10.7879 10.992 10.6962C10.6138 10.5619 10.272 10.3473 10.0006 10.0675C9.72928 10.3473 9.3875 10.5619 9.0093 10.6962C8.75103 10.7879 8.48192 10.8248 8.18422 10.8422C7.8947 10.8591 7.53962 10.8591 7.10257 10.8591H7.08372C6.62335 10.8591 6.30491 10.8594 6.05621 10.874C5.81155 10.8882 5.67547 10.9148 5.57637 10.95C5.23549 11.071 4.99491 11.2922 4.87761 11.535C4.85089 11.5903 4.82384 11.6779 4.80839 11.8719C4.79232 12.0738 4.79186 12.336 4.79186 12.7343V13.5677C4.79186 13.9129 4.51201 14.1927 4.1668 14.1927C3.8216 14.1927 3.54175 13.9129 3.54175 13.5677V12.7104C3.54174 12.3424 3.54173 12.0301 3.56223 11.7727C3.58379 11.5018 3.63075 11.2421 3.75204 10.991C4.02947 10.4169 4.54604 9.98921 5.15812 9.77194C5.41638 9.68018 5.68551 9.64335 5.98322 9.62593C6.27276 9.60901 6.62783 9.60901 7.06488 9.60901H7.08372C7.5441 9.60901 7.86253 9.60876 8.11123 9.59426C8.35591 9.57992 8.49201 9.55334 8.5911 9.51817C8.93196 9.39716 9.17256 9.17589 9.28982 8.93312C9.31658 8.87786 9.34358 8.79027 9.35908 8.59626C9.37491 8.39691 9.37558 8.13872 9.37558 7.74882C9.37558 7.74386 9.37558 7.73887 9.37558 7.73385V6.90044C9.37558 6.55524 9.65544 6.27539 10.0006 6.27539Z"
            fill="black" />
    </svg>

