<svg width="16" height="16" viewBox="0 0 16 16" fill="none" xmlns="http://www.w3.org/2000/svg">
<path d="M11.333 14.5H4.66634C1.72634 14.5 0.833008 13.6067 0.833008 10.6667V5.33333C0.833008 2.39333 1.72634 1.5 4.66634 1.5H11.333C14.273 1.5 15.1663 2.39333 15.1663 5.33333V10.6667C15.1663 13.6067 14.273 14.5 11.333 14.5ZM4.66634 2.5C2.27967 2.5 1.83301 2.95333 1.83301 5.33333V10.6667C1.83301 13.0467 2.27967 13.5 4.66634 13.5H11.333C13.7197 13.5 14.1663 13.0467 14.1663 10.6667V5.33333C14.1663 2.95333 13.7197 2.5 11.333 2.5H4.66634Z" fill="#2B2C30"/>
<path d="M12.6663 5.8335H9.33301C9.05967 5.8335 8.83301 5.60683 8.83301 5.3335C8.83301 5.06016 9.05967 4.8335 9.33301 4.8335H12.6663C12.9397 4.8335 13.1663 5.06016 13.1663 5.3335C13.1663 5.60683 12.9397 5.8335 12.6663 5.8335Z" fill="#2B2C30"/>
<path d="M12.6667 8.5H10C9.72667 8.5 9.5 8.27333 9.5 8C9.5 7.72667 9.72667 7.5 10 7.5H12.6667C12.94 7.5 13.1667 7.72667 13.1667 8C13.1667 8.27333 12.94 8.5 12.6667 8.5Z" fill="#2B2C30"/>
<path d="M12.6663 11.1665H11.333C11.0597 11.1665 10.833 10.9398 10.833 10.6665C10.833 10.3932 11.0597 10.1665 11.333 10.1665H12.6663C12.9397 10.1665 13.1663 10.3932 13.1663 10.6665C13.1663 10.9398 12.9397 11.1665 12.6663 11.1665Z" fill="#2B2C30"/>
<path d="M5.66663 8.0266C4.72663 8.0266 3.95996 7.25993 3.95996 6.31995C3.95996 5.37995 4.72663 4.61328 5.66663 4.61328C6.60663 4.61328 7.37327 5.37995 7.37327 6.31995C7.37327 7.25993 6.60663 8.0266 5.66663 8.0266ZM5.66663 5.61328C5.27996 5.61328 4.95996 5.93328 4.95996 6.31995C4.95996 6.7066 5.27996 7.0266 5.66663 7.0266C6.05329 7.0266 6.37329 6.7066 6.37329 6.31995C6.37329 5.93328 6.05329 5.61328 5.66663 5.61328Z" fill="#2B2C30"/>
<path d="M7.99993 11.3867C7.7466 11.3867 7.5266 11.1933 7.49993 10.9333C7.4266 10.2133 6.8466 9.63334 6.11994 9.56667C5.81327 9.54001 5.5066 9.54001 5.19994 9.56667C4.47327 9.63334 3.89327 10.2067 3.81994 10.9333C3.79327 11.2067 3.5466 11.4133 3.27327 11.38C2.99994 11.3533 2.79994 11.1067 2.8266 10.8333C2.9466 9.63334 3.89994 8.68001 5.1066 8.57334C5.47327 8.54001 5.8466 8.54001 6.21327 8.57334C7.41326 8.68667 8.37326 9.64001 8.49326 10.8333C8.51993 11.1067 8.31993 11.3533 8.0466 11.38C8.03326 11.3867 8.01326 11.3867 7.99993 11.3867Z" fill="#2B2C30"/>
</svg>
