<svg width="20" height="20" viewBox="0 0 20 20" fill="none" xmlns="http://www.w3.org/2000/svg">
        <g clip-path="url(#clip0_18145_34052)">
            <path fill-rule="evenodd" clip-rule="evenodd"
                d="M18.9612 5.00555C18.9612 3.95546 18.5445 2.9487 17.8019 2.20614C17.0593 1.46358 16.0526 1.04688 15.0025 1.04688H5.00164C3.95155 1.04688 2.9448 1.46358 2.20223 2.20614C1.45967 2.9487 1.04297 3.95546 1.04297 5.00555V15.0064C1.04297 16.0565 1.45967 17.0632 2.20223 17.8058C2.9448 18.5484 3.95155 18.9651 5.00164 18.9651H15.0025C16.0526 18.9651 17.0593 18.5484 17.8019 17.8058C18.5445 17.0632 18.9612 16.0565 18.9612 15.0064V5.00555ZM17.7111 5.00555V15.0064C17.7111 15.7248 17.426 16.414 16.9177 16.9216C16.4101 17.4299 15.7209 17.715 15.0025 17.715H5.00164C4.28325 17.715 3.59402 17.4299 3.08648 16.9216C2.5781 16.414 2.29308 15.7248 2.29308 15.0064V5.00555C2.29308 4.28715 2.5781 3.59793 3.08648 3.09038C3.59402 2.58201 4.28325 2.29698 5.00164 2.29698H15.0025C15.7209 2.29698 16.4101 2.58201 16.9177 3.09038C17.426 3.59793 17.7111 4.28715 17.7111 5.00555Z"
                fill="black" stroke="black" stroke-width="0.2" />
            <path fill-rule="evenodd" clip-rule="evenodd"
                d="M10.407 6.8086L8.40688 12.8091C8.29853 13.1366 8.47522 13.4908 8.80274 13.6C9.13027 13.7084 9.48447 13.5317 9.59364 13.2042L11.5938 7.20364C11.7022 6.87611 11.5255 6.52191 11.1979 6.41274C10.8704 6.30439 10.5162 6.48107 10.407 6.8086Z"
                fill="black" stroke="black" stroke-width="0.2" />
            <path fill-rule="evenodd" clip-rule="evenodd"
                d="M12.562 8.44741L14.1197 10.0059L12.562 11.5643C12.3179 11.8077 12.3179 12.2044 12.562 12.4478C12.8054 12.6919 13.2021 12.6919 13.4455 12.4478L15.4456 10.4476C15.6898 10.2034 15.6898 9.80836 15.4456 9.56417L13.4455 7.564C13.2021 7.31981 12.8054 7.31981 12.562 7.564C12.3179 7.80735 12.3179 8.20406 12.562 8.44741Z"
                fill="black" stroke="black" stroke-width="0.2" />
            <path fill-rule="evenodd" clip-rule="evenodd"
                d="M6.55831 7.564L4.55814 9.56417C4.31395 9.80836 4.31395 10.2034 4.55814 10.4476L6.55831 12.4478C6.80167 12.6919 7.19837 12.6919 7.44172 12.4478C7.68591 12.2044 7.68591 11.8077 7.44172 11.5643L5.88409 10.0059L7.44172 8.44741C7.68591 8.20406 7.68591 7.80735 7.44172 7.564C7.19837 7.31981 6.80167 7.31981 6.55831 7.564Z"
                fill="black" stroke="black" stroke-width="0.2" />
        </g>
        <defs>
            <clipPath id="clip0_18145_34052">
                <rect width="20.0017" height="20.0017" fill="white" transform="translate(0 0.00585938)" />
            </clipPath>
        </defs>
    </svg>
