<svg width="20" height="20" viewBox="0 0 20 20" fill="none" xmlns="http://www.w3.org/2000/svg">
        <g clip-path="url(#clip0_18145_2241)">
            <path
                d="M18.6326 5.52408L18.6178 5.49849C18.5973 5.45595 18.5737 5.4152 18.5473 5.37649L15.7646 0.565674C15.5642 0.219159 15.191 0.00390625 14.7907 0.00390625H5.21421C4.81328 0.00390625 4.43981 0.219667 4.23944 0.56712L1.41146 5.47325C1.38598 5.51747 1.36762 5.56373 1.35465 5.61072C1.31485 5.71819 1.29297 5.83434 1.29297 5.95552V18.6271C1.29297 19.3872 1.91134 20.0056 2.67141 20.0056H17.333C18.0931 20.0056 18.7114 19.3872 18.7114 18.6271V5.90907C18.7114 5.89208 18.7109 5.8752 18.71 5.8584C18.718 5.74562 18.6936 5.62932 18.6326 5.52408ZM10.6085 1.17631H14.7634L16.9524 4.96075H10.6085V1.17631ZM5.24152 1.17631H9.43606V4.96075H3.06008L5.24152 1.17631ZM17.539 18.6272C17.539 18.7408 17.4466 18.8332 17.333 18.8332H2.67141C2.55781 18.8332 2.46538 18.7408 2.46538 18.6272V6.13315H17.539V18.6272Z"
                fill="black" stroke="black" stroke-width="0.3" />
            <path
                d="M12.6608 10.5525C12.4319 10.3236 12.0607 10.3236 11.8317 10.5525L9.21424 13.17L8.20774 12.1635C7.97886 11.9346 7.60765 11.9346 7.37873 12.1635C7.1498 12.3924 7.1498 12.7636 7.37873 12.9925L8.79979 14.4135C8.91425 14.528 9.0643 14.5853 9.21428 14.5853C9.36425 14.5853 9.51434 14.528 9.62877 14.4135L12.6608 11.3815C12.8897 11.1526 12.8897 10.7815 12.6608 10.5525Z"
                fill="black" stroke="black" stroke-width="0.3" />
        </g>
        <defs>
            <clipPath id="clip0_18145_2241">
                <rect width="20.0017" height="20.0017" fill="white" transform="translate(0 0.00390625)" />
            </clipPath>
        </defs>
    </svg>
