<svg width="25" height="24" viewBox="0 0 25 24" fill="none" xmlns="http://www.w3.org/2000/svg">
<path fill-rule="evenodd" clip-rule="evenodd" d="M12.5799 4.2002C12.8186 4.2002 13.0475 4.29502 13.2163 4.4638C13.3851 4.63258 13.4799 4.8615 13.4799 5.1002V16.7282L16.7439 13.4642C16.9145 13.3052 17.1402 13.2187 17.3733 13.2228C17.6065 13.2269 17.8289 13.3214 17.9938 13.4862C18.1587 13.6511 18.2532 13.8736 18.2573 14.1068C18.2614 14.3399 18.1749 14.5656 18.0159 14.7362L13.2159 19.5362C13.0471 19.7047 12.8184 19.7994 12.5799 19.7994C12.3414 19.7994 12.1126 19.7047 11.9439 19.5362L7.14389 14.7362C6.98492 14.5656 6.89837 14.3399 6.90248 14.1068C6.9066 13.8736 7.00105 13.6511 7.16595 13.4862C7.33084 13.3214 7.55331 13.2269 7.78647 13.2228C8.01963 13.2187 8.24528 13.3052 8.41589 13.4642L11.6799 16.7282V5.1002C11.6799 4.8615 11.7747 4.63258 11.9435 4.4638C12.1123 4.29502 12.3412 4.2002 12.5799 4.2002Z" fill="black"/>
</svg>
