<svg width="20" height="20" viewBox="0 0 20 20" fill="none" xmlns="http://www.w3.org/2000/svg">
<path d="M14.3761 6.25433H18.1264C18.4719 6.25433 18.7515 5.97446 18.7515 5.62928V1.87896C18.7515 1.53378 18.4719 1.25391 18.1264 1.25391H14.3761C14.0306 1.25391 13.7511 1.53378 13.7511 1.87896V3.12907H11.8759C11.7404 3.12907 11.6092 3.17302 11.5011 3.2542L8.8097 5.27242L7.15505 4.4451C6.97925 4.3572 6.77171 4.3572 6.59592 4.4451L1.59549 6.94531C1.38368 7.05122 1.25 7.2676 1.25 7.50444V12.5049C1.25 12.7417 1.38368 12.9581 1.59549 13.064L6.59592 15.5642C6.68381 15.6082 6.77965 15.6301 6.87548 15.6301C6.97131 15.6301 7.06715 15.6082 7.15505 15.5642L8.8097 14.7369L11.5011 16.7551C11.6092 16.8363 11.7404 16.8802 11.8759 16.8802H13.7511V18.1304C13.7511 18.4755 14.0306 18.7554 14.3761 18.7554H18.1264C18.4719 18.7554 18.7515 18.4755 18.7515 18.1304V14.38C18.7515 14.0348 18.4719 13.755 18.1264 13.755H14.3761C14.0306 13.755 13.7511 14.0348 13.7511 14.38V15.6301H12.0841L10.0597 14.1119L12.1555 13.064C12.3673 12.9581 12.501 12.7417 12.501 12.5049V10.6297H13.7511V11.8798C13.7511 12.225 14.0306 12.5049 14.3761 12.5049H18.1264C18.4719 12.5049 18.7515 12.225 18.7515 11.8798V8.12949C18.7515 7.78431 18.4719 7.50444 18.1264 7.50444H14.3761C14.0306 7.50444 13.7511 7.78431 13.7511 8.12949V9.3796H12.501V7.50444C12.501 7.2676 12.3673 7.05122 12.1555 6.94531L10.0597 5.89744L12.0841 4.37917H13.7511V5.62928C13.7511 5.97446 14.0306 6.25433 14.3761 6.25433ZM15.0012 2.50401H17.5014V5.00423H15.0012V2.50401ZM15.0012 15.0051H17.5014V17.5053H15.0012V15.0051ZM15.0012 8.75455H17.5014V11.2548H15.0012V8.75455ZM2.50011 8.51588L6.25043 10.391V13.9936L2.50011 12.1185V8.51588ZM7.50053 13.9936V10.391L11.2509 8.51588V12.1185L7.50053 13.9936ZM6.87548 9.30574L3.27257 7.50444L6.87548 5.70314L10.4784 7.50444L6.87548 9.30574Z" fill="black"/>
</svg>
