<svg width="16" height="16" viewBox="0 0 16 16" fill="none" xmlns="http://www.w3.org/2000/svg">
<g clip-path="url(#clip0_542_90331)">
<path d="M10.0013 4.66992H12.0013C12.439 4.66992 12.8725 4.75614 13.2769 4.92366C13.6813 5.09117 14.0488 5.3367 14.3583 5.64623C14.6679 5.95576 14.9134 6.32323 15.0809 6.72764C15.2484 7.13206 15.3346 7.56552 15.3346 8.00326C15.3346 8.44099 15.2484 8.87445 15.0809 9.27887C14.9134 9.68329 14.6679 10.0507 14.3583 10.3603C14.0488 10.6698 13.6813 10.9153 13.2769 11.0829C12.8725 11.2504 12.439 11.3366 12.0013 11.3366H10.0013M6.0013 11.3366H4.0013C3.56356 11.3366 3.13011 11.2504 2.72569 11.0829C2.32127 10.9153 1.95381 10.6698 1.64428 10.3603C1.01916 9.73516 0.667969 8.88731 0.667969 8.00326C0.667969 7.1192 1.01916 6.27135 1.64428 5.64623C2.2694 5.02111 3.11725 4.66992 4.0013 4.66992H6.0013" stroke="#3D3D3D" stroke-width="1.33331" stroke-linecap="round" stroke-linejoin="round"/>
<path d="M5.33203 8.00391H10.666" stroke="#3D3D3D" stroke-width="1.33331" stroke-linecap="round" stroke-linejoin="round"/>
</g>
<defs>
<clipPath id="clip0_542_90331">
<rect width="16" height="16" fill="white" transform="translate(0 0.00390625)"/>
</clipPath>
</defs>
</svg>
