<svg width="24" height="24" viewBox="0 0 24 24" fill="none" xmlns="http://www.w3.org/2000/svg">
<path d="M12.0001 6.00023C12.5525 6.00023 13.0002 5.55246 13.0002 5.00012C13.0002 4.44777 12.5525 4 12.0001 4C11.4478 4 11 4.44777 11 5.00012C11 5.55246 11.4478 6.00023 12.0001 6.00023Z" stroke="#3D3D3D" stroke-width="1.99996" stroke-linecap="round" stroke-linejoin="round"/>
<path d="M12.0001 13.0002C12.5525 13.0002 13.0002 12.5525 13.0002 12.0001C13.0002 11.4478 12.5525 11 12.0001 11C11.4478 11 11 11.4478 11 12.0001C11 12.5525 11.4478 13.0002 12.0001 13.0002Z" stroke="#3D3D3D" stroke-width="1.99996" stroke-linecap="round" stroke-linejoin="round"/>
<path d="M12.0001 20.0002C12.5525 20.0002 13.0002 19.5525 13.0002 19.0001C13.0002 18.4478 12.5525 18 12.0001 18C11.4478 18 11 18.4478 11 19.0001C11 19.5525 11.4478 20.0002 12.0001 20.0002Z" stroke="#3D3D3D" stroke-width="1.99996" stroke-linecap="round" stroke-linejoin="round"/>
</svg>
