<svg width="13" height="12" viewBox="0 0 13 12" fill="none" xmlns="http://www.w3.org/2000/svg">
<path d="M7.9043 1.00195H3.4043C3.13908 1.00195 2.88473 1.10731 2.69719 1.29485C2.50965 1.48238 2.4043 1.73674 2.4043 2.00195V10.002C2.4043 10.2672 2.50965 10.5215 2.69719 10.7091C2.88473 10.8966 3.13908 11.002 3.4043 11.002H9.4043C9.66951 11.002 9.92387 10.8966 10.1114 10.7091C10.2989 10.5215 10.4043 10.2672 10.4043 10.002V3.50195L7.9043 1.00195Z" stroke="#7B738C" stroke-linecap="round" stroke-linejoin="round"/>
<path d="M7.4043 1.00195V3.00195C7.4043 3.26717 7.50965 3.52152 7.69719 3.70906C7.88473 3.8966 8.13908 4.00195 8.4043 4.00195H10.4043" stroke="#7B738C" stroke-linecap="round" stroke-linejoin="round"/>
</svg>
