<svg width="24" height="24" viewBox="0 0 24 24" fill="none" xmlns="http://www.w3.org/2000/svg">
<path d="M12.0002 7.50194C11.1102 7.50194 10.2401 7.76586 9.50011 8.26032C8.76009 8.75479 8.18331 9.45759 7.84272 10.2799C7.50213 11.1021 7.41301 12.0069 7.58664 12.8798C7.76028 13.7528 8.18886 14.5546 8.8182 15.1839C9.44753 15.8133 10.2494 16.2418 11.1223 16.4155C11.9952 16.5891 12.9 16.5 13.7223 16.1594C14.5445 15.8188 15.2473 15.242 15.7418 14.502C16.2363 13.762 16.5002 12.892 16.5002 12.0019C16.4989 10.8088 16.0244 9.66497 15.1808 8.82133C14.3371 7.97768 13.1933 7.50318 12.0002 7.50194ZM12.0002 15.0019C11.4068 15.0019 10.8268 14.826 10.3335 14.4963C9.84012 14.1667 9.4556 13.6982 9.22854 13.15C9.00148 12.6018 8.94207 11.9986 9.05782 11.4167C9.17358 10.8347 9.4593 10.3002 9.87886 9.88062C10.2984 9.46106 10.833 9.17534 11.4149 9.05958C11.9969 8.94382 12.6 9.00323 13.1482 9.2303C13.6964 9.45736 14.1649 9.84188 14.4946 10.3352C14.8242 10.8286 15.0002 11.4086 15.0002 12.0019C15.0002 12.7976 14.6841 13.5606 14.1215 14.1233C13.5589 14.6859 12.7958 15.0019 12.0002 15.0019ZM22.3071 10.0529C22.2862 9.94726 22.2428 9.84738 22.1799 9.76003C22.1169 9.67267 22.0359 9.59989 21.9424 9.54662L19.1458 7.95287L19.1346 4.801C19.1342 4.69245 19.1103 4.58527 19.0645 4.48685C19.0187 4.38844 18.9521 4.30115 18.8692 4.231C17.8548 3.3729 16.6866 2.71531 15.4267 2.29319C15.3275 2.2596 15.2224 2.24718 15.1181 2.2567C15.0138 2.26623 14.9126 2.2975 14.8211 2.3485L12.0002 3.92537L9.17643 2.34569C9.08488 2.2944 8.9836 2.26289 8.87911 2.2532C8.77463 2.24352 8.66928 2.25586 8.56987 2.28944C7.31094 2.71465 6.14408 3.37475 5.13112 4.23475C5.0484 4.3048 4.98185 4.39194 4.93604 4.49018C4.89024 4.58842 4.86628 4.69542 4.8658 4.80381L4.85174 7.9585L2.05518 9.55225C1.96162 9.60551 1.88062 9.6783 1.81769 9.76565C1.75476 9.85301 1.71138 9.95288 1.69049 10.0585C1.43455 11.3446 1.43455 12.6686 1.69049 13.9547C1.71138 14.0604 1.75476 14.1602 1.81769 14.2476C1.88062 14.335 1.96162 14.4077 2.05518 14.461L4.85174 16.0547L4.86299 19.2066C4.86333 19.3152 4.88723 19.4224 4.93304 19.5208C4.97884 19.6192 5.04547 19.7065 5.1283 19.7766C6.14275 20.6347 7.31095 21.2923 8.5708 21.7144C8.67002 21.748 8.77517 21.7604 8.87947 21.7509C8.98378 21.7414 9.08494 21.7101 9.17643 21.6591L12.0002 20.0785L14.8239 21.6582C14.9357 21.7204 15.0616 21.7527 15.1896 21.7519C15.2715 21.7519 15.3528 21.7386 15.4305 21.7126C16.6893 21.2879 17.8561 20.6285 18.8692 19.7691C18.952 19.6991 19.0185 19.6119 19.0643 19.5137C19.1101 19.4155 19.1341 19.3085 19.1346 19.2001L19.1486 16.0454L21.9452 14.4516C22.0387 14.3984 22.1197 14.3256 22.1827 14.2382C22.2456 14.1509 22.289 14.051 22.3099 13.9454C22.5644 12.6603 22.5634 11.3376 22.3071 10.0529ZM20.9008 13.3257L18.2224 14.8491C18.105 14.9159 18.0078 15.013 17.9411 15.1304C17.8867 15.2241 17.8296 15.3235 17.7714 15.4172C17.697 15.5355 17.6574 15.6722 17.6571 15.8119L17.643 18.8354C16.9231 19.4007 16.121 19.8528 15.2646 20.176L12.5627 18.6704C12.4505 18.6083 12.3243 18.576 12.1961 18.5766H12.1783C12.0649 18.5766 11.9505 18.5766 11.8371 18.5766C11.7029 18.5733 11.5702 18.6056 11.4527 18.6704L8.74893 20.1797C7.89066 19.8591 7.08639 19.4092 6.36393 18.8457L6.35362 15.8269C6.35315 15.687 6.31354 15.5499 6.23924 15.4313C6.18112 15.3376 6.12393 15.2438 6.07049 15.1444C6.00423 15.0253 5.90707 14.9262 5.78924 14.8576L3.10799 13.3304C2.96924 12.4527 2.96924 11.5587 3.10799 10.681L5.78174 9.15475C5.89909 9.08802 5.99626 8.99085 6.06299 8.8735C6.11737 8.77975 6.17455 8.68037 6.23268 8.58662C6.30708 8.4684 6.34672 8.33162 6.34705 8.19194L6.36112 5.1685C7.08105 4.60314 7.88311 4.15105 8.73955 3.82787L11.4377 5.3335C11.5551 5.39859 11.6878 5.43096 11.8221 5.42725C11.9355 5.42725 12.0499 5.42725 12.1633 5.42725C12.2975 5.4306 12.4301 5.39825 12.5477 5.3335L15.2514 3.82412C16.1097 4.14482 16.914 4.59469 17.6364 5.15819L17.6467 8.17694C17.6472 8.3169 17.6868 8.45394 17.7611 8.57256C17.8192 8.66631 17.8764 8.76006 17.9299 8.85944C17.9961 8.9786 18.0933 9.07771 18.2111 9.14631L20.8924 10.6735C21.033 11.5518 21.0345 12.4468 20.8971 13.3257H20.9008Z" fill="#2B2C30"/>
</svg>
