<svg width="14" height="12" viewBox="0 0 14 12" fill="none" xmlns="http://www.w3.org/2000/svg">
<path d="M9.917 5.1276C10.7224 5.1276 11.3753 4.47469 11.3753 3.66927C11.3753 2.86386 10.7224 2.21094 9.917 2.21094M12.8337 9.5026C12.8337 7.89177 11.5278 6.58594 9.91699 6.58594" stroke="white"/>
<path d="M4.08365 5.1276C3.27823 5.1276 2.62532 4.47469 2.62532 3.66927C2.62532 2.86386 3.27823 2.21094 4.08365 2.21094M1.16699 9.5026C1.16699 7.89177 2.47283 6.58594 4.08366 6.58594" stroke="white"/>
<path d="M9.04232 3.3776C9.04232 4.50519 8.12823 5.41927 7.00065 5.41927C5.87307 5.41927 4.95898 4.50519 4.95898 3.3776C4.95898 2.25002 5.87307 1.33594 7.00065 1.33594C8.12823 1.33594 9.04232 2.25002 9.04232 3.3776Z" stroke="white"/>
<path d="M2.91699 10.6699H11.0837C11.0837 8.73693 9.25549 7.16992 7.00033 7.16992C4.74516 7.16992 2.91699 8.73693 2.91699 10.6699Z" stroke="white"/>
</svg>
