<svg width="16" height="16" viewBox="0 0 16 16" fill="none" xmlns="http://www.w3.org/2000/svg">
<path d="M15.5702 6.95994C15.5698 6.95957 15.5695 6.95921 15.5691 6.95884L9.04171 0.431685C8.76348 0.153336 8.39357 0 8.0001 0C7.60663 0 7.23672 0.153214 6.95837 0.431563L0.434387 6.95542C0.432189 6.95762 0.429992 6.95994 0.427794 6.96214C-0.143553 7.53678 -0.142576 8.46913 0.430602 9.0423C0.69247 9.30429 1.03833 9.45604 1.40812 9.47191C1.42314 9.47338 1.43827 9.47411 1.45353 9.47411H1.71369V14.2777C1.71369 15.2282 2.48709 16.0016 3.43787 16.0016H5.99159C6.25041 16.0016 6.46039 15.7918 6.46039 15.5328V11.7668C6.46039 11.3331 6.81321 10.9802 7.24697 10.9802H8.75323C9.18699 10.9802 9.53981 11.3331 9.53981 11.7668V15.5328C9.53981 15.7918 9.74967 16.0016 10.0086 16.0016H12.5623C13.5131 16.0016 14.2865 15.2282 14.2865 14.2777V9.47411H14.5277C14.9211 9.47411 15.291 9.3209 15.5695 9.04255C16.1433 8.46839 16.1435 7.53446 15.5702 6.95994Z" fill="black"/>
</svg>
