<svg width="20" height="20" viewBox="0 0 20 20" fill="none" xmlns="http://www.w3.org/2000/svg">
<g clip-path="url(#clip0_818_92121)">
<path d="M19.9766 1.49304C19.9333 0.698589 19.3014 0.0668311 18.507 0.0234718C16.9039 -0.0641064 13.767 0.021089 10.7675 1.57253C9.23841 2.36347 7.62122 3.70445 6.33063 5.25164C6.31474 5.2707 6.29927 5.28988 6.28349 5.30898L3.35458 5.53523C2.87247 5.57249 2.44306 5.82519 2.17642 6.22847L0.178213 9.25082C-0.0240137 9.55667 -0.0561621 9.93945 0.0921582 10.2747C0.240518 10.61 0.545361 10.8437 0.907666 10.8998L3.37528 11.282C3.36657 11.33 3.35782 11.3779 3.34981 11.4259C3.26767 11.9173 3.43048 12.4225 3.7854 12.7774L7.22259 16.2146C7.51685 16.5089 7.91446 16.6711 8.32188 16.6711C8.40579 16.6711 8.49017 16.6642 8.57415 16.6502C8.62212 16.6422 8.67005 16.6334 8.71802 16.6247L9.1002 19.0924C9.15634 19.4547 9.39001 19.7596 9.72524 19.9079C9.86474 19.9696 10.0124 20.0001 10.1593 20.0001C10.3657 20 10.5706 19.94 10.7492 19.8219L13.7715 17.8236C14.1749 17.5569 14.4275 17.1275 14.4647 16.6455L14.6909 13.7166C14.71 13.7008 14.7293 13.6853 14.7483 13.6694C16.2956 12.3789 17.6366 10.7617 18.4275 9.23253C19.979 6.23289 20.064 3.09597 19.9766 1.49304ZM13.1252 16.8461L10.2342 18.7575L9.86169 16.3526C11.0836 15.9934 12.2923 15.418 13.4438 14.6471L13.2964 16.5552C13.2872 16.6742 13.2248 16.7802 13.1252 16.8461ZM8.05122 15.386L4.61399 11.9488C4.5263 11.8611 4.48575 11.7378 4.50563 11.6191C4.60782 11.008 4.76661 10.4264 4.96317 9.87839L10.1205 15.0357C9.46239 15.2715 8.8729 15.4121 8.38091 15.4944C8.262 15.5141 8.13892 15.4737 8.05122 15.386ZM3.44485 6.70363L5.35282 6.55624C4.58196 7.70777 4.00657 8.91648 3.64731 10.1384L1.24247 9.76589L3.15395 6.8748C3.21981 6.77519 3.32587 6.71281 3.44485 6.70363ZM13.9978 12.7695C13.0512 13.5591 12.1323 14.1302 11.2854 14.5434L5.45642 8.71445C5.99774 7.60882 6.65841 6.68816 7.23052 6.0023C8.42485 4.57046 9.91028 3.33527 11.3059 2.61339C14.0588 1.18945 16.9593 1.11277 18.4432 1.19355C18.6396 1.20425 18.7958 1.36046 18.8065 1.55691C18.8874 3.04082 18.8106 5.94121 17.3866 8.69414C16.6648 10.0898 15.4296 11.5752 13.9978 12.7695Z" fill="black"/>
<path d="M13.6991 9.22801C14.4492 9.22793 15.1996 8.94238 15.7707 8.37133C16.324 7.81801 16.6287 7.0823 16.6287 6.29981C16.6287 5.51731 16.324 4.7816 15.7707 4.22828C14.6284 3.08598 12.7698 3.08605 11.6276 4.22828C11.0743 4.7816 10.7695 5.51731 10.7695 6.29981C10.7695 7.0823 11.0743 7.81801 11.6276 8.37133C12.1988 8.9425 12.9488 9.22809 13.6991 9.22801ZM12.4562 5.05688C12.7988 4.71418 13.2489 4.54285 13.6991 4.54285C14.1492 4.54285 14.5993 4.71418 14.942 5.05688C15.274 5.38887 15.4568 5.83027 15.4568 6.29977C15.4568 6.76926 15.274 7.2107 14.942 7.5427C14.2567 8.22805 13.1415 8.22801 12.4561 7.5427C12.1241 7.2107 11.9413 6.7693 11.9413 6.29981C11.9413 5.83031 12.1242 5.38887 12.4562 5.05688Z" fill="black"/>
<path d="M0.597637 16.4819C0.747598 16.4819 0.897559 16.4247 1.01193 16.3102L2.92494 14.3972C3.15377 14.1684 3.15377 13.7974 2.92494 13.5686C2.69615 13.3398 2.32514 13.3398 2.09631 13.5686L0.18334 15.4816C-0.0454883 15.7104 -0.0454883 16.0814 0.18334 16.3102C0.297715 16.4246 0.447676 16.4819 0.597637 16.4819Z" fill="black"/>
<path d="M4.67814 15.322C4.44936 15.0932 4.07834 15.0932 3.84951 15.322L0.171621 18.9999C-0.057207 19.2288 -0.057207 19.5997 0.171621 19.8286C0.286035 19.943 0.435957 20.0002 0.585918 20.0002C0.735879 20.0002 0.88584 19.943 1.00021 19.8285L4.67811 16.1506C4.90697 15.9218 4.90697 15.5508 4.67814 15.322Z" fill="black"/>
<path d="M5.60025 17.0749L3.68725 18.9879C3.45842 19.2168 3.45842 19.5878 3.68725 19.8166C3.80166 19.931 3.95162 19.9882 4.10154 19.9882C4.25146 19.9882 4.40146 19.931 4.51584 19.8166L6.42885 17.9036C6.65768 17.6747 6.65768 17.3038 6.42885 17.0749C6.20006 16.8461 5.82904 16.8461 5.60025 17.0749Z" fill="black"/>
</g>
<defs>
<clipPath id="clip0_818_92121">
<rect width="20" height="20" fill="white"/>
</clipPath>
</defs>
</svg>
