<svg width="10" height="10" viewBox="0 0 10 10" fill="none" xmlns="http://www.w3.org/2000/svg">
<path d="M4.16667 7.91667C4.16667 8.08148 4.11779 8.2426 4.02623 8.37964C3.93466 8.51668 3.80451 8.62349 3.65224 8.68657C3.49996 8.74964 3.33241 8.76614 3.17076 8.73399C3.00911 8.70183 2.86062 8.62247 2.74408 8.50592C2.62753 8.38938 2.54817 8.24089 2.51601 8.07924C2.48386 7.91759 2.50036 7.75004 2.56343 7.59776C2.62651 7.44549 2.73332 7.31534 2.87036 7.22378C3.0074 7.13221 3.16852 7.08333 3.33333 7.08333C3.55435 7.08333 3.76631 7.17113 3.92259 7.32741C4.07887 7.48369 4.16667 7.69565 4.16667 7.91667ZM3.33333 4.16667C3.16852 4.16667 3.0074 4.21554 2.87036 4.30711C2.73332 4.39868 2.62651 4.52883 2.56343 4.6811C2.50036 4.83337 2.48386 5.00092 2.51601 5.16258C2.54817 5.32423 2.62753 5.47271 2.74408 5.58926C2.86062 5.7058 3.00911 5.78517 3.17076 5.81732C3.33241 5.84948 3.49996 5.83297 3.65224 5.7699C3.80451 5.70683 3.93466 5.60002 4.02623 5.46298C4.11779 5.32593 4.16667 5.16482 4.16667 5C4.16667 4.77899 4.07887 4.56702 3.92259 4.41074C3.76631 4.25446 3.55435 4.16667 3.33333 4.16667ZM3.33333 1.25C3.16852 1.25 3.0074 1.29887 2.87036 1.39044C2.73332 1.48201 2.62651 1.61216 2.56343 1.76443C2.50036 1.9167 2.48386 2.08426 2.51601 2.24591C2.54817 2.40756 2.62753 2.55605 2.74408 2.67259C2.86062 2.78913 3.00911 2.8685 3.17076 2.90065C3.33241 2.93281 3.49996 2.91631 3.65224 2.85323C3.80451 2.79016 3.93466 2.68335 4.02623 2.54631C4.11779 2.40927 4.16667 2.24815 4.16667 2.08333C4.16667 1.86232 4.07887 1.65036 3.92259 1.49408C3.76631 1.3378 3.55435 1.25 3.33333 1.25ZM6.66667 7.08333C6.50185 7.08333 6.34073 7.13221 6.20369 7.22378C6.06665 7.31534 5.95984 7.44549 5.89677 7.59776C5.83369 7.75004 5.81719 7.91759 5.84935 8.07924C5.8815 8.24089 5.96087 8.38938 6.07741 8.50592C6.19396 8.62247 6.34244 8.70183 6.50409 8.73399C6.66574 8.76614 6.8333 8.74964 6.98557 8.68657C7.13784 8.62349 7.26799 8.51668 7.35956 8.37964C7.45113 8.2426 7.5 8.08148 7.5 7.91667C7.5 7.69565 7.4122 7.48369 7.25592 7.32741C7.09964 7.17113 6.88768 7.08333 6.66667 7.08333ZM6.66667 4.16667C6.50185 4.16667 6.34073 4.21554 6.20369 4.30711C6.06665 4.39868 5.95984 4.52883 5.89677 4.6811C5.83369 4.83337 5.81719 5.00092 5.84935 5.16258C5.8815 5.32423 5.96087 5.47271 6.07741 5.58926C6.19396 5.7058 6.34244 5.78517 6.50409 5.81732C6.66574 5.84948 6.8333 5.83297 6.98557 5.7699C7.13784 5.70683 7.26799 5.60002 7.35956 5.46298C7.45113 5.32593 7.5 5.16482 7.5 5C7.5 4.77899 7.4122 4.56702 7.25592 4.41074C7.09964 4.25446 6.88768 4.16667 6.66667 4.16667ZM6.66667 1.25C6.50185 1.25 6.34073 1.29887 6.20369 1.39044C6.06665 1.48201 5.95984 1.61216 5.89677 1.76443C5.83369 1.9167 5.81719 2.08426 5.84935 2.24591C5.8815 2.40756 5.96087 2.55605 6.07741 2.67259C6.19396 2.78913 6.34244 2.8685 6.50409 2.90065C6.66574 2.93281 6.8333 2.91631 6.98557 2.85323C7.13784 2.79016 7.26799 2.68335 7.35956 2.54631C7.45113 2.40927 7.5 2.24815 7.5 2.08333C7.5 1.86232 7.4122 1.65036 7.25592 1.49408C7.09964 1.3378 6.88768 1.25 6.66667 1.25Z" fill="#2B2C30"/>
</svg>
