<svg width="20" height="20" viewBox="0 0 20 20" fill="none" xmlns="http://www.w3.org/2000/svg">
<g clip-path="url(#clip0_818_92128)">
<path d="M18.8281 4.72656V3.55469H11.657C11.4802 3.05609 11.0845 2.66043 10.5859 2.48359V0H9.41406V2.48359C8.91547 2.66043 8.5198 3.05609 8.34297 3.55469H1.17188V4.72656H2.63672L0 11.0547V11.1719C0 12.7873 1.31426 14.1016 2.92969 14.1016H4.10156C5.71699 14.1016 7.03125 12.7873 7.03125 11.1719V11.0547L4.39453 4.72656H8.34297C8.5198 5.22516 8.91547 5.62082 9.41406 5.79766V14.1996C8.25129 14.4366 7.33754 15.3647 7.12031 16.5344C5.76008 16.787 4.72656 17.9817 4.72656 19.4141V20H15.2735V19.4141C15.2735 17.9817 14.24 16.787 12.8797 16.5344C12.6625 15.3646 11.7487 14.4365 10.5859 14.1996V5.79766C11.0845 5.62082 11.4802 5.22516 11.657 4.72656H15.6055L12.9688 11.0547V11.1719C12.9688 12.7873 14.283 14.1016 15.8984 14.1016H17.0703C18.6857 14.1016 20 12.7873 20 11.1719V11.0547L17.3633 4.72656H18.8281ZM3.51562 5.66406L5.56641 10.5859H1.46484L3.51562 5.66406ZM4.10156 12.9297H2.92969C2.16586 12.9297 1.51453 12.4398 1.27266 11.7574H5.75859C5.51672 12.4398 4.86539 12.9297 4.10156 12.9297ZM16.4844 5.66406L18.5352 10.5859H14.4336L16.4844 5.66406ZM17.0703 12.9297H15.8984C15.1346 12.9297 14.4833 12.4398 14.2414 11.7574H18.7273C18.4855 12.4398 17.8341 12.9297 17.0703 12.9297ZM14.0012 18.8281H5.99883C6.24066 18.1461 6.89234 17.6562 7.65625 17.6562H12.3438C13.1077 17.6562 13.7593 18.1461 14.0012 18.8281ZM11.657 16.4844H8.34297C8.58484 15.8024 9.23617 15.3125 10 15.3125C10.7639 15.3125 11.4152 15.8024 11.657 16.4844ZM10 4.72656C9.67691 4.72656 9.41406 4.46371 9.41406 4.14062C9.41406 3.81754 9.67691 3.55469 10 3.55469C10.3231 3.55469 10.5859 3.81754 10.5859 4.14062C10.5859 4.46371 10.3231 4.72656 10 4.72656Z" fill="black"/>
</g>
<defs>
<clipPath id="clip0_818_92128">
<rect width="20" height="20" fill="white"/>
</clipPath>
</defs>
</svg>
