<svg width="22" height="22" viewBox="0 0 22 22" fill="none" xmlns="http://www.w3.org/2000/svg">
<path d="M2.52066 16.4999H13.979C14.1532 16.4999 14.3209 16.5661 14.4481 16.685C14.5754 16.8039 14.6528 16.9667 14.6647 17.1405C14.6766 17.3143 14.622 17.4861 14.5121 17.6212C14.4022 17.7563 14.2451 17.8447 14.0725 17.8684L13.979 17.8749H2.52066C2.34524 17.8766 2.17576 17.8113 2.04695 17.6922C1.91813 17.5731 1.83972 17.4092 1.82777 17.2342C1.81582 17.0592 1.87124 16.8862 1.98267 16.7507C2.0941 16.6152 2.25312 16.5274 2.42716 16.5054L2.52066 16.4999ZM2.52066 10.5415H19.479C19.6532 10.5416 19.8209 10.6077 19.9481 10.7267C20.0754 10.8456 20.1528 11.0084 20.1647 11.1822C20.1766 11.3559 20.122 11.5278 20.0121 11.6629C19.9022 11.798 19.7451 11.8864 19.5725 11.9101L19.479 11.9165H2.52066C2.34648 11.9165 2.1788 11.8503 2.05152 11.7314C1.92424 11.6125 1.84685 11.4497 1.83497 11.2759C1.8231 11.1021 1.87764 10.9303 1.98756 10.7952C2.09748 10.66 2.2546 10.5717 2.42716 10.5479L2.52066 10.5415ZM2.52066 4.58594H16.729C16.9032 4.58599 17.0709 4.65216 17.1981 4.77108C17.3254 4.89 17.4028 5.05279 17.4147 5.22658C17.4266 5.40036 17.372 5.57217 17.2621 5.70729C17.1522 5.84242 16.9951 5.93078 16.8225 5.95452L16.729 5.96094H2.52066C2.34648 5.96088 2.1788 5.89471 2.05152 5.7758C1.92424 5.65688 1.84685 5.49408 1.83497 5.3203C1.8231 5.14651 1.87764 4.9747 1.98756 4.83958C2.09748 4.70446 2.2546 4.6161 2.42716 4.59235L2.52066 4.58594Z" fill="#2B2C30"/>
</svg>
