
    <svg width="20" height="20" viewBox="0 0 20 20" fill="none" xmlns="http://www.w3.org/2000/svg">
        <path fill-rule="evenodd" clip-rule="evenodd"
            d="M12.709 9.16667V10.8333C12.709 12.0992 13.7348 13.125 15.0007 13.125H16.6673C17.9332 13.125 18.959 12.0992 18.959 10.8333V9.16667C18.959 7.90083 17.9332 6.875 16.6673 6.875H15.0007C13.7348 6.875 12.709 7.90083 12.709 9.16667ZM13.959 9.16667C13.959 8.59167 14.4257 8.125 15.0007 8.125H16.6673C17.2423 8.125 17.709 8.59167 17.709 9.16667V10.8333C17.709 11.4083 17.2423 11.875 16.6673 11.875H15.0007C14.4257 11.875 13.959 11.4083 13.959 10.8333V9.16667Z"
            fill="black" />
        <path fill-rule="evenodd" clip-rule="evenodd"
            d="M1.04199 3.33268V4.99935C1.04199 6.26518 2.06783 7.29102 3.33366 7.29102H5.00033C6.26616 7.29102 7.29199 6.26518 7.29199 4.99935V3.33268C7.29199 2.06685 6.26616 1.04102 5.00033 1.04102H3.33366C2.06783 1.04102 1.04199 2.06685 1.04199 3.33268ZM2.29199 3.33268C2.29199 2.75768 2.75866 2.29102 3.33366 2.29102H5.00033C5.57533 2.29102 6.04199 2.75768 6.04199 3.33268V4.99935C6.04199 5.57435 5.57533 6.04102 5.00033 6.04102H3.33366C2.75866 6.04102 2.29199 5.57435 2.29199 4.99935V3.33268Z"
            fill="black" />
        <path fill-rule="evenodd" clip-rule="evenodd"
            d="M1.04199 14.9987V16.6654C1.04199 17.9312 2.06783 18.957 3.33366 18.957H5.00033C6.26616 18.957 7.29199 17.9312 7.29199 16.6654V14.9987C7.29199 13.7329 6.26616 12.707 5.00033 12.707H3.33366C2.06783 12.707 1.04199 13.7329 1.04199 14.9987ZM2.29199 14.9987C2.29199 14.4237 2.75866 13.957 3.33366 13.957H5.00033C5.57533 13.957 6.04199 14.4237 6.04199 14.9987V16.6654C6.04199 17.2404 5.57533 17.707 5.00033 17.707H3.33366C2.75866 17.707 2.29199 17.2404 2.29199 16.6654V14.9987Z"
            fill="black" />
        <path fill-rule="evenodd" clip-rule="evenodd"
            d="M4.13449 13.9575L4.16699 13.9583L4.19366 13.955C4.31366 13.9383 4.79199 13.8367 4.79199 13.3225V12.5C4.79199 12.0025 4.98949 11.5258 5.34116 11.1742C5.69283 10.8225 6.16949 10.625 6.66699 10.625H13.3337C13.6787 10.625 13.9587 10.345 13.9587 10C13.9587 9.655 13.6787 9.375 13.3337 9.375H6.66699C5.83783 9.375 5.04366 9.70417 4.45699 10.29C3.87116 10.8767 3.54199 11.6708 3.54199 12.5V13.3225V13.3275V13.3333C3.54199 13.3767 3.54616 13.4192 3.55533 13.46C3.57199 13.5492 3.60533 13.6225 3.64866 13.6825C3.75533 13.8408 3.93283 13.9475 4.13449 13.9575Z"
            fill="black" />
        <path fill-rule="evenodd" clip-rule="evenodd"
            d="M15.8012 8.12352L15.8337 8.12435L15.8603 8.12102C15.9803 8.10435 16.4587 8.00268 16.4587 7.48852C16.4587 7.42685 16.4587 7.09685 16.4587 6.66602C16.4587 5.83685 16.1295 5.04268 15.5437 4.45602C14.957 3.87018 14.1628 3.54102 13.3337 3.54102H6.66699C6.32199 3.54102 6.04199 3.82102 6.04199 4.16602C6.04199 4.51102 6.32199 4.79102 6.66699 4.79102H13.3337C13.8312 4.79102 14.3078 4.98852 14.6595 5.34018C15.0112 5.69185 15.2087 6.16852 15.2087 6.66602V7.48852V7.49352V7.49935C15.2087 7.54268 15.2128 7.58518 15.222 7.62602C15.2387 7.71518 15.272 7.78852 15.3153 7.84852C15.422 8.00685 15.5995 8.11352 15.8012 8.12352Z"
            fill="black" />
        <path fill-rule="evenodd" clip-rule="evenodd"
            d="M6.66699 16.4575H12.5003C12.7528 16.4575 12.9812 16.305 13.0778 16.0716C13.1745 15.8383 13.1212 15.5691 12.942 15.3908L11.2753 13.7241C11.032 13.48 10.6353 13.48 10.392 13.7241C10.1478 13.9675 10.1478 14.3641 10.392 14.6075L10.9912 15.2075H6.66699C6.32199 15.2075 6.04199 15.4875 6.04199 15.8325C6.04199 16.1775 6.32199 16.4575 6.66699 16.4575Z"
            fill="black" />
        <path fill-rule="evenodd" clip-rule="evenodd"
            d="M12.0588 15.3902L10.3921 17.0568C10.1479 17.3002 10.1479 17.6968 10.3921 17.9402C10.6354 18.1843 11.0321 18.1843 11.2754 17.9402L12.9421 16.2735C13.1863 16.0302 13.1863 15.6335 12.9421 15.3902C12.6988 15.146 12.3021 15.146 12.0588 15.3902Z"
            fill="black" />
    </svg>

