<svg width="42" height="44" viewBox="0 0 42 44" fill="none" xmlns="http://www.w3.org/2000/svg">
<rect width="42" height="44" rx="10" fill="#F0F2F3"/>
<rect width="42" height="44" rx="10" fill="white"/>
<path d="M21.9999 13.7513C20.481 13.7513 19.2498 14.9825 19.2498 16.5013V20.168C19.2498 21.6868 20.481 22.918 21.9999 22.918C23.5186 22.918 24.7499 21.6868 24.7499 20.168V16.5013C24.7499 14.9825 23.5186 13.7513 21.9999 13.7513ZM21.9999 11.918C24.5311 11.918 26.5832 13.97 26.5832 16.5013V20.168C26.5832 22.6993 24.5311 24.7513 21.9999 24.7513C19.4685 24.7513 17.4165 22.6993 17.4165 20.168V16.5013C17.4165 13.97 19.4685 11.918 21.9999 11.918ZM13.8002 21.0846H15.6481C16.0929 24.1942 18.7672 26.5846 21.9999 26.5846C25.2324 26.5846 27.9067 24.1942 28.3515 21.0846H30.1994C29.7768 24.9086 26.7405 27.9449 22.9165 28.3676V32.0846H21.0832V28.3676C17.2592 27.9449 14.2229 24.9086 13.8002 21.0846Z" fill="black"/>
</svg>
