<svg width="20" height="20" viewBox="0 0 20 20" fill="none" xmlns="http://www.w3.org/2000/svg">
<g clip-path="url(#clip0_18145_32352)">
<path d="M19.681 10.6526C19.6793 10.6517 19.6778 10.6507 19.6761 10.6498L15.2747 8.46736V2.93189C15.2747 2.71386 15.1522 2.5115 14.9567 2.41103C14.9547 2.40997 14.9528 2.4088 14.9508 2.40778L10.2629 0.0638334C10.0979 -0.0186736 9.90378 -0.0186736 9.7388 0.0638334L5.0509 2.40778C5.04887 2.4088 5.04699 2.40997 5.045 2.41099C4.84463 2.514 4.72697 2.71972 4.72697 2.93189V8.46733L0.325653 10.6498C0.323309 10.651 0.321082 10.6524 0.318777 10.6535C0.311863 10.6571 0.305065 10.6608 0.298307 10.6646C0.112353 10.7694 0 10.9664 0 11.1748V17.0347C0 17.2559 0.12462 17.4583 0.322215 17.5579L5.04918 19.9409C5.0509 19.9418 5.0527 19.9423 5.05442 19.9432C5.21533 20.0224 5.40597 20.0255 5.57348 19.9422C5.57512 19.9414 5.57684 19.9408 5.57849 19.94L10.0009 17.692L14.4232 19.9401C14.4247 19.9408 14.4264 19.9413 14.4278 19.9421C14.5868 20.0212 14.7777 20.0268 14.9475 19.9432C14.9491 19.9423 14.9508 19.9418 14.9525 19.941L19.6795 17.558C19.8771 17.4584 20.0017 17.256 20.0017 17.0347V11.1748C20.0017 10.9609 19.8835 10.7555 19.681 10.6526ZM4.72697 18.466L1.17198 16.6738V12.1194L4.72697 13.8822V18.466ZM5.31186 12.8641L1.90505 11.1748L5.31186 9.48546L8.69055 11.1748L5.31186 12.8641ZM9.41487 16.6752L5.89894 18.4625V13.8809L9.41487 12.123V16.6752ZM9.41487 10.2267L5.89894 8.46869V3.88006L9.41487 5.63802V10.2267ZM6.62326 2.93189L10.0009 1.24311L13.3784 2.93189L10.0009 4.62071L6.62326 2.93189ZM14.1028 3.88006V8.46869L10.5868 10.2267V5.63802L14.1028 3.88006ZM14.1028 18.4625L10.5868 16.6752V12.123L14.1028 13.8809V18.4625ZM14.6898 12.8641L11.3112 11.1748L14.6898 9.48546L18.0967 11.1748L14.6898 12.8641ZM18.8297 16.6738L15.2747 18.466V13.8822L18.8297 12.1194V16.6738Z" fill="black"/>
</g>
<defs>
<clipPath id="clip0_18145_32352">
<rect width="20.0017" height="20.0017" fill="white" transform="translate(0 0.00195312)"/>
</clipPath>
</defs>
</svg>
