
    <svg width="20" height="20" viewBox="0 0 20 20" fill="none" xmlns="http://www.w3.org/2000/svg">
        <g clip-path="url(#clip0_18145_42333)">
            <path
                d="M8.0619 3.16045L7.52744 1.69205C7.37989 1.28654 6.93142 1.0775 6.52603 1.22505C6.12053 1.37264 5.91148 1.821 6.05904 2.22647L6.5935 3.69487C6.74085 4.09975 7.18878 4.30965 7.59491 4.16187C8.00037 4.01428 8.20945 3.56592 8.0619 3.16045Z"
                fill="black" />
            <path
                d="M13.4738 1.22506C13.0683 1.07747 12.62 1.28659 12.4724 1.69206L11.9379 3.16046C11.7904 3.56593 11.9994 4.01429 12.4049 4.16188C12.8112 4.30974 13.259 4.09961 13.4063 3.69488L13.9408 2.22648C14.0884 1.82101 13.8793 1.37265 13.4738 1.22506Z"
                fill="black" />
            <path
                d="M10.0001 3.73855C10.4316 3.73855 10.7814 3.38875 10.7814 2.95723V1.3946C10.7814 0.963077 10.4316 0.613281 10.0001 0.613281C9.56855 0.613281 9.21875 0.963077 9.21875 1.3946V2.95723C9.21875 3.38871 9.56855 3.73855 10.0001 3.73855Z"
                fill="black" />
            <path
                d="M17.6578 6.86302H15.783C15.3087 6.86302 14.8279 6.64324 14.3541 6.20968C12.9764 4.9493 10.8623 4.99692 9.54101 6.31809L6.69682 9.16228C5.78292 10.0762 5.78292 11.5632 6.69682 12.4771C7.61284 13.3931 9.09554 13.3933 10.0117 12.4771L12.097 10.3919C12.4021 10.0867 12.4021 9.59204 12.097 9.28694C11.7918 8.9818 11.2971 8.9818 10.992 9.28694L8.90674 11.3722C8.6014 11.6775 8.10718 11.6775 7.80184 11.3722C7.49717 11.0676 7.49717 10.5719 7.80184 10.2673L10.646 7.42307C11.3744 6.69453 12.5399 6.66793 13.2993 7.36263C14.0595 8.05804 14.9183 8.42565 15.7831 8.42565H17.6578C18.0886 8.42565 18.4391 8.77615 18.4391 9.20697V13.8949C18.4391 14.3257 18.0886 14.6762 17.6578 14.6762H15.3916C15.7608 13.8199 15.5968 12.7868 14.8983 12.0883L14.3067 11.4966C14.0015 11.1915 13.5068 11.1915 13.2017 11.4966C12.8966 11.8017 12.8966 12.2964 13.2018 12.6016L13.7934 13.1932C14.0981 13.4978 14.0981 13.9936 13.7935 14.2982L13.1868 14.9048C13.1867 14.905 13.1866 14.905 13.1865 14.9052L10.4786 17.613C10.331 17.7606 10.1348 17.8419 9.92608 17.8419C9.71739 17.8419 9.5212 17.7606 9.37361 17.613L7.58092 15.8203C6.84309 15.0825 5.86206 14.6761 4.81858 14.6761H2.34395C1.91313 14.6761 1.56263 14.3256 1.56263 13.8948V9.20689C1.56263 8.77607 1.91313 8.42558 2.34395 8.42558H3.38029C4.31986 8.42558 5.21736 8.07441 5.9075 7.43678C6.30804 7.06671 6.82894 6.86294 7.37426 6.86294C7.80578 6.86294 8.15558 6.51315 8.15558 6.08162C8.15558 5.6501 7.80578 5.30031 7.37426 5.30031C6.43465 5.30031 5.53715 5.65147 4.84709 6.28906C4.44655 6.65914 3.92561 6.86294 3.38029 6.86294H2.34395C1.0515 6.86294 0 7.91444 0 9.20689V13.8948C0 15.1872 1.0515 16.2387 2.34395 16.2387H4.81858C5.44465 16.2387 6.03329 16.4826 6.47598 16.9253L8.26864 18.7179C8.72559 19.1749 9.32584 19.4034 9.92608 19.4034C10.5263 19.4034 11.1265 19.1749 11.5835 18.7179L14.0627 16.2388H17.6578C18.9502 16.2388 20.0017 15.1873 20.0017 13.8948V9.20693C20.0017 7.91452 18.9502 6.86302 17.6578 6.86302Z"
                fill="black" />
        </g>
        <defs>
            <clipPath id="clip0_18145_42333">
                <rect width="20.0017" height="20.0017" fill="white" transform="translate(0 0.0078125)" />
            </clipPath>
        </defs>
    </svg>

