<svg width="18" height="18" viewBox="0 0 18 18" fill="none" xmlns="http://www.w3.org/2000/svg">
<path d="M9.03125 1C6.70503 1 4.8125 2.89253 4.8125 5.21875C4.8125 7.54497 6.70503 9.4375 9.03125 9.4375C11.3575 9.4375 13.25 7.54497 13.25 5.21875C13.25 2.89253 11.3575 1 9.03125 1ZM9.03125 8.5C7.22197 8.5 5.75 7.02803 5.75 5.21875C5.75 3.40947 7.22197 1.9375 9.03125 1.9375C10.8405 1.9375 12.3125 3.40947 12.3125 5.21875C12.3125 7.02803 10.8405 8.5 9.03125 8.5Z" fill="black" stroke="black" stroke-width="0.4"/>
<path d="M14.2802 12.1936C13.1252 11.0208 11.594 10.375 9.96875 10.375H8.09375C6.4685 10.375 4.93731 11.0208 3.78231 12.1936C2.63297 13.3606 2 14.901 2 16.5312C2 16.7901 2.20987 17 2.46875 17H15.5938C15.8526 17 16.0625 16.7901 16.0625 16.5312C16.0625 14.901 15.4295 13.3606 14.2802 12.1936ZM2.95812 16.0625C3.19297 13.4036 5.40659 11.3125 8.09375 11.3125H9.96875C12.6559 11.3125 14.8695 13.4036 15.1044 16.0625H2.95812Z" fill="black" stroke="black" stroke-width="0.4"/>
</svg>
