<svg width="20" height="20" viewBox="0 0 20 20" fill="none" xmlns="http://www.w3.org/2000/svg">
        <g clip-path="url(#clip0_17957_64055)">
            <path
                d="M19.1685 17.502V15.835C19.1679 15.0963 18.9221 14.3787 18.4695 13.7949C18.0169 13.211 17.3832 12.7941 16.668 12.6094"
                stroke="#3D3D3D" stroke-width="1.66678" stroke-linecap="round" stroke-linejoin="round" />
            <path
                d="M14.1675 17.5004V15.8336C14.1675 14.9495 13.8163 14.1016 13.1911 13.4764C12.5659 12.8512 11.718 12.5 10.8339 12.5H4.16663C3.2825 12.5 2.43458 12.8512 1.8094 13.4764C1.18423 14.1016 0.833008 14.9495 0.833008 15.8336V17.5004"
                stroke="#3D3D3D" stroke-width="1.66678" stroke-linecap="round" stroke-linejoin="round" />
            <path
                d="M13.334 2.60742C14.0511 2.79104 14.6868 3.20813 15.1407 3.79292C15.5946 4.37771 15.841 5.09695 15.841 5.83724C15.841 6.57753 15.5946 7.29676 15.1407 7.88156C14.6868 8.46635 14.0511 8.88343 13.334 9.06705"
                stroke="#3D3D3D" stroke-width="1.66678" stroke-linecap="round" stroke-linejoin="round" />
            <path
                d="M7.50075 9.16801C9.34207 9.16801 10.8348 7.67532 10.8348 5.834C10.8348 3.99268 9.34207 2.5 7.50075 2.5C5.65943 2.5 4.16675 3.99268 4.16675 5.834C4.16675 7.67532 5.65943 9.16801 7.50075 9.16801Z"
                stroke="#3D3D3D" stroke-width="1.66678" stroke-linecap="round" stroke-linejoin="round" />
        </g>
        <defs>
            <clipPath id="clip0_17957_64055">
                <rect width="20.0017" height="20.0017" fill="white" />
            </clipPath>
        </defs>
    </svg>
