<svg width="18" height="18" viewBox="0 0 18 18" fill="none" xmlns="http://www.w3.org/2000/svg">
<path d="M16.6201 1.12552C16.3201 0.900517 15.9226 0.870517 15.5926 1.05052L1.5001 8.73802C1.1851 8.91052 0.9976 9.23302 1.0051 9.59302C1.0126 9.95302 1.2226 10.268 1.5451 10.4255L4.5826 11.888L6.4201 16.703C6.4726 16.8455 6.5851 16.958 6.7201 17.018C6.7951 17.048 6.8701 17.063 6.9451 17.063C7.0126 17.063 7.0876 17.048 7.1551 17.0255L11.5801 15.248L12.8176 15.8405C12.9526 15.9005 13.0876 15.938 13.2301 15.938C13.3726 15.938 13.5151 15.908 13.6501 15.8405C13.9126 15.713 14.1001 15.473 14.1601 15.188L16.9801 2.08552C17.0551 1.71802 16.9201 1.35802 16.6201 1.13302V1.12552ZM13.0351 3.72802L4.9426 10.808L2.3476 9.55552L13.0351 3.72802ZM5.6926 11.648L13.3126 4.98052L7.9876 12.803C7.9876 12.803 7.9501 12.863 7.9426 12.893L6.9826 15.0305L5.6926 11.648ZM8.0251 15.458L8.7301 13.8755L10.2001 14.5805L8.0251 15.4505V15.458ZM13.1026 14.7305L9.2851 12.9005L15.4426 3.84802L13.1026 14.738V14.7305Z" fill="black"/>
</svg>
