<svg width="18" height="18" viewBox="0 0 18 18" fill="none" xmlns="http://www.w3.org/2000/svg">
<path fill-rule="evenodd" clip-rule="evenodd" d="M12.539 5.95377L5.13355 3.96948L5.49747 2.61133L12.9029 4.59561C14.5612 5.03996 15.5453 6.74448 15.101 8.40278C14.6567 10.0611 12.9521 11.0452 11.2939 10.6008L5.4798 9.04296C4.65985 8.82326 3.81706 9.30983 3.59735 10.1298C3.37765 10.9497 3.86424 11.7925 4.68418 12.0123L11.6772 13.886L11.3133 15.2442L4.32026 13.3704C2.75023 12.9497 1.8185 11.3359 2.2392 9.76589C2.65989 8.19588 4.27368 7.26413 5.84371 7.68482L11.6578 9.24269C12.5659 9.48601 13.4995 8.94706 13.7428 8.03889C13.9862 7.13065 13.4473 6.19712 12.539 5.95377Z" fill="#2B2C30"/>
<path fill-rule="evenodd" clip-rule="evenodd" d="M4.13225 2.4262C3.82471 2.34379 3.5086 2.5263 3.4262 2.83383C3.34379 3.14136 3.52631 3.45748 3.83384 3.53988C4.14137 3.62228 4.45748 3.43978 4.53988 3.13224C4.62229 2.8247 4.43978 2.50861 4.13225 2.4262ZM2.06804 2.46991C2.35144 1.41228 3.43856 0.784659 4.49617 1.06805C5.55379 1.35143 6.18143 2.43853 5.89803 3.49615C5.61465 4.55377 4.52756 5.18143 3.46992 4.89803C2.4123 4.61465 1.78466 3.52754 2.06804 2.46991Z" fill="#2B2C30"/>
<path fill-rule="evenodd" clip-rule="evenodd" d="M13.0805 14.4594C12.773 14.377 12.4569 14.5595 12.3745 14.8671C12.292 15.1746 12.4746 15.4906 12.7821 15.573C13.0896 15.6555 13.4058 15.473 13.4881 15.1654C13.5705 14.8579 13.388 14.5418 13.0805 14.4594ZM11.0163 14.5031C11.2997 13.4455 12.3868 12.8179 13.4444 13.1013C14.5021 13.3846 15.1297 14.4717 14.8463 15.5294C14.5629 16.587 13.4758 17.2146 12.4182 16.9312C11.3606 16.6478 10.7329 15.5607 11.0163 14.5031Z" fill="#2B2C30"/>
</svg>
