<svg width="18" height="18" viewBox="0 0 18 18" fill="none" xmlns="http://www.w3.org/2000/svg">
<path d="M16.4 4.10003H12.9V3.40001C12.9 2.6279 12.2721 2 11.5 2H7.29999C6.52788 2 5.89998 2.62787 5.89998 3.40001V4.1H2.40001C1.62787 4.10003 1 4.7279 1 5.50001V14.6C1 15.3721 1.62787 16 2.40001 16H16.4C17.1721 16 17.8 15.3721 17.8 14.6V5.50001C17.8 4.7279 17.1721 4.10003 16.4 4.10003ZM6.60001 3.40001C6.60001 3.01414 6.91412 2.70002 7.29999 2.70002H11.5C11.8859 2.70002 12.2 3.01414 12.2 3.40001V4.1H6.60001V3.40001ZM17.1 14.6C17.1 14.9859 16.7859 15.3 16.4 15.3H2.40001C2.01414 15.3 1.70002 14.9859 1.70002 14.6V9.50533C1.90677 9.62588 2.14388 9.70004 2.40001 9.70004H8.00002V10.75C8.00002 10.9435 8.15656 11.1 8.35003 11.1H10.45C10.6435 11.1 10.8 10.9435 10.8 10.75V9.70004H16.4C16.6562 9.70004 16.8933 9.62591 17.1 9.50533V14.6H17.1ZM8.7 10.4V9.00002H10.1V10.4H8.7ZM17.1 8.30003C17.1 8.6859 16.7859 9.00002 16.4 9.00002H10.8V8.65001C10.8 8.45654 10.6435 8.3 10.45 8.3H8.34999C8.15653 8.3 7.99998 8.45654 7.99998 8.65001V9.00002H2.40001C2.01414 9.00002 1.70002 8.6859 1.70002 8.30003V5.50004C1.70002 5.11417 2.01414 4.80005 2.40001 4.80005H16.4C16.7859 4.80005 17.1 5.11417 17.1 5.50004V8.30003Z" fill="black" stroke="black" stroke-width="0.2"/>
</svg>
