<svg width="18" height="18" viewBox="0 0 18 18" fill="none" xmlns="http://www.w3.org/2000/svg">
<g clip-path="url(#clip0_17666_39923)">
<path d="M0.673341 8.70036H1.19984C1.27941 8.70036 1.35571 8.73197 1.41197 8.78823C1.46823 8.84449 1.49984 8.9208 1.49984 9.00036C1.49866 10.299 1.83548 11.5757 2.4772 12.7047C3.11892 13.8338 4.04343 14.7764 5.15984 15.4399C5.25252 15.0663 5.45982 14.7311 5.75264 14.4814L5.80904 14.4325C4.86037 13.8787 4.07382 13.0855 3.52815 12.1321C2.98249 11.1788 2.69685 10.0988 2.69984 9.00036C2.69984 8.9208 2.73145 8.84449 2.78771 8.78823C2.84397 8.73197 2.92028 8.70036 2.99984 8.70036H3.52634C3.54044 8.70101 3.5544 8.6973 3.56632 8.68973C3.57824 8.68216 3.58753 8.6711 3.59294 8.65806C3.59911 8.64596 3.60136 8.63223 3.59937 8.61879C3.59738 8.60535 3.59125 8.59286 3.58184 8.58306L2.15564 6.92556C2.14869 6.91765 2.14013 6.91132 2.13053 6.90698C2.12093 6.90264 2.11052 6.90039 2.09999 6.90039C2.08946 6.90039 2.07905 6.90264 2.06945 6.90698C2.05986 6.91132 2.0513 6.91765 2.04434 6.92556L0.617841 8.58306C0.608429 8.59286 0.602303 8.60535 0.600314 8.61879C0.598325 8.63223 0.600571 8.64596 0.606741 8.65806C0.612151 8.6711 0.621447 8.68216 0.633363 8.68973C0.64528 8.6973 0.659239 8.70101 0.673341 8.70036Z" fill="black" stroke="black" stroke-width="0.4"/>
<path d="M3.52145 5.74975L3.57035 5.80675C4.12344 4.85819 4.91627 4.07177 5.8693 3.52641C6.82232 2.98105 7.90202 2.69593 9.00005 2.69965C9.07961 2.69965 9.15592 2.73126 9.21218 2.78752C9.26844 2.84378 9.30005 2.92009 9.30005 2.99965V3.52615C9.2994 3.54025 9.30311 3.55421 9.31068 3.56613C9.31825 3.57805 9.32931 3.58734 9.34235 3.59275C9.35446 3.59888 9.36818 3.6011 9.38161 3.59911C9.39504 3.59712 9.40753 3.59102 9.41735 3.58165L11.0745 2.15545C11.0825 2.1485 11.0889 2.13992 11.0933 2.1303C11.0976 2.12067 11.0999 2.11022 11.0999 2.09965C11.0999 2.08908 11.0976 2.07863 11.0933 2.06901C11.0889 2.05939 11.0825 2.05081 11.0745 2.04385L9.41735 0.617652C9.40748 0.608356 9.395 0.602309 9.38159 0.600324C9.36818 0.598339 9.35448 0.600513 9.34235 0.606552C9.32931 0.611962 9.31825 0.621258 9.31068 0.633175C9.30311 0.645091 9.2994 0.65905 9.30005 0.673152V1.19965C9.30005 1.27922 9.26844 1.35552 9.21218 1.41178C9.15592 1.46805 9.07961 1.49965 9.00005 1.49965C7.70135 1.49838 6.42469 1.83517 5.29562 2.47689C4.16655 3.11862 3.22395 4.04318 2.56055 5.15965C2.93402 5.25268 3.26943 5.45928 3.52055 5.75095L3.52145 5.74975Z" fill="black" stroke="black" stroke-width="0.4"/>
<path d="M8.65748 14.406C8.64806 14.4017 8.63785 14.3993 8.62748 14.3991C8.61107 14.3995 8.59537 14.4059 8.58338 14.4171L6.92558 15.8433C6.91766 15.8503 6.91132 15.8589 6.90698 15.8685C6.90264 15.8781 6.90039 15.8886 6.90039 15.8991C6.90039 15.9097 6.90264 15.9201 6.90698 15.9297C6.91132 15.9393 6.91766 15.9479 6.92558 15.9549L8.58308 17.3811C8.59295 17.3904 8.60543 17.3965 8.61884 17.3984C8.63225 17.4004 8.64594 17.3982 8.65808 17.3922C8.67101 17.3867 8.68193 17.3774 8.68939 17.3655C8.69685 17.3535 8.70047 17.3396 8.69978 17.3256V16.7991C8.69978 16.7195 8.73139 16.6432 8.78765 16.587C8.84391 16.5307 8.92021 16.4991 8.99978 16.4991C10.2985 16.5003 11.5752 16.1635 12.7043 15.5218C13.8334 14.8801 14.7761 13.9556 15.4396 12.8391C15.0661 12.7445 14.7309 12.5371 14.4796 12.2451L14.4331 12.1914C13.879 13.14 13.0855 13.9263 12.132 14.4717C11.1784 15.0172 10.0983 15.3025 8.99978 15.2991C8.92021 15.2991 8.84391 15.2675 8.78765 15.2112C8.73139 15.155 8.69978 15.0787 8.69978 14.9991V14.4726C8.70043 14.4585 8.69671 14.4445 8.68914 14.4326C8.68157 14.4207 8.67052 14.4114 8.65748 14.406Z" fill="black" stroke="black" stroke-width="0.4"/>
<path d="M15.3002 9.00035C15.3002 9.07991 15.2686 9.15622 15.2123 9.21248C15.1561 9.26874 15.0798 9.30035 15.0002 9.30035H14.4737C14.4596 9.2997 14.4456 9.30341 14.4337 9.31098C14.4218 9.31855 14.4125 9.32961 14.4071 9.34265C14.4009 9.35475 14.3987 9.36848 14.4007 9.38192C14.4027 9.39536 14.4088 9.40785 14.4182 9.41765L15.8444 11.0748C15.8501 11.0845 15.8583 11.0925 15.868 11.098C15.8778 11.1035 15.8888 11.1064 15.9 11.1064C15.9113 11.1064 15.9223 11.1035 15.932 11.098C15.9418 11.0925 15.9499 11.0845 15.9557 11.0748L17.3822 9.41735C17.3916 9.40755 17.3977 9.39506 17.3997 9.38162C17.4017 9.36818 17.3995 9.35445 17.3933 9.34235C17.3878 9.32936 17.3785 9.31837 17.3666 9.31086C17.3547 9.30335 17.3408 9.29968 17.3267 9.30035H16.8002C16.7206 9.30035 16.6443 9.26874 16.5881 9.21248C16.5318 9.15622 16.5002 9.07991 16.5002 9.00035C16.5015 7.70161 16.1647 6.42489 15.523 5.29577C14.8813 4.16665 13.9567 3.224 12.8402 2.56055C12.7457 2.93405 12.5383 3.26931 12.2462 3.52055L12.1919 3.56735C13.1405 4.12128 13.927 4.91473 14.4725 5.86823C15.018 6.82174 15.3034 7.90183 15.3002 9.00035Z" fill="black" stroke="black" stroke-width="0.4"/>
</g>
<defs>
<clipPath id="clip0_17666_39923">
<rect width="18" height="18" fill="white"/>
</clipPath>
</defs>
</svg>
