<svg width="18" height="18" viewBox="0 0 18 18" fill="none" xmlns="http://www.w3.org/2000/svg">
<path d="M17.4727 1.08984H0.527344C0.236109 1.08984 0 1.32595 0 1.61719V4.78125C0 5.07248 0.236109 5.30859 0.527344 5.30859H1.05469V16.3828C1.05469 16.674 1.2908 16.9102 1.58203 16.9102H16.418C16.7092 16.9102 16.9453 16.674 16.9453 16.3828V5.30859H17.4727C17.7639 5.30859 18 5.07248 18 4.78125V1.61719C18 1.32595 17.7639 1.08984 17.4727 1.08984ZM10.582 6.6722L10.4276 6.51772C10.2216 6.31178 9.88773 6.31178 9.68179 6.51772L9 7.19954L8.31818 6.51776C8.11227 6.31181 7.77836 6.31181 7.57241 6.51776L7.41797 6.6722V2.14453H10.582V6.6722ZM1.05469 4.25391V2.14453H6.36328V4.25391H1.05469ZM15.8906 15.8555H2.10938V5.30859H6.36328V7.94514C6.36321 8.07866 6.41637 8.21686 6.51776 8.31821C6.74617 8.53481 7.06465 8.51695 7.26346 8.31828L7.26353 8.31821L7.94531 7.63639L8.62713 8.31821C8.83304 8.52416 9.16696 8.52416 9.3729 8.31821L10.0547 7.63639L10.7365 8.31821L10.7366 8.31828C10.9378 8.51934 11.273 8.52732 11.4822 8.31828L11.4822 8.31821C11.5769 8.22357 11.6368 8.08773 11.6367 7.94514V5.30859H15.8906V15.8555ZM16.9453 4.25391H11.6367V2.14453H16.9453V4.25391Z" fill="black"/>
<path d="M7.94531 11.6367H3.72656C3.43533 11.6367 3.19922 11.8728 3.19922 12.1641V14.2734C3.19922 14.5647 3.43533 14.8008 3.72656 14.8008H7.94531C8.23655 14.8008 8.47266 14.5647 8.47266 14.2734V12.1641C8.47266 11.8728 8.23655 11.6367 7.94531 11.6367ZM7.41797 13.7461H4.25391V12.6914H7.41797V13.7461Z" fill="black"/>
</svg>
