
    <svg width="20" height="21" viewBox="0 0 20 21" fill="none" xmlns="http://www.w3.org/2000/svg">
        <path fill-rule="evenodd" clip-rule="evenodd"
            d="M17.7018 12.0426C17.4931 11.9341 17.3181 11.7707 17.1957 11.5699C17.0733 11.3692 17.0081 11.1387 17.0073 10.9036C16.9844 10.6466 17.0381 10.3886 17.1617 10.1622C17.2853 9.93575 17.4733 9.751 17.7018 9.63126C18.0545 9.42271 18.3107 9.08341 18.4147 8.68705C18.5188 8.2907 18.4622 7.86931 18.2574 7.51441L16.9962 5.28088C16.7887 4.93152 16.4525 4.67755 16.0597 4.57364C15.6669 4.46973 15.249 4.52418 14.896 4.72528C14.6921 4.84772 14.4587 4.9124 14.2209 4.9124C13.9831 4.9124 13.7497 4.84772 13.5459 4.72528C13.3158 4.61567 13.1239 4.43949 12.9951 4.21957C12.8664 3.99965 12.8066 3.74613 12.8236 3.49184C12.8206 3.08118 12.6554 2.68833 12.364 2.39898C12.0726 2.10963 11.6786 1.94726 11.2679 1.94727H8.73433C8.32367 1.94873 7.93023 2.11252 7.63984 2.40291C7.34945 2.6933 7.18567 3.08673 7.1842 3.4974C7.19152 3.75777 7.12429 4.01482 6.99042 4.23826C6.85655 4.46171 6.66162 4.64225 6.42858 4.75862C6.22891 4.87052 6.00276 4.92648 5.77394 4.92061C5.54513 4.91475 5.32214 4.84727 5.12847 4.72528C4.95314 4.62044 4.75862 4.55169 4.55635 4.52307C4.35408 4.49444 4.14813 4.50652 3.95059 4.5586C3.7535 4.60955 3.56874 4.69979 3.40739 4.8239C3.24603 4.94802 3.11142 5.10346 3.01162 5.28088L1.73374 7.5033C1.52888 7.8582 1.47233 8.27959 1.57636 8.67594C1.68039 9.07229 1.9366 9.41159 2.28934 9.62014C2.49349 9.72683 2.66549 9.88605 2.78757 10.0814C2.90966 10.2767 2.97741 10.5011 2.98384 10.7313C3.00673 10.9883 2.95298 11.2463 2.82937 11.4727C2.70577 11.6992 2.51785 11.8839 2.28934 12.0037C1.9366 12.2122 1.68039 12.5515 1.57636 12.9479C1.47233 13.3442 1.52888 13.7656 1.73374 14.1205L3.01162 16.3429C3.10613 16.5297 3.23839 16.6947 3.40002 16.8277C3.56165 16.9606 3.74914 17.0585 3.95059 17.1152C4.1569 17.1712 4.37233 17.1854 4.58418 17.1567C4.79603 17.1281 4.99999 17.0573 5.18403 16.9485C5.39936 16.8278 5.64429 16.7701 5.89088 16.7818C6.13746 16.7936 6.37576 16.8745 6.5786 17.0152C6.76365 17.1291 6.91646 17.2884 7.02247 17.4781C7.12849 17.6677 7.18416 17.8814 7.1842 18.0986C7.17348 18.3168 7.20846 18.5347 7.28692 18.7385C7.36538 18.9423 7.48558 19.1275 7.6398 19.2821C7.78464 19.4291 7.95778 19.5453 8.14876 19.6236C8.33974 19.7019 8.54461 19.7407 8.751 19.7377H11.2846C11.6952 19.7362 12.0887 19.5724 12.379 19.282C12.6694 18.9916 12.8332 18.5982 12.8347 18.1875C12.825 17.9504 12.8798 17.7151 12.9933 17.5067C13.1068 17.2983 13.2747 17.1246 13.4792 17.0041C13.6795 16.8565 13.9194 16.7724 14.1679 16.7624C14.4165 16.7525 14.6624 16.8174 14.8737 16.9485C15.0495 17.0516 15.2439 17.119 15.4458 17.1468C15.6477 17.1746 15.853 17.1624 16.0501 17.1108C16.2473 17.0592 16.4323 16.9692 16.5946 16.8461C16.7569 16.7229 16.8934 16.5689 16.9962 16.3929L18.2685 14.1705C18.3712 13.9936 18.438 13.7982 18.4651 13.5955C18.4922 13.3928 18.4791 13.1867 18.4264 12.989C18.3738 12.7914 18.2827 12.606 18.1583 12.4436C18.034 12.2812 17.8788 12.1449 17.7018 12.0426ZM17.5351 13.7094L16.2628 15.9318C16.1669 16.0937 16.0113 16.2115 15.8294 16.2596C15.7369 16.2872 15.6396 16.295 15.5439 16.2825C15.4482 16.2701 15.3562 16.2377 15.2738 16.1874C14.9343 15.9763 14.5416 15.8667 14.1418 15.8716C13.7421 15.8766 13.3522 15.9958 13.018 16.2152C12.6849 16.4113 12.4103 16.693 12.2227 17.031C12.0352 17.369 11.9414 17.7511 11.9513 18.1375C11.9518 18.2295 11.9338 18.3206 11.8985 18.4056C11.8632 18.4905 11.8112 18.5675 11.7457 18.632C11.6804 18.6985 11.6026 18.7514 11.5168 18.7876C11.431 18.8238 11.3388 18.8427 11.2457 18.8432H8.73433C8.64118 18.8427 8.54902 18.8238 8.4632 18.7876C8.37738 18.7514 8.29958 18.6985 8.23429 18.632C8.1596 18.5556 8.1025 18.4638 8.06699 18.3631C8.03149 18.2623 8.01842 18.155 8.02872 18.0486C8.03292 17.6647 7.93149 17.2869 7.73551 16.9567C7.53954 16.6265 7.25656 16.3565 6.91751 16.1763C6.60371 15.9883 6.24596 15.8863 5.88022 15.8804C5.51449 15.8746 5.15365 15.9651 4.834 16.1429C4.7406 16.2039 4.63599 16.2456 4.52628 16.2656C4.41657 16.2856 4.30397 16.2836 4.19506 16.2596C4.0155 16.2096 3.86221 16.0922 3.76724 15.9318L2.49491 13.7094C2.40197 13.5479 2.37668 13.3562 2.42456 13.1761C2.47244 12.996 2.58961 12.8422 2.75049 12.7482C3.10475 12.5541 3.39701 12.2639 3.5936 11.9111C3.79019 11.5582 3.88312 11.1569 3.8617 10.7536C3.86425 10.3685 3.76225 9.98986 3.56655 9.65816C3.37086 9.32646 3.08881 9.05409 2.75049 8.87008C2.58961 8.77607 2.47244 8.62225 2.42456 8.44217C2.37668 8.26209 2.40197 8.07038 2.49491 7.90889L3.76724 5.68647C3.86221 5.5261 4.0155 5.40865 4.19506 5.35867C4.28765 5.3318 4.38479 5.32435 4.4804 5.33678C4.57601 5.34921 4.66802 5.38125 4.75066 5.4309C5.09012 5.64199 5.48289 5.75155 5.88259 5.74663C6.2823 5.7417 6.67226 5.62251 7.00641 5.40312C7.33954 5.20698 7.61413 4.92529 7.8017 4.58726C7.98928 4.24924 8.08301 3.86719 8.07317 3.48073C8.07269 3.38876 8.09064 3.29762 8.12594 3.2127C8.16125 3.12777 8.2132 3.05077 8.27874 2.98624C8.34403 2.91978 8.42182 2.86691 8.50765 2.83067C8.59347 2.79444 8.68562 2.77555 8.77878 2.77511H11.3123C11.4055 2.77555 11.4976 2.79444 11.5835 2.83067C11.6693 2.86691 11.7471 2.91978 11.8124 2.98624C11.8779 3.05077 11.9299 3.12777 11.9652 3.2127C12.0005 3.29762 12.0184 3.38876 12.0179 3.48073C12.0029 3.86818 12.0938 4.2524 12.2808 4.59209C12.4678 4.93177 12.7438 5.21408 13.0792 5.40867C13.4216 5.61103 13.812 5.71778 14.2098 5.71778C14.6076 5.71778 14.998 5.61103 15.3405 5.40867C15.4228 5.35839 15.5149 5.32597 15.6106 5.31353C15.7063 5.30109 15.8036 5.30889 15.8961 5.33644C16.0779 5.3846 16.2336 5.50233 16.3294 5.66425L17.6018 7.88666C17.6947 8.04816 17.72 8.23987 17.6721 8.41994C17.6242 8.60002 17.5071 8.75385 17.3462 8.84786C16.9919 9.04193 16.6997 9.33212 16.5031 9.68499C16.3065 10.0379 16.2136 10.4391 16.235 10.8425C16.2324 11.2276 16.3344 11.6062 16.5301 11.9379C16.7258 12.2696 17.0079 12.542 17.3462 12.726C17.4274 12.7779 17.497 12.846 17.5509 12.9259C17.6048 13.0058 17.6417 13.0959 17.6594 13.1907C17.6771 13.2854 17.6752 13.3828 17.6538 13.4768C17.6324 13.5708 17.592 13.6594 17.5351 13.7372V13.7094Z"
            fill="black" stroke="black" stroke-width="0.4" />
        <path fill-rule="evenodd" clip-rule="evenodd"
            d="M10.0013 11.2597C10.5328 11.2619 11.0529 11.1062 11.4958 10.8124C11.9387 10.5187 12.2844 10.1 12.489 9.60951C12.6937 9.11903 12.7481 8.57882 12.6454 8.05738C12.5426 7.53594 12.2874 7.05674 11.912 6.68055C11.5365 6.30435 11.0579 6.0481 10.5367 5.94428C10.0154 5.84046 9.4751 5.89374 8.9842 6.09738C8.49329 6.30101 8.0739 6.64583 7.7792 7.08811C7.4845 7.53039 7.32777 8.05021 7.32886 8.58167C7.32813 8.93309 7.39672 9.28121 7.53069 9.60608C7.66467 9.93096 7.86141 10.2262 8.10964 10.475C8.35787 10.7237 8.65273 10.9211 8.97733 11.0557C9.30193 11.1904 9.64989 11.2597 10.0013 11.2597ZM10.0013 6.74263C10.3655 6.74043 10.7222 6.84641 11.026 7.04715C11.3299 7.24788 11.5674 7.53433 11.7083 7.87017C11.8492 8.20601 11.8872 8.57613 11.8175 8.93359C11.7478 9.29106 11.5735 9.61979 11.3168 9.8781C11.06 10.1364 10.7324 10.3127 10.3753 10.3845C10.0183 10.4564 9.64793 10.4206 9.31124 10.2818C8.97455 10.1429 8.68668 9.90721 8.4841 9.60454C8.28153 9.30187 8.17339 8.94588 8.17338 8.58167C8.17265 8.3409 8.21935 8.10233 8.31082 7.8796C8.40228 7.65688 8.53673 7.45434 8.70647 7.28357C8.87621 7.1128 9.07792 6.97713 9.30009 6.88432C9.52226 6.7915 9.76054 6.74336 10.0013 6.74263Z"
            fill="black" stroke="black" stroke-width="0.4" />
        <path fill-rule="evenodd" clip-rule="evenodd"
            d="M6.19491 14.2046C6.1922 14.1899 6.1922 14.1748 6.19491 14.1602C6.19089 14.1747 6.19089 14.1901 6.19491 14.2046Z"
            fill="black" stroke="black" stroke-width="0.4" />
        <path fill-rule="evenodd" clip-rule="evenodd"
            d="M11.6962 12.1094H8.33481C7.77574 12.1094 7.23924 12.3299 6.84184 12.7232C6.44445 13.1164 6.21826 13.6505 6.2124 14.2096C6.2124 14.265 6.22332 14.3199 6.24454 14.3712C6.26576 14.4224 6.29687 14.469 6.33608 14.5082C6.37529 14.5474 6.42184 14.5785 6.47307 14.5997C6.5243 14.6209 6.57921 14.6318 6.63466 14.6318C6.74491 14.6265 6.84921 14.5802 6.92726 14.5022C7.00531 14.4241 7.05153 14.3198 7.05692 14.2096C7.06275 13.8745 7.19995 13.5552 7.43897 13.3203C7.67799 13.0854 7.9997 12.9539 8.33481 12.9539H11.7129C11.8797 12.9539 12.0449 12.9869 12.1989 13.0509C12.353 13.1149 12.4929 13.2087 12.6106 13.3269C12.7283 13.4451 12.8215 13.5854 12.8848 13.7398C12.9482 13.8941 12.9804 14.0594 12.9796 14.2263C12.9796 14.2804 12.9915 14.3339 13.0146 14.3829C13.0376 14.4319 13.0712 14.4752 13.113 14.5096C13.183 14.5789 13.2758 14.6204 13.3741 14.6263H13.4186C13.5267 14.6206 13.6284 14.5736 13.7029 14.495C13.7773 14.4164 13.8188 14.3123 13.8186 14.204C13.8142 13.645 13.5883 13.1106 13.1904 12.718C12.7926 12.3253 12.2552 12.1064 11.6962 12.1094Z"
            fill="black" stroke="black" stroke-width="0.4" />
    </svg>

