<svg width="16" height="16" viewBox="0 0 16 16" fill="none" xmlns="http://www.w3.org/2000/svg">
<path d="M7.29313 1.28711C3.98732 1.28711 1.29443 3.97999 1.29443 7.28582C1.29443 10.5916 3.98732 13.2898 7.29313 13.2898C8.70514 13.2898 10.0038 12.7949 11.0301 11.9733L13.5288 14.4707C13.6549 14.5916 13.8233 14.6583 13.998 14.6565C14.1727 14.6547 14.3397 14.5846 14.4633 14.4612C14.5869 14.3377 14.6572 14.1708 14.6592 13.9962C14.6613 13.8215 14.5948 13.653 14.4741 13.5267L11.9754 11.0281C12.7977 10.0001 13.2931 8.69946 13.2931 7.28582C13.2931 3.97999 10.5989 1.28711 7.29313 1.28711ZM7.29313 2.62046C9.87836 2.62046 11.9585 4.7006 11.9585 7.28582C11.9585 9.87104 9.87836 11.9564 7.29313 11.9564C4.70791 11.9564 2.62777 9.87104 2.62777 7.28582C2.62777 4.7006 4.70791 2.62046 7.29313 2.62046Z" fill="#2B2C30" fill-opacity="0.8"/>
</svg>
