<svg width="16" height="16" viewBox="0 0 16 16" fill="none" xmlns="http://www.w3.org/2000/svg">
<g clip-path="url(#clip0_335_32693)">
<path d="M15.4371 6.20866C15.3653 5.98616 15.2335 5.78784 15.056 5.63565C14.8786 5.48347 14.6624 5.38336 14.4316 5.34641L10.8095 4.75775L9.13033 1.49481C9.02338 1.28709 8.86127 1.11284 8.6618 0.991187C8.46232 0.869534 8.23319 0.805176 7.99955 0.805176C7.76591 0.805176 7.53678 0.869534 7.33731 0.991187C7.13784 1.11284 6.97573 1.28709 6.86877 1.49481L5.18965 4.75775L1.56755 5.34641C1.33695 5.38394 1.12114 5.48427 0.943802 5.63638C0.766465 5.7885 0.634454 5.98652 0.562254 6.20872C0.490054 6.43092 0.480453 6.66872 0.534507 6.89602C0.588561 7.12332 0.704179 7.33134 0.868677 7.49725L3.45305 10.1025L2.89368 13.7292C2.85778 13.9602 2.88629 14.1966 2.97607 14.4125C3.06584 14.6283 3.2134 14.8152 3.40253 14.9526C3.59165 15.09 3.815 15.1726 4.04802 15.1913C4.28104 15.21 4.5147 15.1641 4.7233 15.0585L7.99955 13.4057L11.2759 15.0585C11.4845 15.1638 11.7181 15.2096 11.951 15.1908C12.184 15.1721 12.4072 15.0895 12.5963 14.9521C12.7853 14.8147 12.9329 14.6279 13.0227 14.4122C13.1126 14.1965 13.1412 13.9602 13.1055 13.7292L12.5461 10.1025L15.1305 7.49725C15.2955 7.33166 15.4115 7.12364 15.4656 6.89621C15.5197 6.66878 15.5098 6.43082 15.4371 6.20866ZM14.4205 6.79303L11.4808 9.75644L12.1172 13.8818C12.1251 13.9312 12.1191 13.9818 12.1 14.028C12.0809 14.0743 12.0493 14.1143 12.0089 14.1437C11.9684 14.1731 11.9206 14.1907 11.8707 14.1946C11.8208 14.1985 11.7708 14.1885 11.7263 14.1658L7.99955 12.2857L4.2728 14.1658C4.22825 14.1886 4.17827 14.1986 4.12839 14.1947C4.07851 14.1908 4.03068 14.1732 3.99021 14.1438C3.94973 14.1144 3.91819 14.0743 3.89907 14.0281C3.87995 13.9818 3.87401 13.9312 3.8819 13.8818L4.5183 9.75644L1.57865 6.793C1.54354 6.75753 1.51887 6.71309 1.50735 6.66454C1.49582 6.61598 1.49788 6.5652 1.5133 6.51773C1.52872 6.47027 1.55691 6.42797 1.59477 6.39547C1.63263 6.36296 1.67871 6.3415 1.72796 6.33344L5.84799 5.66388L7.75796 1.95241C7.7808 1.90801 7.81543 1.87077 7.85805 1.84476C7.90067 1.81876 7.94963 1.805 7.99955 1.805C8.04948 1.805 8.09844 1.81876 8.14106 1.84476C8.18368 1.87077 8.21831 1.90801 8.24115 1.95241L10.1511 5.66388L14.2711 6.33344C14.3204 6.3415 14.3665 6.36296 14.4043 6.39547C14.4422 6.42797 14.4704 6.47027 14.4858 6.51773C14.5012 6.5652 14.5033 6.61598 14.4918 6.66454C14.4802 6.71309 14.4556 6.75753 14.4205 6.793L14.4205 6.79303Z" fill="#2B2C30"/>
</g>
<defs>
<clipPath id="clip0_335_32693">
<rect width="16" height="16" fill="white"/>
</clipPath>
</defs>
</svg>
