<svg width="14" height="14" viewBox="0 0 14 14" fill="none" xmlns="http://www.w3.org/2000/svg">
<g clip-path="url(#clip0_18738_81149)">
<path d="M7 1.3125C7.24162 1.3125 7.4375 1.50838 7.4375 1.75C7.4375 2.92021 8.02701 4.12704 8.94998 5.05002C9.87296 5.97299 11.0798 6.5625 12.25 6.5625C12.4916 6.5625 12.6875 6.75837 12.6875 7C12.6875 7.24162 12.4916 7.4375 12.25 7.4375C11.0798 7.4375 9.87296 8.02701 8.94998 8.94998C8.02701 9.87296 7.4375 11.0798 7.4375 12.25C7.4375 12.4916 7.24162 12.6875 7 12.6875C6.75837 12.6875 6.5625 12.4916 6.5625 12.25C6.5625 11.0798 5.97299 9.87296 5.05002 8.94998C4.12704 8.02701 2.92021 7.4375 1.75 7.4375C1.50838 7.4375 1.3125 7.24162 1.3125 7C1.3125 6.75837 1.50838 6.5625 1.75 6.5625C2.92021 6.5625 4.12704 5.97299 5.05002 5.05002C5.97299 4.12704 6.5625 2.92021 6.5625 1.75C6.5625 1.50838 6.75837 1.3125 7 1.3125Z" fill="#FBBF24"/>
<path d="M11.2292 0.729004C11.3537 0.729004 11.4616 0.815303 11.489 0.936787L11.6256 1.54335C11.7189 1.95751 12.0423 2.28095 12.4565 2.37424L13.0631 2.51088C13.1845 2.53824 13.2708 2.64614 13.2708 2.77067C13.2708 2.8952 13.1845 3.0031 13.0631 3.03047L12.4565 3.1671C12.0423 3.2604 11.7189 3.58383 11.6256 3.998L11.489 4.60455C11.4616 4.72604 11.3537 4.81234 11.2292 4.81234C11.1046 4.81234 10.9967 4.72604 10.9694 4.60455L10.8327 3.99799C10.7394 3.58383 10.416 3.2604 10.0018 3.1671L9.39528 3.03047C9.2738 3.0031 9.1875 2.8952 9.1875 2.77067C9.1875 2.64614 9.2738 2.53824 9.39528 2.51088L10.0018 2.37424C10.416 2.28095 10.7394 1.95751 10.8327 1.54335L10.9694 0.936787C10.9967 0.815303 11.1046 0.729004 11.2292 0.729004Z" fill="#FBBF24"/>
<path d="M2.77079 9.1875C2.89532 9.1875 3.00322 9.2738 3.03059 9.39528L3.16722 10.0018C3.26052 10.416 3.58395 10.7394 3.99812 10.8327L4.60468 10.9694C4.72616 10.9967 4.81246 11.1046 4.81246 11.2292C4.81246 11.3537 4.72616 11.4616 4.60468 11.489L3.99812 11.6256C3.58395 11.7189 3.26052 12.0423 3.16722 12.4565L3.03059 13.0631C3.00322 13.1845 2.89532 13.2708 2.77079 13.2708C2.64626 13.2708 2.53836 13.1845 2.511 13.0631L2.37436 12.4565C2.28107 12.0423 1.95764 11.7189 1.54347 11.6256L0.936909 11.489C0.815425 11.4616 0.729126 11.3537 0.729126 11.2292C0.729126 11.1046 0.815425 10.9967 0.936909 10.9694L1.54347 10.8327C1.95763 10.7394 2.28107 10.416 2.37436 10.0018L2.511 9.39528C2.53836 9.2738 2.64626 9.1875 2.77079 9.1875Z" fill="#FBBF24"/>
</g>
<defs>
<clipPath id="clip0_18738_81149">
<rect width="14" height="14" fill="white"/>
</clipPath>
</defs>
</svg>
