<svg width="20" height="20" viewBox="0 0 20 20" fill="none" xmlns="http://www.w3.org/2000/svg">
<g clip-path="url(#clip0_818_92143)">
<path d="M10.0456 3.01635H12.3759L11.4933 3.90044C11.2648 4.12948 11.2651 4.50042 11.4941 4.72915C11.7227 4.95727 12.0938 4.95772 12.3227 4.72838L14.2022 2.8456C14.434 2.61352 14.431 2.2322 14.1888 2.00423L12.3227 0.134877C12.0941 -0.094158 11.7231 -0.0944631 11.4941 0.134114C11.2651 0.362843 11.2648 0.733784 11.4933 0.962819L12.3735 1.84447C9.71829 1.84447 10.0494 1.84432 10.0204 1.84432C3.8261 1.84432 -0.105783 8.58581 3.0003 14.0045C3.16113 14.2851 3.51894 14.3825 3.80001 14.2215C4.08077 14.0605 4.17782 13.7025 4.01699 13.4218C1.3438 8.75838 4.76559 2.9898 10.0456 3.01635Z" fill="black"/>
<path d="M17.0566 5.92105C16.8958 5.64045 16.5376 5.54325 16.2569 5.70407C15.9761 5.86505 15.8791 6.22318 16.0401 6.50394C18.693 11.1319 15.3447 16.9094 10.0286 16.9094H7.68098L8.56355 16.0253C8.79228 15.7962 8.79198 15.4253 8.56294 15.1966C8.33391 14.968 7.96281 14.9683 7.73424 15.1973L5.85466 17.0801C5.62486 17.3102 5.62364 17.6921 5.86885 17.9223L7.73424 19.7908C7.96281 20.0197 8.33376 20.0203 8.56294 19.7916C8.79198 19.5629 8.79228 19.1919 8.56371 18.9629L7.68358 18.0812H10.0359C16.2334 18.0811 20.1621 11.3387 17.0566 5.92105Z" fill="black"/>
<path d="M9.44141 8.20508H11.7852C12.1086 8.20508 12.3711 7.94263 12.3711 7.61914C12.3711 7.2955 12.1086 7.0332 11.7852 7.0332H10.6133V6.44727C10.6133 6.12363 10.3508 5.86133 10.0273 5.86133C9.70371 5.86133 9.44141 6.12363 9.44141 6.44727V7.0332C8.47202 7.0332 7.68359 7.82178 7.68359 8.79102C7.68359 9.76026 8.47202 10.5488 9.44141 10.5488H10.6131C10.9363 10.5488 11.1992 10.8116 11.1992 11.1348C11.1992 11.458 10.9378 11.7209 10.6131 11.7209C10.0077 11.7209 10.0273 11.7207 10.0273 11.7207C10.0264 11.7207 10.0255 11.7209 10.0246 11.7209C10.0019 11.7209 8.25641 11.7207 8.26953 11.7207C7.94589 11.7207 7.68359 11.983 7.68359 12.3065C7.68344 12.6301 7.94574 12.8924 8.26938 12.8926H9.44141V13.4785C9.44141 13.802 9.70371 14.0645 10.0273 14.0645C10.3508 14.0645 10.6133 13.802 10.6133 13.4785V12.8927C11.5847 12.8927 12.3711 12.1068 12.3711 11.1348C12.3711 10.1655 11.5824 9.37696 10.6131 9.37696H9.44141C9.11823 9.37696 8.85547 9.11405 8.85547 8.79102C8.85547 8.46784 9.11823 8.20508 9.44141 8.20508Z" fill="black"/>
</g>
<defs>
<clipPath id="clip0_818_92143">
<rect width="20" height="20" fill="white" transform="translate(0 0.00195312)"/>
</clipPath>
</defs>
</svg>
