<svg width="24" height="32" viewBox="0 0 24 32" fill="none" xmlns="http://www.w3.org/2000/svg">
<g clip-path="url(#clip0_17553_221702)">
<path d="M12 24C14.2091 24 16 22.2091 16 20C16 17.7909 14.2091 16 12 16C9.79086 16 8 17.7909 8 20C8 22.2091 9.79086 24 12 24Z" stroke="#FBBF24" stroke-width="2" stroke-linecap="round" stroke-linejoin="round"/>
<path d="M12 10V12M12 28V30M4.93 12.93L6.34 14.34M17.66 25.66L19.07 27.07M2 20H4M20 20H22M6.34 25.66L4.93 27.07M19.07 12.93L17.66 14.34" stroke="#FBBF24" stroke-width="2" stroke-linecap="round" stroke-linejoin="round"/>
</g>
<defs>
<clipPath id="clip0_17553_221702">
<rect width="24" height="24" fill="white" transform="translate(0 8)"/>
</clipPath>
</defs>
</svg>
