<svg width="20" height="20" viewBox="0 0 20 20" fill="none" xmlns="http://www.w3.org/2000/svg">
<g clip-path="url(#clip0_18145_56332)">
<path d="M12.363 5.60759H11.0565V4.21974C11.0724 4.10095 11.0636 3.98014 11.0304 3.86497C10.9972 3.7498 10.9404 3.64278 10.8637 3.5507C10.787 3.45861 10.692 3.38347 10.5847 3.33003C10.4774 3.27659 10.3602 3.24602 10.2405 3.24026C10.0032 3.22205 9.76807 3.29709 9.58518 3.44946C9.40228 3.60182 9.286 3.8195 9.26104 4.05623V5.60759H7.87319C7.61473 5.61182 7.36805 5.71637 7.18527 5.89915C7.00249 6.08193 6.89794 6.32861 6.89371 6.58707C6.88912 6.71693 6.91131 6.84635 6.95891 6.96726C7.00651 7.08818 7.07849 7.19799 7.17038 7.28988C7.26226 7.38176 7.37208 7.45375 7.49299 7.50134C7.6139 7.54894 7.74332 7.57114 7.87319 7.56655H9.17968V8.9544C9.19256 9.19649 9.28919 9.42657 9.45303 9.60525C9.61687 9.78393 9.83773 9.90011 10.0778 9.93388C10.2017 9.93064 10.3237 9.90248 10.4365 9.85107C10.5494 9.79966 10.6507 9.72605 10.7344 9.63464C10.8181 9.54323 10.8826 9.43588 10.924 9.31901C10.9653 9.20214 10.9827 9.07814 10.9751 8.9544V7.48518H12.2816C12.4057 7.48206 12.5278 7.45395 12.6408 7.40253C12.7538 7.35112 12.8552 7.27746 12.939 7.18595C13.0229 7.09444 13.0874 6.98697 13.1288 6.86996C13.1701 6.75294 13.1874 6.62879 13.1797 6.50492C13.1913 6.39101 13.1787 6.27594 13.1428 6.1672C13.107 6.05846 13.0486 5.95849 12.9716 5.87378C12.8945 5.78907 12.8005 5.72152 12.6957 5.67553C12.5908 5.62953 12.4775 5.6069 12.363 5.60759ZM15.3022 19.3835H4.68988C4.32444 19.3868 3.962 19.3173 3.62373 19.179C3.28545 19.0407 2.97813 18.8363 2.71972 18.5779C2.4613 18.3195 2.25697 18.0122 2.11866 17.6739C1.98035 17.3356 1.91084 16.9732 1.91418 16.6078V3.38324C1.91084 3.0178 1.98035 2.65536 2.11866 2.31709C2.25697 1.97881 2.4613 1.67149 2.71972 1.41308C2.97813 1.15466 3.28545 0.950328 3.62373 0.812019C3.962 0.67371 4.32444 0.604195 4.68988 0.607537H15.3022C15.6676 0.6043 16.0299 0.673891 16.3681 0.812247C16.7063 0.950603 17.0135 1.15495 17.2719 1.41336C17.5302 1.67176 17.7344 1.97905 17.8727 2.31727C18.011 2.65549 18.0805 3.01787 18.0771 3.38324V16.5264C18.095 16.8993 18.036 17.272 17.904 17.6212C17.7719 17.9704 17.5695 18.2888 17.3093 18.5566C17.0492 18.8244 16.7368 19.0359 16.3915 19.178C16.0463 19.3201 15.6755 19.3905 15.3022 19.3835Z" stroke="black" stroke-width="1.1"/>
<path d="M14.5244 16.3018C14.5288 16.3067 14.5359 16.3122 14.542 16.3213C14.5723 16.3668 14.5937 16.4323 14.5938 16.4922V16.5068L14.5957 16.5205C14.5975 16.54 14.5914 16.5599 14.5791 16.5752C14.5687 16.588 14.5539 16.5957 14.5381 16.5996H5.36133C5.34972 16.5984 5.33836 16.5942 5.33008 16.5859C5.32139 16.5772 5.31625 16.565 5.31543 16.5527L5.31348 16.5234L5.30566 16.4941C5.29429 16.4519 5.30054 16.4071 5.32227 16.3691C5.34006 16.3381 5.36796 16.3159 5.40039 16.3018H14.5244ZM14.5244 14.3018C14.5288 14.3067 14.5359 14.3122 14.542 14.3213C14.5723 14.3668 14.5937 14.4323 14.5938 14.4922V14.5068L14.5957 14.5205C14.5975 14.54 14.5914 14.5599 14.5791 14.5752C14.5687 14.588 14.5539 14.5957 14.5381 14.5996H5.36133C5.34972 14.5984 5.33836 14.5942 5.33008 14.5859C5.32139 14.5772 5.31625 14.565 5.31543 14.5527L5.31348 14.5234L5.30566 14.4941C5.29429 14.4519 5.30054 14.4071 5.32227 14.3691C5.34006 14.3381 5.36796 14.3159 5.40039 14.3018H14.5244ZM14.5244 12.3018C14.5288 12.3067 14.5359 12.3122 14.542 12.3213C14.5723 12.3668 14.5937 12.4323 14.5938 12.4922V12.5068L14.5957 12.5205C14.5975 12.54 14.5914 12.5599 14.5791 12.5752C14.5687 12.588 14.5539 12.5957 14.5381 12.5996H5.36133C5.34972 12.5984 5.33836 12.5942 5.33008 12.5859C5.32139 12.5772 5.31625 12.565 5.31543 12.5527L5.31348 12.5234L5.30566 12.4941C5.29429 12.4519 5.30054 12.4071 5.32227 12.3691C5.34006 12.3381 5.36796 12.3159 5.40039 12.3018H14.5244Z" stroke="black" stroke-width="0.6"/>
</g>
<defs>
<clipPath id="clip0_18145_56332">
<rect width="20.0017" height="20.0017" fill="white" transform="translate(0 0.00195312)"/>
</clipPath>
</defs>
</svg>
