<svg width="20" height="20" viewBox="0 0 20 20" fill="none" xmlns="http://www.w3.org/2000/svg">
<rect width="20" height="20" rx="3.33333" fill="#29BF7F"/>
<path d="M6.43164 14.3018L9.29004 12.167L9.29102 12.166C9.47176 12.0328 9.69053 11.9609 9.91504 11.9609C10.0834 11.9609 10.2482 12.0017 10.3965 12.0781L10.5391 12.166L10.54 12.167L13.373 14.291V5.91699H6.43164V14.3018ZM14.4316 14.3789C14.4277 14.5672 14.3725 14.7506 14.2725 14.9102C14.1723 15.0699 14.0303 15.1996 13.8623 15.2852C13.6944 15.3706 13.5064 15.4094 13.3184 15.3965C13.1304 15.3835 12.9495 15.3196 12.7949 15.2119L12.79 15.208L9.91504 13.0518L7.01465 15.209C6.83427 15.3432 6.61546 15.4161 6.39062 15.417H6.38965C6.2298 15.4164 6.07171 15.38 5.92773 15.3105V15.3096C5.75087 15.2261 5.60123 15.0946 5.49609 14.9297C5.3907 14.7642 5.33364 14.5721 5.33301 14.376V5.87402C5.3338 5.7361 5.36234 5.59971 5.41602 5.47266C5.46971 5.3456 5.54812 5.23049 5.64648 5.13379C5.74485 5.0371 5.86131 4.96069 5.98926 4.90918C6.1165 4.85797 6.2525 4.83272 6.38965 4.83398V4.83301H13.3906C13.6661 4.83457 13.9302 4.94494 14.125 5.13965C14.3198 5.33446 14.4301 5.59852 14.4316 5.87402V14.3789Z" fill="white" stroke="white" stroke-width="0.333333"/>
</svg>
