<svg width="14" height="14" viewBox="0 0 14 14" fill="none" xmlns="http://www.w3.org/2000/svg">
<path d="M9.917 6.12516C10.7224 6.12516 11.3753 5.47224 11.3753 4.66683C11.3753 3.86141 10.7224 3.2085 9.917 3.2085M12.8337 10.5002C12.8337 8.88933 11.5278 7.5835 9.91699 7.5835" stroke="#5A697E"/>
<path d="M4.08365 6.12516C3.27823 6.12516 2.62532 5.47224 2.62532 4.66683C2.62532 3.86141 3.27823 3.2085 4.08365 3.2085M1.16699 10.5002C1.16699 8.88933 2.47283 7.5835 4.08366 7.5835" stroke="#5A697E"/>
<path d="M9.04134 4.37516C9.04134 5.50274 8.12726 6.41683 6.99967 6.41683C5.87209 6.41683 4.95801 5.50274 4.95801 4.37516C4.95801 3.24758 5.87209 2.3335 6.99967 2.3335C8.12726 2.3335 9.04134 3.24758 9.04134 4.37516Z" stroke="#5A697E"/>
<path d="M2.91699 11.6665H11.0837C11.0837 9.73351 9.25549 8.1665 7.00033 8.1665C4.74516 8.1665 2.91699 9.73351 2.91699 11.6665Z" stroke="#5A697E"/>
</svg>
