<svg width="11" height="11" viewBox="0 0 11 11" fill="none" xmlns="http://www.w3.org/2000/svg">
<path d="M9.65685 6.29124H6.29222V9.65588C6.29222 10.0929 5.93765 10.4475 5.5006 10.4475C5.06355 10.4475 4.70898 10.0929 4.70898 9.65588V6.29124H1.34435C0.907303 6.29124 0.552734 5.93668 0.552734 5.49963C0.552734 5.06258 0.907303 4.70801 1.34435 4.70801H4.70898V1.34338C4.70898 0.906326 5.06355 0.551758 5.5006 0.551758C5.93765 0.551758 6.29222 0.906326 6.29222 1.34338V4.70801H9.65685C10.0939 4.70801 10.4485 5.06258 10.4485 5.49963C10.4485 5.93668 10.0939 6.29124 9.65685 6.29124Z" fill="#FAFAFA"/>
</svg>
