<svg width="100" height="100" viewBox="0 0 100 100" fill="none" xmlns="http://www.w3.org/2000/svg">
<g opacity="0.4">
<path d="M29.9998 60.0002H17.9181C17.4282 59.9999 16.9431 60.097 16.491 60.2858C16.0389 60.4747 15.6289 60.7515 15.2848 61.1002L7.35309 69.0168C7.04448 69.3255 6.67811 69.5703 6.2749 69.7373C5.87169 69.9043 5.43953 69.9902 5.00309 69.9902C4.56665 69.9902 4.13449 69.9043 3.73128 69.7373C3.32806 69.5703 2.9617 69.3255 2.65309 69.0168C2.34448 68.7082 2.09968 68.3419 1.93267 67.9387C1.76565 67.5354 1.67969 67.1033 1.67969 66.6668C1.67969 66.2304 1.76565 65.7982 1.93267 65.395C2.09968 64.9918 2.34448 64.6255 2.65309 64.3168L10.5698 56.3835C11.5323 55.4148 12.6773 54.6464 13.9386 54.1229C15.1999 53.5994 16.5525 53.3311 17.9181 53.3335H29.9998V60.0002Z" fill="#54666F"/>
<path d="M28.3333 45.4667L19.1833 41.8C17.7661 41.2378 16.5133 40.3278 15.5405 39.154C14.5676 37.9802 13.906 36.5802 13.6166 35.0834L10.0666 17.3167C9.9616 16.8803 9.94583 16.4271 10.0202 15.9845C10.0946 15.5418 10.2577 15.1187 10.4996 14.7406C10.7415 14.3625 11.0572 14.0371 11.428 13.784C11.7987 13.5309 12.2167 13.3553 12.6569 13.2677C13.0972 13.1801 13.5506 13.1823 13.99 13.2742C14.4293 13.3661 14.8456 13.5458 15.2138 13.8026C15.582 14.0593 15.8946 14.3877 16.1328 14.7682C16.371 15.1487 16.5299 15.5733 16.5999 16.0167L20.1499 33.8C20.2302 34.1989 20.4075 34.5718 20.6663 34.8857C20.925 35.1997 21.2571 35.445 21.6333 35.6L28.6166 38.3834L29.9999 41.6667L28.3333 45.4667Z" fill="#54666F"/>
<path d="M31.7496 76.6504L28.9496 79.2671C28.6655 79.5268 28.4683 79.8677 28.3848 80.2434C28.3013 80.6191 28.3356 81.0115 28.483 81.3671L33.4996 93.7504C33.6961 94.1607 33.8064 94.6069 33.8239 95.0615C33.8413 95.5161 33.7656 95.9695 33.6012 96.3937C33.4369 96.8179 33.1875 97.204 32.8683 97.5282C32.5491 97.8524 32.167 98.1078 31.7453 98.2787C31.3237 98.4496 30.8716 98.5324 30.4168 98.522C29.962 98.5116 29.5141 98.4082 29.1008 98.2182C28.6874 98.0282 28.3173 97.7556 28.0133 97.4172C27.7093 97.0787 27.4778 96.6817 27.333 96.2504L22.2996 83.8671C21.6387 82.2571 21.4873 80.4833 21.8658 78.7846C22.2443 77.0859 23.1344 75.5441 24.4163 74.3671L28.9496 70.1504L31.6663 73.3337L31.7496 76.6504Z" fill="#54666F"/>
<path d="M70 53.3335H82.0817C83.4473 53.3311 84.7998 53.5994 86.0611 54.1229C87.3224 54.6464 88.4675 55.4148 89.43 56.3835L97.3467 64.3168C97.6553 64.6255 97.9001 64.9918 98.0671 65.395C98.2341 65.7982 98.3201 66.2304 98.3201 66.6668C98.3201 67.1033 98.2341 67.5354 98.0671 67.9387C97.9001 68.3419 97.6553 68.7082 97.3467 69.0168C97.0381 69.3255 96.6717 69.5703 96.2685 69.7373C95.8653 69.9043 95.4331 69.9902 94.9967 69.9902C94.5602 69.9902 94.1281 69.9043 93.7249 69.7373C93.3216 69.5703 92.9553 69.3255 92.6467 69.0168L84.715 61.1002C84.3709 60.7515 83.9608 60.4747 83.5088 60.2858C83.0567 60.097 82.5716 59.9999 82.0817 60.0002H70V53.3335Z" fill="#54666F"/>
<path d="M71.3833 38.3834L78.3667 35.6C78.7428 35.445 79.0749 35.1997 79.3337 34.8857C79.5924 34.5718 79.7697 34.1989 79.85 33.8L83.4 16.0167C83.4701 15.5733 83.6289 15.1487 83.8671 14.7682C84.1053 14.3877 84.4179 14.0593 84.7861 13.8026C85.1543 13.5458 85.5706 13.3661 86.01 13.2742C86.4493 13.1823 86.9027 13.1801 87.343 13.2677C87.7832 13.3553 88.2013 13.5309 88.572 13.784C88.9427 14.0371 89.2585 14.3625 89.5004 14.7406C89.7423 15.1187 89.9053 15.5418 89.9797 15.9845C90.0541 16.4271 90.0383 16.8803 89.9333 17.3167L86.3833 35.0834C86.094 36.5802 85.4323 37.9802 84.4595 39.154C83.4866 40.3278 82.2338 41.2378 80.8167 41.8L71.6667 45.4667L70 41.6667L71.3833 38.3834Z" fill="#54666F"/>
<path d="M71.0495 70.1504L75.5829 74.3671C76.8647 75.5441 77.7549 77.0859 78.1334 78.7846C78.5119 80.4833 78.3604 82.2571 77.6995 83.8671L72.6662 96.2504C72.5214 96.6817 72.2899 97.0787 71.9859 97.4172C71.6819 97.7556 71.3118 98.0282 70.8984 98.2182C70.4851 98.4082 70.0372 98.5116 69.5824 98.522C69.1276 98.5324 68.6754 98.4496 68.2538 98.2787C67.8322 98.1078 67.4501 97.8524 67.1309 97.5282C66.8117 97.204 66.5623 96.8179 66.3979 96.3937C66.2336 95.9695 66.1578 95.5161 66.1753 95.0615C66.1928 94.6069 66.3031 94.1607 66.4995 93.7504L71.5162 81.3671C71.6636 81.0115 71.6979 80.6191 71.6144 80.2434C71.5309 79.8677 71.3337 79.5268 71.0495 79.2671L68.2495 76.6504L68.3329 73.3337L71.0495 70.1504Z" fill="#54666F"/>
<path d="M39.5 19.3L33.635 6.38503C33.4474 5.98597 33.3409 5.55367 33.3216 5.11315C33.3022 4.67264 33.3705 4.23267 33.5224 3.81873C33.6743 3.40478 33.9069 3.02509 34.2065 2.70165C34.5062 2.3782 34.8671 2.11743 35.2683 1.93443C35.6694 1.75142 36.1029 1.64984 36.5436 1.63554C36.9843 1.62125 37.4235 1.69453 37.8357 1.85115C38.2479 2.00777 38.6249 2.24461 38.9449 2.54796C39.2649 2.85131 39.5215 3.21513 39.7 3.61836L45.2333 15.785L43.3333 18.3334L39.5 19.3Z" fill="#54666F"/>
<path d="M54.7666 15.7836L60.2999 3.61689C60.4784 3.21367 60.735 2.84984 61.055 2.5465C61.375 2.24315 61.752 2.00631 62.1642 1.84969C62.5764 1.69307 63.0156 1.61978 63.4563 1.63408C63.897 1.64837 64.3305 1.74996 64.7316 1.93296C65.1328 2.11596 65.4937 2.37674 65.7933 2.70018C66.093 3.02363 66.3256 3.40332 66.4775 3.81726C66.6294 4.2312 66.6977 4.67117 66.6783 5.11169C66.659 5.5522 66.5525 5.9845 66.3649 6.38356L60.4999 19.3002L56.6666 18.3336L54.7666 15.7836Z" fill="#54666F"/>
<path d="M65 30C65 31.3261 64.4732 32.5979 63.5355 33.5355C62.5979 34.4732 61.3261 35 60 35V38.3333H40V35C38.6739 35 37.4021 34.4732 36.4645 33.5355C35.5268 32.5979 35 31.3261 35 30C35 26.0218 36.5804 22.2064 39.3934 19.3934C42.2064 16.5804 46.0218 15 50 15C53.9782 15 57.7936 16.5804 60.6066 19.3934C63.4196 22.2064 65 26.0218 65 30Z" fill="#485961"/>
<path d="M33.3335 35H66.6668C67.9929 35 69.2647 35.5268 70.2024 36.4645C71.14 37.4021 71.6668 38.6739 71.6668 40V65C71.6668 70.7464 69.3841 76.2574 65.3208 80.3206C61.2575 84.3839 55.7465 86.6667 50.0002 86.6667C44.2538 86.6667 38.7428 84.3839 34.6795 80.3206C30.6162 76.2574 28.3335 70.7464 28.3335 65V40C28.3335 38.6739 28.8603 37.4021 29.798 36.4645C30.7356 35.5268 32.0074 35 33.3335 35Z" fill="#2A373E"/>
<path d="M41.6668 63.3333C41.3061 63.3341 40.955 63.217 40.6668 63L34.0002 58C33.7932 57.8448 33.6252 57.6434 33.5095 57.412C33.3937 57.1806 33.3335 56.9254 33.3335 56.6667C33.3335 56.4079 33.3937 56.1527 33.5095 55.9213C33.6252 55.6899 33.7932 55.4886 34.0002 55.3333L40.6668 50.3333C40.8419 50.202 41.0412 50.1065 41.2532 50.0521C41.4652 49.9978 41.6859 49.9858 41.9025 50.0168C42.1192 50.0477 42.3277 50.121 42.516 50.2325C42.7043 50.3441 42.8688 50.4916 43.0002 50.6667C43.1315 50.8418 43.227 51.041 43.2814 51.253C43.3357 51.4651 43.3477 51.6857 43.3167 51.9024C43.2858 52.119 43.2125 52.3275 43.101 52.5158C42.9894 52.7042 42.8419 52.8687 42.6668 53L37.7785 56.6667L42.6668 60.3333C42.9467 60.5432 43.1534 60.8358 43.2577 61.1697C43.362 61.5036 43.3586 61.8619 43.248 62.1937C43.1374 62.5256 42.9251 62.8142 42.6413 63.0187C42.3576 63.2233 42.0166 63.3333 41.6668 63.3333Z" fill="#6E8692"/>
<path d="M58.3332 63.3333C57.9834 63.3333 57.6424 63.2233 57.3587 63.0187C57.0749 62.8142 56.8626 62.5256 56.752 62.1937C56.6414 61.8619 56.638 61.5036 56.7423 61.1697C56.8466 60.8358 57.0533 60.5432 57.3332 60.3333L62.2215 56.6667L57.3332 53C57.1581 52.8687 57.0106 52.7042 56.899 52.5158C56.7875 52.3275 56.7142 52.119 56.6833 51.9024C56.6523 51.6857 56.6643 51.4651 56.7187 51.253C56.773 51.041 56.8685 50.8418 56.9998 50.6667C57.1312 50.4916 57.2957 50.3441 57.484 50.2325C57.6723 50.121 57.8808 50.0477 58.0975 50.0168C58.3141 49.9858 58.5348 49.9978 58.7468 50.0521C58.9588 50.1065 59.1581 50.202 59.3332 50.3333L65.9998 55.3333C66.2068 55.4886 66.3748 55.6899 66.4906 55.9213C66.6063 56.1527 66.6665 56.4079 66.6665 56.6667C66.6665 56.9254 66.6063 57.1806 66.4906 57.412C66.3748 57.6434 66.2068 57.8448 65.9998 58L59.3332 63C59.045 63.217 58.6939 63.3341 58.3332 63.3333Z" fill="#6E8692"/>
<path d="M48.3333 64.9998C48.1968 64.9995 48.0608 64.9828 47.9283 64.9498C47.4996 64.8428 47.131 64.5698 46.9035 64.191C46.6759 63.8122 46.6081 63.3586 46.715 62.9298L50.0483 49.5965C50.1635 49.1767 50.4383 48.8185 50.8141 48.5987C51.1898 48.3789 51.6367 48.3148 52.0591 48.4202C52.4815 48.5256 52.8459 48.792 53.0744 49.1626C53.3028 49.5332 53.3772 49.9784 53.2817 50.4032L49.9483 63.7365C49.8584 64.097 49.6507 64.417 49.3581 64.6459C49.0655 64.8748 48.7048 64.9994 48.3333 64.9998Z" fill="#6E8692"/>
</g>
</svg>
