<svg width="100" height="100" viewBox="0 0 100 100" fill="none" xmlns="http://www.w3.org/2000/svg">
<g opacity="0.4" clip-path="url(#clip0_17232_79644)">
<path d="M34.8088 73.5269L26.4757 65.1938C26.0496 64.7571 25.4504 64.534 24.8424 64.5854C24.2385 64.6289 23.6833 64.933 23.3216 65.4188L0.418304 96.6676C-0.2721 97.5881 -0.0855838 98.8939 0.83489 99.5841C1.57568 100.14 2.594 100.14 3.3348 99.5841L34.5836 76.6683C35.5117 75.9885 35.7131 74.6848 35.0332 73.7567C34.9701 73.6708 34.9008 73.5897 34.8254 73.5144L34.8088 73.5269Z" fill="#A5B1B6"/>
<path d="M61.8913 58.9433L41.0589 38.1109C37.5541 35.3823 33.1875 34.0001 28.7509 34.2151C22.9434 34.012 17.301 36.1688 13.1099 40.194C9.72665 43.5773 10.0766 48.8062 14.1515 55.7393C17.9998 61.7735 22.5447 67.3336 27.6926 72.3053C35.9798 80.5884 46.4419 89.1963 54.0666 89.1963C56.2155 89.2508 58.2915 88.4155 59.8039 86.888C68.4786 78.2176 66.3162 63.3725 61.8913 58.9433Z" fill="#2A373E"/>
<path d="M78.5572 42.2765L57.7246 21.4439C56.9112 20.6307 55.5925 20.6307 54.7788 21.4439L38.1128 38.1099C35.3879 40.8348 35.6129 46.8596 44.3626 55.6384C50.0749 61.3506 54.6288 63.4297 57.8621 63.4297C59.3585 63.4826 60.8122 62.9264 61.891 61.8881L78.557 45.2221C79.3705 44.4087 79.3705 43.09 78.5572 42.2765Z" fill="#54666F"/>
<path d="M99.8398 36.7065C99.5177 35.9274 98.7578 35.4192 97.9148 35.419C93.3984 35.419 83.482 30.5358 76.474 23.5278C69.4661 16.5199 64.5829 6.60757 64.5829 2.08704C64.5848 0.936492 63.6538 0.00215159 62.5033 3.23263e-06C61.9486 -0.000973294 61.4164 0.219331 61.0246 0.61209C52.5165 9.12427 49.8584 23.6403 63.1079 36.8898C68.1486 42.4914 75.2436 45.812 82.7738 46.0936C89.0373 46.0217 95.0146 43.4597 99.3857 38.973C99.9808 38.3787 100.16 37.4846 99.8398 36.7065Z" fill="#2A373E"/>
<path d="M86.8905 13.1118C78.0658 4.29125 70.087 0.00390625 62.4998 0.00390625C61.3493 0.00390625 60.4165 0.936684 60.4165 2.08723C60.4165 8.30789 66.2997 19.2491 73.5244 26.4779C80.7492 33.7068 91.6987 39.5858 97.9151 39.5858C99.0657 39.5858 99.9984 38.6531 99.9984 37.5025C99.9984 29.9112 95.7111 21.9322 86.8905 13.1118Z" fill="#54666F"/>
</g>
<defs>
<clipPath id="clip0_17232_79644">
<rect width="100" height="100" fill="white"/>
</clipPath>
</defs>
</svg>
