<svg width="100" height="100" viewBox="0 0 100 100" fill="none" xmlns="http://www.w3.org/2000/svg">
<g opacity="0.4">
<path d="M15.625 50C19.4004 50 22.4609 46.9394 22.4609 43.1641C22.4609 39.3887 19.4004 36.3281 15.625 36.3281C11.8496 36.3281 8.78906 39.3887 8.78906 43.1641C8.78906 46.9394 11.8496 50 15.625 50Z" fill="#2A373E"/>
<path d="M43.75 40.625C47.5254 40.625 50.5859 37.5644 50.5859 33.7891C50.5859 30.0137 47.5254 26.9531 43.75 26.9531C39.9746 26.9531 36.9141 30.0137 36.9141 33.7891C36.9141 37.5644 39.9746 40.625 43.75 40.625Z" fill="#2A373E"/>
<path d="M25.6545 59.7656H18.3592V55.1562C16.5591 55.5646 14.6905 55.5646 12.8904 55.1562V59.7656H3.12481C2.5846 59.7668 2.05685 59.928 1.60815 60.2288C1.15946 60.5297 0.80992 60.9567 0.603655 61.4559C0.397389 61.9552 0.343637 62.5044 0.449181 63.0342C0.554725 63.564 0.814836 64.0507 1.19669 64.4328L11.7639 75L1.19669 85.5672C0.814836 85.9493 0.554725 86.436 0.449181 86.9658C0.343637 87.4956 0.397389 88.0448 0.603655 88.5441C0.80992 89.0433 1.15946 89.4703 1.60815 89.7712C2.05685 90.072 2.5846 90.2332 3.12481 90.2344H25.6545L36.2498 75L25.6545 59.7656Z" fill="#54666F"/>
<path d="M57.4264 59.7656H46.4889V45.7812C44.6888 46.1896 42.8202 46.1896 41.0201 45.7812V59.7656H32.3154L42.9139 75L32.3154 90.2344H57.4264L68.0232 75L57.4264 59.7656Z" fill="#54666F"/>
<path d="M73.0469 32.8125H92.1875C92.9126 32.8121 93.6078 32.5239 94.1205 32.0112C94.6332 31.4985 94.9215 30.8032 94.9219 30.0781V15.625C94.9215 14.8999 94.6332 14.2047 94.1205 13.692C93.6078 13.1793 92.9126 12.891 92.1875 12.8906H73.0469V12.5C73.0469 11.7748 72.7588 11.0793 72.246 10.5665C71.7332 10.0537 71.0377 9.76562 70.3125 9.76562C69.5873 9.76562 68.8918 10.0537 68.379 10.5665C67.8662 11.0793 67.5781 11.7748 67.5781 12.5V54.2969H73.0469V32.8125Z" fill="#2A373E"/>
<path d="M98.8077 73.0672L86.3077 60.5672C86.0541 60.313 85.7529 60.1113 85.4212 59.9737C85.0895 59.8362 84.734 59.7655 84.3749 59.7656H64.0874L74.6874 75L64.089 90.2344H84.3749C84.734 90.2345 85.0895 90.1638 85.4212 90.0263C85.7529 89.8887 86.0541 89.687 86.3077 89.4328L98.8077 76.9328C99.0618 76.6791 99.2634 76.3779 99.4009 76.0462C99.5384 75.7146 99.6092 75.359 99.6092 75C99.6092 74.641 99.5384 74.2854 99.4009 73.9538C99.2634 73.6221 99.0618 73.3209 98.8077 73.0672Z" fill="#54666F"/>
</g>
</svg>
