<svg width="96" height="100" viewBox="0 0 96 100" fill="none" xmlns="http://www.w3.org/2000/svg">
<g opacity="0.4" clip-path="url(#clip0_17232_83433)">
<path opacity="0.4" d="M67.9025 4.62012H28.0975C10.8075 4.62012 0.5 14.9535 0.5 32.2868V72.1915C0.5 89.5248 10.8075 99.8581 28.0975 99.8581H67.9025C85.1925 99.8581 95.5 89.5248 95.5 72.1915V32.2868C95.5 14.9535 85.1925 4.62012 67.9025 4.62012Z" fill="#54666F"/>
<path d="M77.9749 37.3351C77.9749 39.2875 76.4074 40.9065 74.4124 40.9065H49.4749C47.5276 40.9065 45.9126 39.2875 45.9126 37.3351C45.9126 35.3827 47.5276 33.7637 49.4749 33.7637H74.4124C76.4074 33.7637 77.9749 35.3827 77.9749 37.3351Z" fill="#2A373E"/>
<path d="M38.3601 32.7157L27.6726 43.4299C26.9601 44.1442 26.0576 44.4776 25.1551 44.4776C24.2526 44.4776 23.3026 44.1442 22.6376 43.4299L19.0751 39.8585C17.6501 38.4776 17.6501 36.1918 19.0751 34.8109C20.4526 33.4299 22.6851 33.4299 24.1101 34.8109L25.1551 35.8585L33.3251 27.668C34.7026 26.2871 36.9351 26.2871 38.3601 27.668C39.7376 29.049 39.7376 31.3347 38.3601 32.7157Z" fill="#2A373E"/>
<path d="M77.9749 70.6681C77.9749 72.6205 76.4074 74.2395 74.4124 74.2395H49.4749C47.5276 74.2395 45.9126 72.6205 45.9126 70.6681C45.9126 68.7157 47.5276 67.0967 49.4749 67.0967H74.4124C76.4074 67.0967 77.9749 68.7157 77.9749 70.6681Z" fill="#2A373E"/>
<path d="M38.3601 66.0492L27.6726 76.7634C26.9601 77.4777 26.0576 77.8111 25.1551 77.8111C24.2526 77.8111 23.3026 77.4777 22.6376 76.7634L19.0751 73.192C17.6501 71.8111 17.6501 69.5253 19.0751 68.1444C20.4526 66.7634 22.6851 66.7634 24.1101 68.1444L25.1551 69.192L33.3251 61.0015C34.7026 59.6206 36.9351 59.6206 38.3601 61.0015C39.7376 62.3825 39.7376 64.6682 38.3601 66.0492Z" fill="#2A373E"/>
</g>
<defs>
<clipPath id="clip0_17232_83433">
<rect width="95" height="100" fill="white" transform="translate(0.5)"/>
</clipPath>
</defs>
</svg>
