<svg width="100" height="100" viewBox="0 0 100 100" fill="none" xmlns="http://www.w3.org/2000/svg">
<g opacity="0.4">
<path d="M26.3672 82.2266H17.5781C7.88498 82.2266 0 74.3416 0 64.6484C0 54.9553 7.88498 47.0703 17.5781 47.0703H26.3672V52.9297H17.5781C11.1153 52.9297 5.85938 58.1856 5.85938 64.6484C5.85938 71.1113 11.1153 76.3672 17.5781 76.3672H26.3672V82.2266Z" fill="#54666F"/>
<path d="M26.3672 17.7727H21.4844L10.5453 9.57031L7.03278 14.2563L11.7195 17.7727H0V23.632H11.7195L7.03278 27.1484L10.5453 31.8344L21.4844 23.632H26.3672V17.7727Z" fill="#54666F"/>
<path d="M82.4219 52.9297H73.6328V47.0703H82.4219C88.8847 47.0703 94.1406 41.8144 94.1406 35.3516C94.1406 28.8887 88.8847 23.6328 82.4219 23.6328H73.6328V17.7734H82.4219C92.115 17.7734 100 25.6584 100 35.3516C100 45.0447 92.115 52.9297 82.4219 52.9297Z" fill="#54666F"/>
<path d="M85.3516 68.1641L81.8382 72.85L86.525 76.3664H73.6328V82.2258H86.525L81.8382 85.7422L85.3516 90.4282L100 79.2961L85.3516 68.1641Z" fill="#54666F"/>
<path d="M64.8438 8.98438H35.1562C28.7109 8.98438 23.4375 14.2578 23.4375 20.7031C23.4375 27.1484 28.7109 32.4219 35.1562 32.4219H64.8438C71.2891 32.4219 76.5625 27.1484 76.5625 20.7031C76.5625 14.2578 71.2891 8.98438 64.8438 8.98438Z" fill="#2A373E"/>
<path d="M64.8438 38.2812H35.1562C28.7109 38.2812 23.4375 43.5547 23.4375 50C23.4375 56.4453 28.7109 61.7188 35.1562 61.7188H64.8438C71.2891 61.7188 76.5625 56.4453 76.5625 50C76.5625 43.5547 71.2891 38.2812 64.8438 38.2812Z" fill="#2A373E"/>
<path d="M64.8438 67.5781H35.1562C28.7109 67.5781 23.4375 72.8516 23.4375 79.2969C23.4375 85.7422 28.7109 91.0156 35.1562 91.0156H64.8438C71.2891 91.0156 76.5625 85.7422 76.5625 79.2969C76.5625 72.8516 71.2891 67.5781 64.8438 67.5781Z" fill="#2A373E"/>
</g>
</svg>
