<svg width="140" height="107" viewBox="0 0 140 107" fill="none" xmlns="http://www.w3.org/2000/svg">
<g opacity="0.4">
<path d="M139.403 81.4266L117.992 60.0158C117.706 59.7306 117.342 59.5366 116.946 59.458C116.55 59.3795 116.139 59.4199 115.766 59.5744C115.393 59.7288 115.074 59.9903 114.849 60.3258C114.625 60.6613 114.504 61.0558 114.503 61.4597V71.2074H60.6138V94.5277H114.509V104.275C114.51 104.679 114.63 105.074 114.855 105.409C115.08 105.745 115.399 106.006 115.772 106.161C116.145 106.315 116.556 106.356 116.952 106.277C117.348 106.199 117.712 106.004 117.998 105.719L139.409 84.3085C139.789 83.9246 140.001 83.4062 140 82.8663C139.999 82.3264 139.784 81.8089 139.403 81.4266Z" fill="#54666F"/>
<path d="M75.4004 71.2373C71.5482 73.7278 67.0574 75.0501 62.4702 75.0445V94.5576H81.0345C91.659 89.9845 100.25 81.6928 105.198 71.2373H75.4004Z" fill="url(#paint0_linear_17232_79956)"/>
<path d="M107.85 47.3276C107.875 35.2065 103.238 23.5397 94.9007 14.7418C86.5629 5.94389 75.1617 0.688395 63.0567 0.0629663C50.9517 -0.562462 39.0696 3.49006 29.8695 11.3818C20.6694 19.2736 14.8556 30.4005 13.6313 42.4596L5.74592 41.7465C5.39177 41.716 5.03649 41.7908 4.72472 41.9615C4.41295 42.1323 4.1586 42.3913 3.99361 42.7062C3.82863 43.0211 3.76037 43.3777 3.79742 43.7312C3.83447 44.0847 3.97517 44.4194 4.20184 44.6932L22.2122 66.2809C22.8486 67.047 23.9802 67.1472 24.2159 66.5107L45.8036 48.4945C47.5716 47.4631 46.941 45.4594 45.3439 45.312L36.8691 44.5459C37.4033 39.966 39.2503 35.6383 42.1877 32.0841C45.1251 28.53 49.0275 25.9009 53.4248 24.5138C57.8221 23.1266 62.5266 23.0406 66.9717 24.2659C71.4168 25.4912 75.4128 27.9757 78.4782 31.4201C81.5437 34.8644 83.5478 39.1216 84.2492 43.6789C84.9505 48.2361 84.3192 52.899 82.4313 57.1056C80.5434 61.3123 77.4793 64.8833 73.6084 67.3885C69.7374 69.8937 65.2246 71.2262 60.6137 71.2254H60.5V94.5221C72.8587 94.274 85.6557 89.1949 94.3145 80.3731C102.973 71.5513 107.832 59.6887 107.85 47.3276Z" fill="#2A373E"/>
<path d="M60.6139 71.2373H0V94.5576H60.6139V71.2373Z" fill="url(#paint1_linear_17232_79956)"/>
</g>
<defs>
<linearGradient id="paint0_linear_17232_79956" x1="15.2521" y1="82.8945" x2="109.712" y2="82.8945" gradientUnits="userSpaceOnUse">
<stop stop-color="#6C798F"/>
<stop offset="1" stop-color="#6C798F" stop-opacity="0.1"/>
</linearGradient>
<linearGradient id="paint1_linear_17232_79956" x1="0" y1="82.8945" x2="61.5274" y2="82.8945" gradientUnits="userSpaceOnUse">
<stop stop-color="#2A373E" stop-opacity="0"/>
<stop offset="0.01" stop-color="#2A373E" stop-opacity="0.04"/>
<stop offset="0.05" stop-color="#2A373E" stop-opacity="0.22"/>
<stop offset="0.09" stop-color="#2A373E" stop-opacity="0.38"/>
<stop offset="0.14" stop-color="#2A373E" stop-opacity="0.53"/>
<stop offset="0.2" stop-color="#2A373E" stop-opacity="0.66"/>
<stop offset="0.25" stop-color="#2A373E" stop-opacity="0.77"/>
<stop offset="0.32" stop-color="#2A373E" stop-opacity="0.85"/>
<stop offset="0.4" stop-color="#2A373E" stop-opacity="0.92"/>
<stop offset="0.49" stop-color="#2A373E" stop-opacity="0.97"/>
<stop offset="0.63" stop-color="#2A373E"/>
<stop offset="1" stop-color="#2A373E"/>
</linearGradient>
</defs>
</svg>
