<svg width="100" height="100" viewBox="0 0 100 100" fill="none" xmlns="http://www.w3.org/2000/svg">
<g opacity="0.4" clip-path="url(#clip0_17367_163457)">
<path d="M85.5647 53.3828H77.8311C78.6193 55.541 79.05 57.8701 79.05 60.2977V89.5262C79.05 90.5383 78.8738 91.5098 78.5533 92.4134H91.3387C96.1147 92.4134 100 88.5278 100 83.752V67.8182C100 59.8586 93.5244 53.3828 85.5647 53.3828Z" fill="#54666F"/>
<path d="M20.9502 60.2977C20.9502 57.8699 21.3809 55.541 22.1692 53.3828H14.4356C6.47579 53.3828 0 59.8586 0 67.8184V83.7522C0 88.528 3.88536 92.4135 8.66135 92.4135H21.4469C21.1264 91.5096 20.9502 90.5383 20.9502 89.5262V60.2977Z" fill="#54666F"/>
<path d="M58.8403 45.8633H41.1602C33.2004 45.8633 26.7246 52.3391 26.7246 60.2989V89.5274C26.7246 91.1218 28.0172 92.4145 29.6117 92.4145H70.3888C71.9833 92.4145 73.2759 91.122 73.2759 89.5274V60.2989C73.2759 52.3391 66.8001 45.8633 58.8403 45.8633Z" fill="#2A373E"/>
<path d="M50.0002 7.58594C40.4276 7.58594 32.6396 15.3738 32.6396 24.9467C32.6396 31.4399 36.2234 37.1108 41.516 40.0882C44.0264 41.5003 46.9205 42.3073 50.0002 42.3073C53.0799 42.3073 55.9741 41.5003 58.4844 40.0882C63.7772 37.1108 67.3608 31.4397 67.3608 24.9467C67.3608 15.374 59.5729 7.58594 50.0002 7.58594Z" fill="#2A373E"/>
<path d="M19.5152 23.7676C12.356 23.7676 6.53174 29.5918 6.53174 36.751C6.53174 43.9102 12.356 49.7344 19.5152 49.7344C21.3312 49.7344 23.0605 49.3583 24.6314 48.6821C27.3474 47.5127 29.5869 45.4428 30.9726 42.85C31.9453 41.0303 32.4986 38.9543 32.4986 36.751C32.4986 29.592 26.6744 23.7676 19.5152 23.7676Z" fill="#54666F"/>
<path d="M80.4849 23.7676C73.3257 23.7676 67.5015 29.5918 67.5015 36.751C67.5015 38.9545 68.0548 41.0305 69.0274 42.85C70.4132 45.443 72.6526 47.5129 75.3687 48.6821C76.9396 49.3583 78.6689 49.7344 80.4849 49.7344C87.6441 49.7344 93.4683 43.9102 93.4683 36.751C93.4683 29.5918 87.6441 23.7676 80.4849 23.7676Z" fill="#54666F"/>
</g>
<defs>
<clipPath id="clip0_17367_163457">
<rect width="100" height="100" fill="white"/>
</clipPath>
</defs>
</svg>
