<svg width="57" height="33" viewBox="0 0 57 33" fill="none" xmlns="http://www.w3.org/2000/svg">
<rect y="0.65332" width="56.2" height="32.2222" rx="2" fill="white"/>
<rect x="0.25" y="0.90332" width="55.7" height="31.7222" rx="1.75" stroke="#2B2C30" stroke-opacity="0.16" stroke-width="0.5"/>
<circle cx="6" cy="7.76465" r="1.5" fill="#1967D2"/>
<circle cx="6" cy="13.7646" r="1.5" fill="#D9D9D9"/>
<circle cx="6" cy="19.7646" r="1.5" fill="#D9D9D9"/>
<circle cx="6" cy="25.7646" r="1.5" fill="#D9D9D9"/>
<rect x="10" y="4.76465" width="0.2" height="24" fill="#D9D9D9" fill-opacity="0.7"/>
<rect x="12.1992" y="4.65332" width="40" height="0.888889" rx="0.444444" fill="#D9D9D9"/>
<rect x="12.1992" y="8.54199" width="40" height="0.888889" rx="0.444444" fill="#D9D9D9"/>
<rect x="12.1992" y="12.4307" width="40" height="0.888889" rx="0.444444" fill="#D9D9D9"/>
<rect x="12.1992" y="16.3203" width="40" height="0.888889" rx="0.444444" fill="#D9D9D9"/>
<rect x="12.1992" y="20.209" width="40" height="0.888889" rx="0.444444" fill="#D9D9D9"/>
<rect x="12.1992" y="24.0977" width="40" height="0.888889" rx="0.444444" fill="#D9D9D9"/>
<rect x="12.1992" y="27.9863" width="40" height="0.888889" rx="0.444444" fill="#D9D9D9"/>
</svg>
