<svg width="73" height="72" viewBox="0 0 73 72" fill="none" xmlns="http://www.w3.org/2000/svg">
<rect x="0.333496" width="72" height="72" rx="8" fill="#F3F4F6"/>
<path d="M49.3335 51H23.3335" stroke="#2B2C30" stroke-width="2" stroke-linecap="round" stroke-linejoin="round"/>
<path d="M36.3335 54.5C36.4661 54.5 36.5933 54.5527 36.687 54.6464C36.7808 54.7402 36.8335 54.8674 36.8335 55C36.8335 55.1326 36.7808 55.2598 36.687 55.3536C36.5933 55.4473 36.4661 55.5 36.3335 55.5C36.2009 55.5 36.0737 55.4473 35.9799 55.3536C35.8862 55.2598 35.8335 55.1326 35.8335 55C35.8335 54.8674 35.8862 54.7402 35.9799 54.6464C36.0737 54.5527 36.2009 54.5 36.3335 54.5Z" stroke="#2B2C30" stroke-width="2" stroke-linecap="round" stroke-linejoin="round"/>
<circle cx="36.3335" cy="54.5" r="1" fill="#2B2C30"/>
<path d="M45.3335 13H27.3335C25.1244 13 23.3335 14.7909 23.3335 17V55C23.3335 57.2091 25.1244 59 27.3335 59H45.3335C47.5426 59 49.3335 57.2091 49.3335 55V17C49.3335 14.7909 47.5426 13 45.3335 13Z" stroke="#2B2C30" stroke-width="2" stroke-linecap="round" stroke-linejoin="round"/>
</svg>
